<?xml version="1.0" standalone="no"?>
<!DOCTYPE svg PUBLIC "-//W3C//DTD SVG 1.1//EN" "http://www.w3.org/Graphics/SVG/1.1/DTD/svg11.dtd" >
<svg xmlns="http://www.w3.org/2000/svg" xmlns:xlink="http://www.w3.org/1999/xlink" version="1.1">
<metadata>
Created by FontForge 20201107 at Tue Feb  8 08:36:37 2022
 By Jimmy Wärting
Copyright \(c\) 2017 by Josh Finklea. All rights reserved.
</metadata>
<defs>
<font id="CentraNo2-Medium" horiz-adv-x="600" >
  <font-face 
    font-family="Centra No2 Medium"
    font-weight="500"
    font-stretch="normal"
    units-per-em="1000"
    panose-1="0 0 0 0 0 0 0 0 0 0"
    ascent="700"
    descent="-300"
    x-height="490"
    cap-height="700"
    bbox="-209 -251 1178 931"
    underline-thickness="50"
    underline-position="-125"
    unicode-range="U+0020-FB02"
  />
<missing-glyph horiz-adv-x="840" 
d="M70 700h700v-700h-700v700zM140 70h560v560h-560v-560zM183 163l188 187l-188 187l50 50l187 -188l187 188l50 -50l-188 -187l188 -187l-50 -50l-187 188l-187 -188z" />
    <glyph glyph-name=".notdef" horiz-adv-x="840" 
d="M70 700h700v-700h-700v700zM140 70h560v560h-560v-560zM183 163l188 187l-188 187l50 50l187 -188l187 188l50 -50l-188 -187l188 -187l-50 -50l-187 188l-187 -188z" />
    <glyph glyph-name="space" unicode=" " horiz-adv-x="239" 
 />
    <glyph glyph-name="A" unicode="A" horiz-adv-x="692" 
d="M397 700l285 -700h-126l-71 177h-282l-70 -177h-123l285 700h102zM242 282h205l-103 260z" />
    <glyph glyph-name="B" unicode="B" horiz-adv-x="622" 
d="M319 700c129 0 220 -70 220 -187c0 -64 -30 -114 -83 -140c81 -27 125 -88 125 -171c0 -126 -95 -202 -244 -202h-255v700h237zM200 103h132c77 0 128 37 128 105c0 65 -52 104 -129 104h-131v-209zM200 411h111c65 0 111 34 111 94s-46 93 -111 93h-111v-187z" />
    <glyph glyph-name="C" unicode="C" horiz-adv-x="643" 
d="M46 350c0 204 159 363 361 363c67 0 132 -20 191 -57v-129c-61 46 -121 69 -190 69c-135 0 -238 -108 -238 -246c0 -136 103 -245 238 -245c68 0 130 23 192 67v-129c-64 -38 -130 -55 -194 -55c-202 0 -360 157 -360 362z" />
    <glyph glyph-name="D" unicode="D" horiz-adv-x="709" 
d="M663 350c0 -198 -157 -350 -352 -350h-229v700h229c195 0 352 -152 352 -350zM202 112h106c133 0 232 105 232 238s-99 238 -232 238h-106v-476z" />
    <glyph glyph-name="E" unicode="E" horiz-adv-x="535" 
d="M82 700h400v-109h-280v-178h258v-106h-258v-198h282v-109h-402v700z" />
    <glyph glyph-name="F" unicode="F" horiz-adv-x="514" 
d="M202 0h-120v700h391v-109h-271v-178h253v-109h-253v-304z" />
    <glyph glyph-name="G" unicode="G" horiz-adv-x="789" 
d="M608 480c-39 76 -112 119 -201 119c-133 0 -239 -111 -239 -249c0 -137 105 -249 240 -249c111 0 194 72 210 173h-228v105h356v-45c0 -195 -140 -346 -339 -346c-201 0 -361 162 -361 362s163 363 362 363c136 0 251 -70 307 -179z" />
    <glyph glyph-name="H" unicode="H" horiz-adv-x="732" 
d="M82 700h120v-283h328v283h120v-700h-120v303h-328v-303h-120v700z" />
    <glyph glyph-name="I" unicode="I" horiz-adv-x="284" 
d="M202 700v-700h-120v700h120z" />
    <glyph glyph-name="J" unicode="J" horiz-adv-x="517" 
d="M444 217c0 -141 -83 -229 -217 -229c-101 0 -180 55 -214 145l102 56c24 -56 61 -89 112 -89c62 0 97 44 97 118v482h120v-483z" />
    <glyph glyph-name="K" unicode="K" horiz-adv-x="644" 
d="M202 408l264 292h146l-293 -320l316 -380h-151l-244 299l-38 -42v-257h-120v700h120v-292z" />
    <glyph glyph-name="L" unicode="L" horiz-adv-x="469" 
d="M202 700v-588h246v-112h-366v700h120z" />
    <glyph glyph-name="M" unicode="M" horiz-adv-x="944" 
d="M862 700v-700h-117v498l-234 -498h-79l-233 497v-497h-117v700h146l246 -531l246 531h142z" />
    <glyph glyph-name="N" unicode="N" horiz-adv-x="774" 
d="M692 700v-700h-117l-377 514v-514h-116v700h122l372 -513v513h116z" />
    <glyph glyph-name="O" unicode="O" horiz-adv-x="818" 
d="M46 350c0 202 162 363 363 363s363 -161 363 -363c0 -201 -162 -362 -363 -362s-363 161 -363 362zM169 350c0 -136 105 -246 240 -246s240 110 240 246c0 137 -105 247 -240 247s-240 -110 -240 -247z" />
    <glyph glyph-name="P" unicode="P" horiz-adv-x="575" 
d="M309 700c143 0 242 -78 242 -214c0 -135 -99 -213 -242 -213h-107v-273h-120v700h227zM202 380h109c70 0 120 39 120 106s-50 106 -120 106h-109v-212z" />
    <glyph glyph-name="Q" unicode="Q" horiz-adv-x="818" 
d="M617 53c-59 -41 -131 -65 -208 -65c-201 0 -363 161 -363 362c0 202 162 363 363 363s363 -161 363 -363c0 -85 -30 -163 -78 -225l72 -61l-69 -80zM167 350c0 -137 106 -248 242 -248c42 0 81 11 116 30l-71 61l69 78l81 -69c29 41 47 92 47 148
c0 138 -106 249 -242 249s-242 -111 -242 -249z" />
    <glyph glyph-name="R" unicode="R" horiz-adv-x="605" 
d="M201 0h-119v700h219c141 0 240 -77 240 -213c0 -104 -65 -174 -158 -200l206 -287h-141l-193 277h-54v-277zM201 378h100c70 0 120 40 120 108s-50 106 -120 106h-100v-214z" />
    <glyph glyph-name="S" unicode="S" horiz-adv-x="556" 
d="M139 213c25 -67 77 -112 147 -112c60 0 111 33 111 92c0 45 -28 75 -88 97l-83 30c-103 37 -164 98 -164 194c0 121 95 199 217 199c101 -1 186 -58 225 -155l-103 -52c-21 53 -62 95 -121 95c-55 0 -96 -32 -96 -80c0 -42 30 -68 87 -90l86 -33
c109 -42 163 -104 163 -197c0 -133 -108 -213 -236 -213c-117 0 -212 64 -251 175z" />
    <glyph glyph-name="T" unicode="T" horiz-adv-x="547" 
d="M19 700h509v-111h-194v-589h-121v589h-194v111z" />
    <glyph glyph-name="U" unicode="U" horiz-adv-x="694" 
d="M347 -12c-174 0 -274 116 -274 290v422h120v-417c0 -108 54 -179 154 -179s154 71 154 179v417h120v-422c0 -174 -100 -290 -274 -290z" />
    <glyph glyph-name="V" unicode="V" horiz-adv-x="652" 
d="M280 0l-271 700h127l192 -511l191 511h124l-271 -700h-92z" />
    <glyph glyph-name="W" unicode="W" horiz-adv-x="1012" 
d="M249 0l-238 700h124l161 -499l167 499h88l166 -499l162 499h122l-239 -700h-90l-167 500l-166 -500h-90z" />
    <glyph glyph-name="X" unicode="X" horiz-adv-x="642" 
d="M161 700l160 -246l162 246h135l-227 -339l243 -361h-139l-175 268l-177 -268h-135l242 360l-227 340h138z" />
    <glyph glyph-name="Y" unicode="Y" horiz-adv-x="641" 
d="M381 0h-120v308l-253 392h138l176 -281l176 281h135l-252 -392v-308z" />
    <glyph glyph-name="Z" unicode="Z" horiz-adv-x="611" 
d="M196 108h382v-108h-546v78l378 514h-354v108h518v-78z" />
    <glyph glyph-name="AE" unicode="&#xc6;" horiz-adv-x="944" 
d="M491 176h-244l-108 -176h-131l432 700h451v-109h-281v-178h259v-106h-259v-198h283v-109h-402v176zM308 280h183v301z" />
    <glyph glyph-name="AEacute" unicode="&#x1fc;" horiz-adv-x="944" 
d="M491 176h-244l-108 -176h-131l432 700h451v-109h-281v-178h259v-106h-259v-198h283v-109h-402v176zM308 280h183v301zM528 755l96 143h127l-121 -143h-102z" />
    <glyph glyph-name="Oslash" unicode="&#xd8;" horiz-adv-x="818" 
d="M46 350c0 202 162 363 363 363c82 0 158 -27 219 -73l76 79l63 -60l-76 -80c50 -62 81 -142 81 -229c0 -201 -162 -362 -363 -362c-82 0 -157 26 -217 71l-76 -79l-65 63l76 78c-51 62 -81 142 -81 229zM167 350c0 -53 15 -102 43 -143l336 349c-38 27 -86 43 -137 43
c-136 0 -242 -111 -242 -249zM273 144c38 -27 85 -42 136 -42c136 0 242 111 242 248c0 53 -16 102 -43 143z" />
    <glyph glyph-name="Oslashacute" unicode="&#x1fe;" horiz-adv-x="818" 
d="M46 350c0 202 162 363 363 363c82 0 158 -27 219 -73l76 79l63 -60l-76 -80c50 -62 81 -142 81 -229c0 -201 -162 -362 -363 -362c-82 0 -157 26 -217 71l-76 -79l-65 63l76 78c-51 62 -81 142 -81 229zM167 350c0 -53 15 -102 43 -143l336 349c-38 27 -86 43 -137 43
c-136 0 -242 -111 -242 -249zM273 144c38 -27 85 -42 136 -42c136 0 242 111 242 248c0 53 -16 102 -43 143zM354 755l96 143h127l-121 -143h-102z" />
    <glyph glyph-name="Aring" unicode="&#xc5;" horiz-adv-x="692" 
d="M397 700l285 -700h-126l-71 177h-282l-70 -177h-123l285 700h102zM242 282h205l-103 260zM244 833c0 56 46 98 103 98s103 -42 103 -98s-46 -98 -103 -98s-103 42 -103 98zM309 833c0 -21 17 -38 38 -38s38 17 38 38s-17 38 -38 38s-38 -17 -38 -38z" />
    <glyph glyph-name="Aacute" unicode="&#xc1;" horiz-adv-x="692" 
d="M397 700l285 -700h-126l-71 177h-282l-70 -177h-123l285 700h102zM242 282h205l-103 260zM301 755l96 143h127l-121 -143h-102z" />
    <glyph glyph-name="Abreve" unicode="&#x102;" horiz-adv-x="692" 
d="M397 700l285 -700h-126l-71 177h-282l-70 -177h-123l285 700h102zM204 895h82c2 -39 26 -63 61 -63c34 0 58 24 60 63h82c0 -83 -60 -139 -142 -139c-83 0 -143 56 -143 139zM242 282h205l-103 260z" />
    <glyph glyph-name="Acircumflex" unicode="&#xc2;" horiz-adv-x="692" 
d="M397 700l285 -700h-126l-71 177h-282l-70 -177h-123l285 700h102zM191 755l111 143h90l110 -143h-106l-51 67l-50 -67h-104zM242 282h205l-103 260z" />
    <glyph glyph-name="Adieresis" unicode="&#xc4;" horiz-adv-x="692" 
d="M397 700l285 -700h-126l-71 177h-282l-70 -177h-123l285 700h102zM189 827c0 33 28 61 61 61c36 0 63 -29 63 -61c0 -34 -28 -62 -63 -62c-33 0 -61 28 -61 62zM242 282h205l-103 260zM380 827c0 33 28 61 62 61c35 0 62 -29 62 -61c0 -34 -28 -62 -62 -62s-62 28 -62 62
z" />
    <glyph glyph-name="Adieresis.square" horiz-adv-x="692" 
d="M397 700l285 -700h-126l-71 177h-282l-70 -177h-123l285 700h102zM196 768v116h108v-116h-108zM242 282h205l-103 260zM389 768v116h108v-116h-108z" />
    <glyph glyph-name="Agrave" unicode="&#xc0;" horiz-adv-x="692" 
d="M397 700l285 -700h-126l-71 177h-282l-70 -177h-123l285 700h102zM170 898h127l95 -143h-101zM242 282h205l-103 260z" />
    <glyph glyph-name="Amacron" unicode="&#x100;" horiz-adv-x="692" 
d="M397 700l285 -700h-126l-71 177h-282l-70 -177h-123l285 700h102zM203 772v77h288v-77h-288zM242 282h205l-103 260z" />
    <glyph glyph-name="Aogonek" unicode="&#x104;" horiz-adv-x="692" 
d="M682 0c-72 -12 -123 -54 -123 -95c0 -24 16 -36 42 -36c16 0 32 4 46 13v-74c-19 -9 -42 -14 -67 -14c-67 0 -109 37 -109 92c0 46 28 84 85 114l-71 177h-282l-70 -177h-123l285 700h102zM242 282h205l-103 260z" />
    <glyph glyph-name="Atilde" unicode="&#xc3;" horiz-adv-x="692" 
d="M397 700l285 -700h-126l-71 177h-282l-70 -177h-123l285 700h102zM179 765c-1 81 43 119 101 119c68 0 90 -48 127 -48c24 0 37 18 37 44h72c1 -82 -43 -119 -101 -119c-68 0 -90 48 -127 48c-25 0 -37 -18 -37 -44h-72zM242 282h205l-103 260z" />
    <glyph glyph-name="Anocross" horiz-adv-x="692" 
d="M133 0h-123l285 700h100l285 -700h-126l-211 534z" />
    <glyph glyph-name="Cacute" unicode="&#x106;" horiz-adv-x="643" 
d="M46 350c0 204 159 363 361 363c67 0 132 -20 191 -57v-129c-61 46 -121 69 -190 69c-135 0 -238 -108 -238 -246c0 -136 103 -245 238 -245c68 0 130 23 192 67v-129c-64 -38 -130 -55 -194 -55c-202 0 -360 157 -360 362zM327 755l96 143h127l-121 -143h-102z" />
    <glyph glyph-name="Ccaron" unicode="&#x10c;" horiz-adv-x="643" 
d="M46 350c0 204 159 363 361 363c67 0 132 -20 191 -57v-129c-61 46 -121 69 -190 69c-135 0 -238 -108 -238 -246c0 -136 103 -245 238 -245c68 0 130 23 192 67v-129c-64 -38 -130 -55 -194 -55c-202 0 -360 157 -360 362zM242 898h106l51 -68l51 68h103l-110 -143h-90z
" />
    <glyph glyph-name="Ccedilla" unicode="&#xc7;" horiz-adv-x="643" 
d="M398 -47c51 0 88 -36 88 -85c0 -54 -43 -93 -101 -93c-56 0 -95 36 -101 83h70c3 -11 14 -24 32 -24c20 0 33 14 33 32s-14 31 -32 31c-12 0 -22 -6 -29 -14l-59 32l34 80c-166 32 -287 175 -287 355c0 204 159 363 361 363c67 0 132 -20 191 -57v-129
c-61 46 -121 69 -190 69c-135 0 -238 -108 -238 -246c0 -136 103 -245 238 -245c68 0 130 23 192 67v-129c-64 -38 -130 -55 -194 -55h-9l-18 -38c4 2 13 3 19 3z" />
    <glyph glyph-name="Ccircumflex" unicode="&#x108;" horiz-adv-x="643" 
d="M46 350c0 204 159 363 361 363c67 0 132 -20 191 -57v-129c-61 46 -121 69 -190 69c-135 0 -238 -108 -238 -246c0 -136 103 -245 238 -245c68 0 130 23 192 67v-129c-64 -38 -130 -55 -194 -55c-202 0 -360 157 -360 362zM242 755l111 143h90l110 -143h-106l-51 67
l-50 -67h-104z" />
    <glyph glyph-name="Cdotaccent" unicode="&#x10a;" horiz-adv-x="643" 
d="M46 350c0 204 159 363 361 363c67 0 132 -20 191 -57v-129c-61 46 -121 69 -190 69c-135 0 -238 -108 -238 -246c0 -136 103 -245 238 -245c68 0 130 23 192 67v-129c-64 -38 -130 -55 -194 -55c-202 0 -360 157 -360 362zM332 832c0 38 31 69 68 69c39 0 69 -32 69 -69
s-30 -68 -69 -68c-37 0 -68 30 -68 68z" />
    <glyph glyph-name="Cdotaccent.square" horiz-adv-x="643" 
d="M46 350c0 204 159 363 361 363c67 0 132 -20 191 -57v-129c-61 46 -121 69 -190 69c-135 0 -238 -108 -238 -246c0 -136 103 -245 238 -245c68 0 130 23 192 67v-129c-64 -38 -130 -55 -194 -55c-202 0 -360 157 -360 362zM343 769v120h116v-120h-116z" />
    <glyph glyph-name="Dcaron" unicode="&#x10e;" horiz-adv-x="709" 
d="M663 350c0 -198 -157 -350 -352 -350h-229v700h229c195 0 352 -152 352 -350zM170 898h106l51 -68l51 68h103l-110 -143h-90zM202 112h106c133 0 232 105 232 238s-99 238 -232 238h-106v-476z" />
    <glyph glyph-name="Dcroat" unicode="&#x110;" horiz-adv-x="724" 
d="M678 350c0 -198 -157 -350 -352 -350h-229v302h-82v101h82v297h229c195 0 352 -152 352 -350zM217 112h106c133 0 232 105 232 238s-99 238 -232 238h-106v-185h178v-101h-178v-190z" />
    <glyph glyph-name="Eth" unicode="&#xd0;" horiz-adv-x="724" 
d="M678 350c0 -198 -157 -350 -352 -350h-229v302h-82v101h82v297h229c195 0 352 -152 352 -350zM217 112h106c133 0 232 105 232 238s-99 238 -232 238h-106v-185h178v-101h-178v-190z" />
    <glyph glyph-name="Eacute" unicode="&#xc9;" horiz-adv-x="535" 
d="M82 700h400v-109h-280v-178h258v-106h-258v-198h282v-109h-402v700zM217 755l96 143h127l-121 -143h-102z" />
    <glyph glyph-name="Ebreve" unicode="&#x114;" horiz-adv-x="535" 
d="M82 700h400v-109h-280v-178h258v-106h-258v-198h282v-109h-402v700zM140 895h82c2 -39 26 -63 61 -63c34 0 58 24 60 63h82c0 -83 -60 -139 -142 -139c-83 0 -143 56 -143 139z" />
    <glyph glyph-name="Ecaron" unicode="&#x11a;" horiz-adv-x="535" 
d="M82 700h400v-109h-280v-178h258v-106h-258v-198h282v-109h-402v700zM127 898h106l51 -68l51 68h103l-110 -143h-90z" />
    <glyph glyph-name="Ecircumflex" unicode="&#xca;" horiz-adv-x="535" 
d="M82 700h400v-109h-280v-178h258v-106h-258v-198h282v-109h-402v700zM127 755l111 143h90l110 -143h-106l-51 67l-50 -67h-104z" />
    <glyph glyph-name="Edieresis" unicode="&#xcb;" horiz-adv-x="535" 
d="M82 700h400v-109h-280v-178h258v-106h-258v-198h282v-109h-402v700zM126 827c0 33 28 61 61 61c36 0 63 -29 63 -61c0 -34 -28 -62 -63 -62c-33 0 -61 28 -61 62zM317 827c0 33 28 61 62 61c35 0 62 -29 62 -61c0 -34 -28 -62 -62 -62s-62 28 -62 62z" />
    <glyph glyph-name="Edieresis.square" horiz-adv-x="535" 
d="M82 700h400v-109h-280v-178h258v-106h-258v-198h282v-109h-402v700zM133 768v116h108v-116h-108zM326 768v116h108v-116h-108z" />
    <glyph glyph-name="Edotaccent" unicode="&#x116;" horiz-adv-x="535" 
d="M82 700h400v-109h-280v-178h258v-106h-258v-198h282v-109h-402v700zM215 832c0 38 31 69 68 69c39 0 69 -32 69 -69s-30 -68 -69 -68c-37 0 -68 30 -68 68z" />
    <glyph glyph-name="Edotaccent.square" horiz-adv-x="535" 
d="M82 700h400v-109h-280v-178h258v-106h-258v-198h282v-109h-402v700zM226 769v120h116v-120h-116z" />
    <glyph glyph-name="Egrave" unicode="&#xc8;" horiz-adv-x="535" 
d="M82 700h400v-109h-280v-178h258v-106h-258v-198h282v-109h-402v700zM139 898h127l95 -143h-101z" />
    <glyph glyph-name="Emacron" unicode="&#x112;" horiz-adv-x="535" 
d="M82 700h400v-109h-280v-178h258v-106h-258v-198h282v-109h-402v700zM139 772v77h288v-77h-288z" />
    <glyph glyph-name="Eogonek" unicode="&#x118;" horiz-adv-x="535" 
d="M82 700h400v-109h-280v-178h258v-106h-258v-198h282v-109h-13c-60 -15 -111 -54 -111 -95c0 -24 16 -36 42 -36c16 0 32 4 46 13v-74c-19 -9 -42 -14 -67 -14c-67 0 -109 37 -109 92c0 46 28 84 85 114h-275v700z" />
    <glyph glyph-name="Gbreve" unicode="&#x11e;" horiz-adv-x="789" 
d="M608 480c-39 76 -112 119 -201 119c-133 0 -239 -111 -239 -249c0 -137 105 -249 240 -249c111 0 194 72 210 173h-228v105h356v-45c0 -195 -140 -346 -339 -346c-201 0 -361 162 -361 362s163 363 362 363c136 0 251 -70 307 -179zM264 895h82c2 -39 26 -63 61 -63
c34 0 58 24 60 63h82c0 -83 -60 -139 -142 -139c-83 0 -143 56 -143 139z" />
    <glyph glyph-name="Gcircumflex" unicode="&#x11c;" horiz-adv-x="789" 
d="M608 480c-39 76 -112 119 -201 119c-133 0 -239 -111 -239 -249c0 -137 105 -249 240 -249c111 0 194 72 210 173h-228v105h356v-45c0 -195 -140 -346 -339 -346c-201 0 -361 162 -361 362s163 363 362 363c136 0 251 -70 307 -179zM250 755l111 143h90l110 -143h-106
l-51 67l-50 -67h-104z" />
    <glyph glyph-name="uni0122" unicode="&#x122;" horiz-adv-x="789" 
d="M608 480c-39 76 -112 119 -201 119c-133 0 -239 -111 -239 -249c0 -137 105 -249 240 -249c111 0 194 72 210 173h-228v105h356v-45c0 -195 -140 -346 -339 -346c-201 0 -361 162 -361 362s163 363 362 363c136 0 251 -70 307 -179zM341 -114c0 38 30 64 65 64
c38 0 66 -26 66 -63c0 -19 -7 -38 -15 -55l-35 -72h-66l38 73h-2c-28 1 -51 24 -51 53z" />
    <glyph glyph-name="uni0122.square" horiz-adv-x="789" 
d="M608 480c-39 76 -112 119 -201 119c-133 0 -239 -111 -239 -249c0 -137 105 -249 240 -249c111 0 194 72 210 173h-228v105h356v-45c0 -195 -140 -346 -339 -346c-201 0 -361 162 -361 362s163 363 362 363c136 0 251 -70 307 -179zM353 -160v106h109v-108
c0 -63 -37 -88 -90 -89c-10 0 -15 1 -17 1v52c1 0 5 -1 9 -1c22 1 37 12 37 32v7h-48z" />
    <glyph glyph-name="Gdotaccent" unicode="&#x120;" horiz-adv-x="789" 
d="M608 480c-39 76 -112 119 -201 119c-133 0 -239 -111 -239 -249c0 -137 105 -249 240 -249c111 0 194 72 210 173h-228v105h356v-45c0 -195 -140 -346 -339 -346c-201 0 -361 162 -361 362s163 363 362 363c136 0 251 -70 307 -179zM340 832c0 38 31 69 68 69
c39 0 69 -32 69 -69s-30 -68 -69 -68c-37 0 -68 30 -68 68z" />
    <glyph glyph-name="Gdotaccent.square" horiz-adv-x="789" 
d="M608 480c-39 76 -112 119 -201 119c-133 0 -239 -111 -239 -249c0 -137 105 -249 240 -249c111 0 194 72 210 173h-228v105h356v-45c0 -195 -140 -346 -339 -346c-201 0 -361 162 -361 362s163 363 362 363c136 0 251 -70 307 -179zM350 769v120h116v-120h-116z" />
    <glyph glyph-name="Hbar" unicode="&#x126;" horiz-adv-x="762" 
d="M97 505h-74v100h74v95h120v-95h328v95h120v-95h74v-100h-74v-505h-120v303h-328v-303h-120v505zM217 417h328v88h-328v-88z" />
    <glyph glyph-name="Hcircumflex" unicode="&#x124;" horiz-adv-x="732" 
d="M82 700h120v-283h328v283h120v-700h-120v303h-328v-303h-120v700zM211 755l111 143h90l110 -143h-106l-51 67l-50 -67h-104z" />
    <glyph glyph-name="Iacute" unicode="&#xcd;" horiz-adv-x="284" 
d="M202 700v-700h-120v700h120zM90 755l96 143h127l-121 -143h-102z" />
    <glyph glyph-name="Ibreve" unicode="&#x12c;" horiz-adv-x="284" 
d="M202 700v-700h-120v700h120zM-1 895h82c2 -39 26 -63 61 -63c34 0 58 24 60 63h82c0 -83 -60 -139 -142 -139c-83 0 -143 56 -143 139z" />
    <glyph glyph-name="Icircumflex" unicode="&#xce;" horiz-adv-x="284" 
d="M202 700v-700h-120v700h120zM-14 755l111 143h90l110 -143h-106l-51 67l-50 -67h-104z" />
    <glyph glyph-name="Idieresis" unicode="&#xcf;" horiz-adv-x="284" 
d="M202 700v-700h-120v700h120zM-16 827c0 33 28 61 61 61c36 0 63 -29 63 -61c0 -34 -28 -62 -63 -62c-33 0 -61 28 -61 62zM175 827c0 33 28 61 62 61c35 0 62 -29 62 -61c0 -34 -28 -62 -62 -62s-62 28 -62 62z" />
    <glyph glyph-name="Idieresis.square" horiz-adv-x="284" 
d="M202 700v-700h-120v700h120zM-9 768v116h108v-116h-108zM184 768v116h108v-116h-108z" />
    <glyph glyph-name="Idotaccent" unicode="&#x130;" horiz-adv-x="284" 
d="M202 700v-700h-120v700h120zM73 832c0 38 31 69 68 69c39 0 69 -32 69 -69s-30 -68 -69 -68c-37 0 -68 30 -68 68z" />
    <glyph glyph-name="Idotaccent.square" horiz-adv-x="284" 
d="M202 700v-700h-120v700h120zM84 769v120h116v-120h-116z" />
    <glyph glyph-name="Igrave" unicode="&#xcc;" horiz-adv-x="284" 
d="M202 700v-700h-120v700h120zM-28 898h127l95 -143h-101z" />
    <glyph glyph-name="Imacron" unicode="&#x12a;" horiz-adv-x="284" 
d="M202 700v-700h-120v700h120zM-2 772v77h288v-77h-288z" />
    <glyph glyph-name="Iogonek" unicode="&#x12e;" horiz-adv-x="284" 
d="M202 0c-59 -16 -92 -53 -92 -91c0 -26 15 -41 39 -41c15 0 33 4 48 14v-74c-19 -9 -43 -14 -68 -14c-66 0 -107 39 -107 97c0 44 22 80 60 109v700h120v-700z" />
    <glyph glyph-name="Itilde" unicode="&#x128;" horiz-adv-x="284" 
d="M202 700v-700h-120v700h120zM-28 765c-1 81 43 119 101 119c68 0 90 -48 127 -48c24 0 37 18 37 44h72c1 -82 -43 -119 -101 -119c-68 0 -90 48 -127 48c-25 0 -37 -18 -37 -44h-72z" />
    <glyph glyph-name="Jcircumflex" unicode="&#x134;" horiz-adv-x="517" 
d="M444 217c0 -141 -83 -229 -217 -229c-101 0 -180 55 -214 145l102 56c24 -56 61 -89 112 -89c62 0 97 44 97 118v482h120v-483zM229 755l111 143h90l110 -143h-106l-51 67l-50 -67h-104z" />
    <glyph glyph-name="uni0136" unicode="&#x136;" horiz-adv-x="644" 
d="M202 408l264 292h146l-293 -320l316 -380h-151l-244 299l-38 -42v-257h-120v700h120v-292zM270 -114c0 38 30 64 65 64c38 0 66 -26 66 -63c0 -19 -7 -38 -15 -55l-35 -72h-66l38 73h-2c-28 1 -51 24 -51 53z" />
    <glyph glyph-name="uni0136.square" horiz-adv-x="644" 
d="M202 408l264 292h146l-293 -320l316 -380h-151l-244 299l-38 -42v-257h-120v700h120v-292zM283 -160v106h109v-108c0 -63 -37 -88 -90 -89c-10 0 -15 1 -17 1v52c1 0 5 -1 9 -1c22 1 37 12 37 32v7h-48z" />
    <glyph glyph-name="Lacute" unicode="&#x139;" horiz-adv-x="469" 
d="M90 755l96 143h127l-121 -143h-102zM82 0v700h120v-588h246v-112h-366z" />
    <glyph glyph-name="Lcaron" unicode="&#x13d;" horiz-adv-x="469" 
d="M202 700v-588h246v-112h-366v700h120zM270 545l30 167h115l-48 -167h-97z" />
    <glyph glyph-name="uni013B" unicode="&#x13b;" horiz-adv-x="469" 
d="M202 700v-588h246v-112h-366v700h120zM199 -114c0 38 30 64 65 64c38 0 66 -26 66 -63c0 -19 -7 -38 -15 -55l-35 -72h-66l38 73h-2c-28 1 -51 24 -51 53z" />
    <glyph glyph-name="uni013B.square" horiz-adv-x="469" 
d="M202 700v-588h246v-112h-366v700h120zM209 -160v106h109v-108c0 -63 -37 -88 -90 -89c-10 0 -15 1 -17 1v52c1 0 5 -1 9 -1c22 1 37 12 37 32v7h-48z" />
    <glyph glyph-name="Ldot" unicode="&#x13f;" horiz-adv-x="469" 
d="M202 700v-588h246v-112h-366v700h120zM300 353c0 40 32 72 71 72c41 0 72 -33 72 -72c0 -38 -31 -71 -72 -71c-39 0 -71 32 -71 71z" />
    <glyph glyph-name="Ldot.square" horiz-adv-x="469" 
d="M202 700v-588h246v-112h-366v700h120zM314 291v123h116v-123h-116z" />
    <glyph glyph-name="Lslash" unicode="&#x141;" horiz-adv-x="484" 
d="M217 700v-294l154 74v-100l-154 -74v-194h246v-112h-366v248l-85 -41v100l85 41v352h120z" />
    <glyph glyph-name="Nacute" unicode="&#x143;" horiz-adv-x="774" 
d="M692 700v-700h-117l-377 514v-514h-116v700h122l372 -513v513h116zM344 755l96 143h127l-121 -143h-102z" />
    <glyph glyph-name="Ncaron" unicode="&#x147;" horiz-adv-x="774" 
d="M692 700v-700h-117l-377 514v-514h-116v700h122l372 -513v513h116zM238 898h106l51 -68l51 68h103l-110 -143h-90z" />
    <glyph glyph-name="uni0145" unicode="&#x145;" horiz-adv-x="774" 
d="M692 700v-700h-117l-377 514v-514h-116v700h122l372 -513v513h116zM314 -114c0 38 30 64 65 64c38 0 66 -26 66 -63c0 -19 -7 -38 -15 -55l-35 -72h-66l38 73h-2c-28 1 -51 24 -51 53z" />
    <glyph glyph-name="uni0145.square" horiz-adv-x="774" 
d="M692 700v-700h-117l-377 514v-514h-116v700h122l372 -513v513h116zM328 -160v106h109v-108c0 -63 -37 -88 -90 -89c-10 0 -15 1 -17 1v52c1 0 5 -1 9 -1c22 1 37 12 37 32v7h-48z" />
    <glyph glyph-name="Ntilde" unicode="&#xd1;" horiz-adv-x="774" 
d="M692 700v-700h-117l-377 514v-514h-116v700h122l372 -513v513h116zM236 765c-1 81 43 119 101 119c68 0 90 -48 127 -48c24 0 37 18 37 44h72c1 -82 -43 -119 -101 -119c-68 0 -90 48 -127 48c-25 0 -37 -18 -37 -44h-72z" />
    <glyph glyph-name="Eng" unicode="&#x14a;" horiz-adv-x="774" 
d="M692 -5c0 -138 -75 -217 -202 -217c-44 0 -72 9 -89 14v106c13 -5 34 -11 68 -11c65 0 103 39 105 112v2l-376 513v-514h-116v700h122l372 -513v513h116v-705z" />
    <glyph glyph-name="Oacute" unicode="&#xd3;" horiz-adv-x="818" 
d="M46 350c0 202 162 363 363 363s363 -161 363 -363c0 -201 -162 -362 -363 -362s-363 161 -363 362zM169 350c0 -136 105 -246 240 -246s240 110 240 246c0 137 -105 247 -240 247s-240 -110 -240 -247zM354 755l96 143h127l-121 -143h-102z" />
    <glyph glyph-name="Obreve" unicode="&#x14e;" horiz-adv-x="818" 
d="M46 350c0 202 162 363 363 363s363 -161 363 -363c0 -201 -162 -362 -363 -362s-363 161 -363 362zM169 350c0 -136 105 -246 240 -246s240 110 240 246c0 137 -105 247 -240 247s-240 -110 -240 -247zM266 895h82c2 -39 26 -63 61 -63c34 0 58 24 60 63h82
c0 -83 -60 -139 -142 -139c-83 0 -143 56 -143 139z" />
    <glyph glyph-name="Ocircumflex" unicode="&#xd4;" horiz-adv-x="818" 
d="M46 350c0 202 162 363 363 363s363 -161 363 -363c0 -201 -162 -362 -363 -362s-363 161 -363 362zM169 350c0 -136 105 -246 240 -246s240 110 240 246c0 137 -105 247 -240 247s-240 -110 -240 -247zM253 755l111 143h90l110 -143h-106l-51 67l-50 -67h-104z" />
    <glyph glyph-name="Odieresis" unicode="&#xd6;" horiz-adv-x="818" 
d="M46 350c0 202 162 363 363 363s363 -161 363 -363c0 -201 -162 -362 -363 -362s-363 161 -363 362zM169 350c0 -136 105 -246 240 -246s240 110 240 246c0 137 -105 247 -240 247s-240 -110 -240 -247zM252 827c0 33 28 61 61 61c36 0 63 -29 63 -61
c0 -34 -28 -62 -63 -62c-33 0 -61 28 -61 62zM443 827c0 33 28 61 62 61c35 0 62 -29 62 -61c0 -34 -28 -62 -62 -62s-62 28 -62 62z" />
    <glyph glyph-name="Odieresis.square" horiz-adv-x="818" 
d="M46 350c0 202 162 363 363 363s363 -161 363 -363c0 -201 -162 -362 -363 -362s-363 161 -363 362zM169 350c0 -136 105 -246 240 -246s240 110 240 246c0 137 -105 247 -240 247s-240 -110 -240 -247zM259 768v116h108v-116h-108zM452 768v116h108v-116h-108z" />
    <glyph glyph-name="Ograve" unicode="&#xd2;" horiz-adv-x="818" 
d="M46 350c0 202 162 363 363 363s363 -161 363 -363c0 -201 -162 -362 -363 -362s-363 161 -363 362zM169 350c0 -136 105 -246 240 -246s240 110 240 246c0 137 -105 247 -240 247s-240 -110 -240 -247zM242 898h127l95 -143h-101z" />
    <glyph glyph-name="Ohungarumlaut" unicode="&#x150;" horiz-adv-x="818" 
d="M46 350c0 202 162 363 363 363s363 -161 363 -363c0 -201 -162 -362 -363 -362s-363 161 -363 362zM169 350c0 -136 105 -246 240 -246s240 110 240 246c0 137 -105 247 -240 247s-240 -110 -240 -247zM276 755l87 143h112l-107 -143h-92zM449 755l86 143h112l-107 -143
h-91z" />
    <glyph glyph-name="Omacron" unicode="&#x14c;" horiz-adv-x="818" 
d="M46 350c0 202 162 363 363 363s363 -161 363 -363c0 -201 -162 -362 -363 -362s-363 161 -363 362zM169 350c0 -136 105 -246 240 -246s240 110 240 246c0 137 -105 247 -240 247s-240 -110 -240 -247zM265 772v77h288v-77h-288z" />
    <glyph glyph-name="Otilde" unicode="&#xd5;" horiz-adv-x="818" 
d="M46 350c0 202 162 363 363 363s363 -161 363 -363c0 -201 -162 -362 -363 -362s-363 161 -363 362zM169 350c0 -136 105 -246 240 -246s240 110 240 246c0 137 -105 247 -240 247s-240 -110 -240 -247zM242 765c-1 81 43 119 101 119c68 0 90 -48 127 -48
c24 0 37 18 37 44h72c1 -82 -43 -119 -101 -119c-68 0 -90 48 -127 48c-25 0 -37 -18 -37 -44h-72z" />
    <glyph glyph-name="OE" unicode="&#x152;" horiz-adv-x="959" 
d="M46 350c0 198 157 350 352 350h508v-109h-281v-178h259v-106h-259v-198h283v-109h-510c-195 0 -352 152 -352 350zM169 350c0 -134 99 -239 232 -239h105v478h-105c-133 0 -232 -105 -232 -239z" />
    <glyph glyph-name="Racute" unicode="&#x154;" horiz-adv-x="605" 
d="M201 0h-119v700h219c141 0 240 -77 240 -213c0 -104 -65 -174 -158 -200l206 -287h-141l-193 277h-54v-277zM201 378h100c70 0 120 40 120 108s-50 106 -120 106h-100v-214zM218 755l96 143h127l-121 -143h-102z" />
    <glyph glyph-name="Rcaron" unicode="&#x158;" horiz-adv-x="605" 
d="M201 0h-119v700h219c141 0 240 -77 240 -213c0 -104 -65 -174 -158 -200l206 -287h-141l-193 277h-54v-277zM138 898h106l51 -68l51 68h103l-110 -143h-90zM201 378h100c70 0 120 40 120 108s-50 106 -120 106h-100v-214z" />
    <glyph glyph-name="uni0156" unicode="&#x156;" horiz-adv-x="605" 
d="M201 0h-119v700h219c141 0 240 -77 240 -213c0 -104 -65 -174 -158 -200l206 -287h-141l-193 277h-54v-277zM201 378h100c70 0 120 40 120 108s-50 106 -120 106h-100v-214zM259 -114c0 38 30 64 65 64c38 0 66 -26 66 -63c0 -19 -7 -38 -15 -55l-35 -72h-66l38 73h-2
c-28 1 -51 24 -51 53z" />
    <glyph glyph-name="uni0156.square" horiz-adv-x="605" 
d="M201 0h-119v700h219c141 0 240 -77 240 -213c0 -104 -65 -174 -158 -200l206 -287h-141l-193 277h-54v-277zM201 378h100c70 0 120 40 120 108s-50 106 -120 106h-100v-214zM270 -160v106h109v-108c0 -63 -37 -88 -90 -89c-10 0 -15 1 -17 1v52c1 0 5 -1 9 -1
c22 1 37 12 37 32v7h-48z" />
    <glyph glyph-name="Sacute" unicode="&#x15a;" horiz-adv-x="556" 
d="M139 213c25 -67 77 -112 147 -112c60 0 111 33 111 92c0 45 -28 75 -88 97l-83 30c-103 37 -164 98 -164 194c0 121 95 199 217 199c101 -1 186 -58 225 -155l-103 -52c-21 53 -62 95 -121 95c-55 0 -96 -32 -96 -80c0 -42 30 -68 87 -90l86 -33
c109 -42 163 -104 163 -197c0 -133 -108 -213 -236 -213c-117 0 -212 64 -251 175zM222 755l96 143h127l-121 -143h-102z" />
    <glyph glyph-name="Scaron" unicode="&#x160;" horiz-adv-x="556" 
d="M139 213c25 -67 77 -112 147 -112c60 0 111 33 111 92c0 45 -28 75 -88 97l-83 30c-103 37 -164 98 -164 194c0 121 95 199 217 199c101 -1 186 -58 225 -155l-103 -52c-21 53 -62 95 -121 95c-55 0 -96 -32 -96 -80c0 -42 30 -68 87 -90l86 -33
c109 -42 163 -104 163 -197c0 -133 -108 -213 -236 -213c-117 0 -212 64 -251 175zM121 898h106l51 -68l51 68h103l-110 -143h-90z" />
    <glyph glyph-name="Scedilla" unicode="&#x15e;" horiz-adv-x="556" 
d="M304 -47c51 0 88 -36 88 -85c0 -54 -43 -93 -101 -93c-56 0 -95 36 -101 83h70c3 -11 14 -24 32 -24c20 0 33 14 33 32s-14 31 -32 31c-12 0 -22 -6 -29 -14l-59 32l32 77c-95 14 -171 75 -204 171l106 50c25 -67 77 -112 147 -112c60 0 111 33 111 92
c0 45 -28 75 -88 97l-83 30c-103 37 -164 98 -164 194c0 121 95 199 217 199c101 -1 186 -58 225 -155l-103 -52c-21 53 -62 95 -121 95c-55 0 -96 -32 -96 -80c0 -42 30 -68 87 -90l86 -33c109 -42 163 -104 163 -197c0 -126 -97 -205 -217 -212l-18 -39c4 2 13 3 19 3z
" />
    <glyph glyph-name="Scircumflex" unicode="&#x15c;" horiz-adv-x="556" 
d="M139 213c25 -67 77 -112 147 -112c60 0 111 33 111 92c0 45 -28 75 -88 97l-83 30c-103 37 -164 98 -164 194c0 121 95 199 217 199c101 -1 186 -58 225 -155l-103 -52c-21 53 -62 95 -121 95c-55 0 -96 -32 -96 -80c0 -42 30 -68 87 -90l86 -33
c109 -42 163 -104 163 -197c0 -133 -108 -213 -236 -213c-117 0 -212 64 -251 175zM121 755l111 143h90l110 -143h-106l-51 67l-50 -67h-104z" />
    <glyph glyph-name="uni0218" unicode="&#x218;" horiz-adv-x="556" 
d="M139 213c25 -67 77 -112 147 -112c60 0 111 33 111 92c0 45 -28 75 -88 97l-83 30c-103 37 -164 98 -164 194c0 121 95 199 217 199c101 -1 186 -58 225 -155l-103 -52c-21 53 -62 95 -121 95c-55 0 -96 -32 -96 -80c0 -42 30 -68 87 -90l86 -33
c109 -42 163 -104 163 -197c0 -133 -108 -213 -236 -213c-117 0 -212 64 -251 175zM218 -114c0 38 30 64 65 64c38 0 66 -26 66 -63c0 -19 -7 -38 -15 -55l-35 -72h-66l38 73h-2c-28 1 -51 24 -51 53z" />
    <glyph glyph-name="uni0218.square" horiz-adv-x="556" 
d="M139 213c25 -67 77 -112 147 -112c60 0 111 33 111 92c0 45 -28 75 -88 97l-83 30c-103 37 -164 98 -164 194c0 121 95 199 217 199c101 -1 186 -58 225 -155l-103 -52c-21 53 -62 95 -121 95c-55 0 -96 -32 -96 -80c0 -42 30 -68 87 -90l86 -33
c109 -42 163 -104 163 -197c0 -133 -108 -213 -236 -213c-117 0 -212 64 -251 175zM228 -160v106h109v-108c0 -63 -37 -88 -90 -89c-10 0 -15 1 -17 1v52c1 0 5 -1 9 -1c22 1 37 12 37 32v7h-48z" />
    <glyph glyph-name="Tbar" unicode="&#x166;" horiz-adv-x="547" 
d="M19 700h509v-111h-194v-186h118v-105h-118v-298h-121v298h-118v105h118v186h-194v111z" />
    <glyph glyph-name="Tcaron" unicode="&#x164;" horiz-adv-x="547" 
d="M19 700h509v-111h-194v-589h-121v589h-194v111zM119 898h106l51 -68l51 68h103l-110 -143h-90z" />
    <glyph glyph-name="uni0162" unicode="&#x162;" horiz-adv-x="547" 
d="M19 700h509v-111h-194v-589h-121v589h-194v111zM210 -114c0 38 30 64 65 64c38 0 66 -26 66 -63c0 -19 -7 -38 -15 -55l-35 -72h-66l38 73h-2c-28 1 -51 24 -51 53z" />
    <glyph glyph-name="uni021A.square" horiz-adv-x="547" 
d="M19 700h509v-111h-194v-589h-121v589h-194v111zM220 -160v106h109v-108c0 -63 -37 -88 -90 -89c-10 0 -15 1 -17 1v52c1 0 5 -1 9 -1c22 1 37 12 37 32v7h-48z" />
    <glyph glyph-name="Uacute" unicode="&#xda;" horiz-adv-x="694" 
d="M347 -12c-174 0 -274 116 -274 290v422h120v-417c0 -108 54 -179 154 -179s154 71 154 179v417h120v-422c0 -174 -100 -290 -274 -290zM279 755l96 143h127l-121 -143h-102z" />
    <glyph glyph-name="Ubreve" unicode="&#x16c;" horiz-adv-x="694" 
d="M347 -12c-174 0 -274 116 -274 290v422h120v-417c0 -108 54 -179 154 -179s154 71 154 179v417h120v-422c0 -174 -100 -290 -274 -290zM204 895h82c2 -39 26 -63 61 -63c34 0 58 24 60 63h82c0 -83 -60 -139 -142 -139c-83 0 -143 56 -143 139z" />
    <glyph glyph-name="Ucircumflex" unicode="&#xdb;" horiz-adv-x="694" 
d="M347 -12c-174 0 -274 116 -274 290v422h120v-417c0 -108 54 -179 154 -179s154 71 154 179v417h120v-422c0 -174 -100 -290 -274 -290zM192 755l111 143h90l110 -143h-106l-51 67l-50 -67h-104z" />
    <glyph glyph-name="Udieresis" unicode="&#xdc;" horiz-adv-x="694" 
d="M347 -12c-174 0 -274 116 -274 290v422h120v-417c0 -108 54 -179 154 -179s154 71 154 179v417h120v-422c0 -174 -100 -290 -274 -290zM190 827c0 33 28 61 61 61c36 0 63 -29 63 -61c0 -34 -28 -62 -63 -62c-33 0 -61 28 -61 62zM381 827c0 33 28 61 62 61
c35 0 62 -29 62 -61c0 -34 -28 -62 -62 -62s-62 28 -62 62z" />
    <glyph glyph-name="Udieresis.square" horiz-adv-x="694" 
d="M347 -12c-174 0 -274 116 -274 290v422h120v-417c0 -108 54 -179 154 -179s154 71 154 179v417h120v-422c0 -174 -100 -290 -274 -290zM196 768v116h108v-116h-108zM389 768v116h108v-116h-108z" />
    <glyph glyph-name="Ugrave" unicode="&#xd9;" horiz-adv-x="694" 
d="M347 -12c-174 0 -274 116 -274 290v422h120v-417c0 -108 54 -179 154 -179s154 71 154 179v417h120v-422c0 -174 -100 -290 -274 -290zM190 898h127l95 -143h-101z" />
    <glyph glyph-name="Uhungarumlaut" unicode="&#x170;" horiz-adv-x="694" 
d="M347 -12c-174 0 -274 116 -274 290v422h120v-417c0 -108 54 -179 154 -179s154 71 154 179v417h120v-422c0 -174 -100 -290 -274 -290zM203 755l87 143h112l-107 -143h-92zM376 755l86 143h112l-107 -143h-91z" />
    <glyph glyph-name="Umacron" unicode="&#x16a;" horiz-adv-x="694" 
d="M347 -12c-174 0 -274 116 -274 290v422h120v-417c0 -108 54 -179 154 -179s154 71 154 179v417h120v-422c0 -174 -100 -290 -274 -290zM203 772v77h288v-77h-288z" />
    <glyph glyph-name="Uogonek" unicode="&#x172;" horiz-adv-x="694" 
d="M274 -114c0 40 20 74 62 102c-166 4 -263 119 -263 290v422h120v-417c0 -108 54 -179 154 -179s154 71 154 179v417h120v-422c0 -131 -58 -226 -155 -270c-52 -23 -103 -61 -103 -103c0 -24 16 -36 41 -36c16 0 32 4 46 13v-74c-19 -9 -42 -14 -66 -14
c-68 0 -110 37 -110 92z" />
    <glyph glyph-name="Uring" unicode="&#x16e;" horiz-adv-x="694" 
d="M347 -12c-174 0 -274 116 -274 290v422h120v-417c0 -108 54 -179 154 -179s154 71 154 179v417h120v-422c0 -174 -100 -290 -274 -290zM244 833c0 56 46 98 103 98s103 -42 103 -98s-46 -98 -103 -98s-103 42 -103 98zM309 833c0 -21 17 -38 38 -38s38 17 38 38
s-17 38 -38 38s-38 -17 -38 -38z" />
    <glyph glyph-name="Utilde" unicode="&#x168;" horiz-adv-x="694" 
d="M347 -12c-174 0 -274 116 -274 290v422h120v-417c0 -108 54 -179 154 -179s154 71 154 179v417h120v-422c0 -174 -100 -290 -274 -290zM182 765c-1 81 43 119 101 119c68 0 90 -48 127 -48c24 0 37 18 37 44h72c1 -82 -43 -119 -101 -119c-68 0 -90 48 -127 48
c-25 0 -37 -18 -37 -44h-72z" />
    <glyph glyph-name="Wacute" unicode="&#x1e82;" horiz-adv-x="1012" 
d="M249 0l-238 700h124l161 -499l167 499h88l166 -499l162 499h122l-239 -700h-90l-167 500l-166 -500h-90zM455 755l96 143h127l-121 -143h-102z" />
    <glyph glyph-name="Wcircumflex" unicode="&#x174;" horiz-adv-x="1012" 
d="M249 0l-238 700h124l161 -499l167 499h88l166 -499l162 499h122l-239 -700h-90l-167 500l-166 -500h-90zM351 755l111 143h90l110 -143h-106l-51 67l-50 -67h-104z" />
    <glyph glyph-name="Wdieresis" unicode="&#x1e84;" horiz-adv-x="1012" 
d="M249 0l-238 700h124l161 -499l167 499h88l166 -499l162 499h122l-239 -700h-90l-167 500l-166 -500h-90zM350 827c0 33 28 61 61 61c36 0 63 -29 63 -61c0 -34 -28 -62 -63 -62c-33 0 -61 28 -61 62zM541 827c0 33 28 61 62 61c35 0 62 -29 62 -61c0 -34 -28 -62 -62 -62
s-62 28 -62 62z" />
    <glyph glyph-name="Wdieresis.square" horiz-adv-x="1012" 
d="M249 0l-238 700h124l161 -499l167 499h88l166 -499l162 499h122l-239 -700h-90l-167 500l-166 -500h-90zM356 768v116h108v-116h-108zM549 768v116h108v-116h-108z" />
    <glyph glyph-name="Wgrave" unicode="&#x1e80;" horiz-adv-x="1012" 
d="M249 0l-238 700h124l161 -499l167 499h88l166 -499l162 499h122l-239 -700h-90l-167 500l-166 -500h-90zM336 898h127l95 -143h-101z" />
    <glyph glyph-name="Yacute" unicode="&#xdd;" horiz-adv-x="641" 
d="M381 0h-120v308l-253 392h138l176 -281l176 281h135l-252 -392v-308zM265 755l96 143h127l-121 -143h-102z" />
    <glyph glyph-name="Ycircumflex" unicode="&#x176;" horiz-adv-x="641" 
d="M381 0h-120v308l-253 392h138l176 -281l176 281h135l-252 -392v-308zM166 755l111 143h90l110 -143h-106l-51 67l-50 -67h-104z" />
    <glyph glyph-name="Ydieresis" unicode="&#x178;" horiz-adv-x="641" 
d="M381 0h-120v308l-253 392h138l176 -281l176 281h135l-252 -392v-308zM164 827c0 33 28 61 61 61c36 0 63 -29 63 -61c0 -34 -28 -62 -63 -62c-33 0 -61 28 -61 62zM355 827c0 33 28 61 62 61c35 0 62 -29 62 -61c0 -34 -28 -62 -62 -62s-62 28 -62 62z" />
    <glyph glyph-name="Ydieresis.square" horiz-adv-x="641" 
d="M381 0h-120v308l-253 392h138l176 -281l176 281h135l-252 -392v-308zM171 768v116h108v-116h-108zM364 768v116h108v-116h-108z" />
    <glyph glyph-name="Ygrave" unicode="&#x1ef2;" horiz-adv-x="641" 
d="M381 0h-120v308l-253 392h138l176 -281l176 281h135l-252 -392v-308zM156 898h127l95 -143h-101z" />
    <glyph glyph-name="IJ" unicode="&#x132;" horiz-adv-x="782" 
d="M202 700v-700h-120v700h120zM278 133l102 56c24 -56 61 -89 112 -89c62 0 97 44 97 118v482h120v-483c0 -141 -83 -229 -217 -229c-101 0 -180 55 -214 145z" />
    <glyph glyph-name="Zacute" unicode="&#x179;" horiz-adv-x="611" 
d="M196 108h382v-108h-546v78l378 514h-354v108h518v-78zM254 755l96 143h127l-121 -143h-102z" />
    <glyph glyph-name="Zcaron" unicode="&#x17d;" horiz-adv-x="611" 
d="M196 108h382v-108h-546v78l378 514h-354v108h518v-78zM169 898h106l51 -68l51 68h103l-110 -143h-90z" />
    <glyph glyph-name="Zdotaccent" unicode="&#x17b;" horiz-adv-x="611" 
d="M196 108h382v-108h-546v78l378 514h-354v108h518v-78zM257 832c0 38 31 69 68 69c39 0 69 -32 69 -69s-30 -68 -69 -68c-37 0 -68 30 -68 68z" />
    <glyph glyph-name="Zdotaccent.square" horiz-adv-x="611" 
d="M196 108h382v-108h-546v78l378 514h-354v108h518v-78zM268 769v120h116v-120h-116z" />
    <glyph glyph-name="Thorn" unicode="&#xde;" horiz-adv-x="575" 
d="M202 700v-132h107c143 0 242 -78 242 -214c0 -135 -99 -213 -242 -213h-107v-141h-120v700h120zM202 248h109c70 0 120 39 120 106s-50 106 -120 106h-109v-212z" />
    <glyph glyph-name="a" unicode="a" horiz-adv-x="527" 
d="M41 130c0 88 57 144 174 159l133 17v21c0 49 -34 80 -87 80c-49 0 -83 -26 -97 -74l-106 27c24 87 103 142 203 142c127 0 200 -68 200 -183v-319h-108l-1 60c-33 -46 -90 -72 -153 -72c-94 0 -158 59 -158 142zM156 138c0 -35 29 -57 70 -57c72 0 123 46 123 111v28
l-111 -15c-54 -7 -82 -32 -82 -67z" />
    <glyph glyph-name="b" unicode="b" horiz-adv-x="632" 
d="M72 0v700h115v-280c36 50 98 82 166 82c135 0 239 -111 239 -257c0 -144 -104 -257 -239 -257c-68 0 -130 29 -166 79v-67h-115zM182 245c0 -85 64 -152 147 -152s147 67 147 152s-64 152 -147 152s-147 -67 -147 -152z" />
    <glyph glyph-name="c" unicode="c" horiz-adv-x="472" 
d="M40 245c0 146 107 257 259 257c47 0 93 -12 131 -35v-115c-38 29 -78 44 -121 44c-87 0 -152 -65 -152 -151c0 -85 64 -151 152 -151c46 0 88 20 123 44v-115c-41 -23 -87 -35 -134 -35c-152 0 -258 108 -258 257z" />
    <glyph glyph-name="d" unicode="d" horiz-adv-x="632" 
d="M445 70c-36 -50 -98 -82 -166 -82c-135 0 -239 111 -239 257c0 144 104 257 239 257c68 0 130 -29 166 -79v277h115v-700h-115v70zM156 245c0 -85 64 -152 147 -152s147 67 147 152s-64 152 -147 152s-147 -67 -147 -152z" />
    <glyph glyph-name="e" unicode="e" horiz-adv-x="568" 
d="M516 115c-41 -77 -118 -127 -221 -127c-149 0 -255 106 -255 257c0 147 107 257 249 257c143 0 244 -111 244 -257c0 -19 -1 -32 -1 -35h-377c5 -71 68 -124 141 -124c64 0 97 31 125 74zM156 294h262c-7 65 -61 113 -131 113c-68 0 -124 -57 -131 -113z" />
    <glyph glyph-name="f" unicode="f" horiz-adv-x="363" 
d="M211 490h132v-98h-132v-392h-116v392h-73v98h73v29c0 130 76 199 187 199c33 0 58 -6 75 -14v-102c-15 8 -34 14 -58 14c-50 0 -88 -27 -88 -96v-30z" />
    <glyph glyph-name="g" unicode="g" horiz-adv-x="622" 
d="M436 84c-33 -47 -94 -79 -161 -79c-133 0 -235 106 -235 247s102 250 235 250c68 0 128 -30 161 -78v66h114v-460c0 -152 -96 -255 -256 -255c-109 0 -195 48 -237 129l92 58c30 -55 83 -86 145 -86c88 0 142 58 142 153v55zM157 252c0 -82 62 -147 142 -147
s142 65 142 147c0 81 -62 146 -142 146s-142 -65 -142 -146z" />
    <glyph glyph-name="h" unicode="h" horiz-adv-x="594" 
d="M188 0h-116v700h116v-275c30 46 81 77 150 77c119 0 190 -80 190 -207v-295h-116v273c0 76 -39 122 -109 122c-69 0 -115 -53 -115 -137v-258z" />
    <glyph glyph-name="i" unicode="i" horiz-adv-x="260" 
d="M72 0v490h116v-490h-116zM58 633c0 40 32 72 71 72c41 0 72 -33 72 -72c0 -38 -31 -71 -72 -71c-39 0 -71 32 -71 71z" />
    <glyph glyph-name="j" unicode="j" horiz-adv-x="263" 
d="M75 490h116v-521c0 -126 -66 -191 -168 -191c-31 0 -50 6 -66 12v101c12 -6 29 -9 46 -9c45 0 72 33 72 91v517zM61 633c0 40 32 72 71 72c41 0 72 -33 72 -72c0 -38 -31 -71 -72 -71c-39 0 -71 32 -71 71z" />
    <glyph glyph-name="k" unicode="k" horiz-adv-x="536" 
d="M513 490l-213 -213l229 -277h-142l-175 217l-25 -23v-194h-115v700h115v-395l184 185h142z" />
    <glyph glyph-name="l" unicode="l" horiz-adv-x="260" 
d="M188 700v-700h-116v700h116z" />
    <glyph glyph-name="m" unicode="m" horiz-adv-x="884" 
d="M188 0h-116v490h116v-65c26 47 74 77 140 77c70 0 122 -34 149 -91c28 47 81 91 163 91c113 0 178 -79 178 -201v-301h-116v279c0 72 -33 117 -94 117c-62 0 -104 -51 -105 -131v-265h-116v275c0 75 -33 121 -94 121c-63 0 -105 -53 -105 -136v-260z" />
    <glyph glyph-name="n" unicode="n" horiz-adv-x="594" 
d="M188 0h-116v490h116v-65c30 46 81 77 150 77c119 0 190 -80 190 -207v-295h-116v273c0 76 -39 122 -109 122c-69 0 -115 -53 -115 -137v-258z" />
    <glyph glyph-name="o" unicode="o" horiz-adv-x="602" 
d="M301 502c150 0 261 -113 261 -257s-111 -257 -261 -257s-261 113 -261 257s111 257 261 257zM155 245c0 -84 64 -151 146 -151s146 67 146 151s-64 151 -146 151s-146 -67 -146 -151z" />
    <glyph glyph-name="p" unicode="p" horiz-adv-x="632" 
d="M187 420c36 50 98 82 166 82c135 0 239 -111 239 -257c0 -144 -104 -257 -239 -257c-68 0 -130 29 -166 79v-275h-115v698h115v-70zM182 245c0 -85 64 -152 147 -152s147 67 147 152s-64 152 -147 152s-147 -67 -147 -152z" />
    <glyph glyph-name="q" unicode="q" horiz-adv-x="632" 
d="M560 490v-698h-115v278c-35 -50 -97 -82 -166 -82c-135 0 -239 112 -239 257s104 257 239 257c69 0 130 -28 166 -79v67h115zM156 245c0 -85 64 -152 147 -152s147 67 147 152s-64 152 -147 152s-147 -67 -147 -152z" />
    <glyph glyph-name="r" unicode="r" horiz-adv-x="378" 
d="M354 379c-4 2 -15 4 -30 4c-85 0 -137 -66 -137 -167v-216h-115v490h114v-84c24 57 82 94 146 94c11 0 21 -2 22 -3v-118z" />
    <glyph glyph-name="s" unicode="s" horiz-adv-x="429" 
d="M122 162c17 -45 54 -75 98 -75c36 0 66 17 66 51c0 26 -18 41 -56 53l-59 19c-85 27 -125 74 -125 142c0 92 76 150 169 150c80 0 147 -43 178 -111l-93 -50c-18 39 -48 65 -85 65c-33 0 -59 -17 -59 -45c0 -24 19 -41 55 -53l58 -19c92 -30 129 -78 129 -143
c0 -100 -84 -158 -180 -158c-91 0 -162 49 -190 125z" />
    <glyph glyph-name="t" unicode="t" horiz-adv-x="368" 
d="M208 635v-145h130v-98h-130v-220c0 -54 24 -78 76 -78c18 0 39 5 54 15v-103c-19 -10 -48 -18 -88 -18c-98 0 -157 61 -157 163v241h-73v98h73v145h115z" />
    <glyph glyph-name="u" unicode="u" horiz-adv-x="590" 
d="M402 490h116v-490h-116v65c-30 -46 -81 -77 -149 -77c-116 0 -187 80 -187 207v295h116v-273c0 -76 39 -122 106 -122c69 0 114 53 114 137v258z" />
    <glyph glyph-name="v" unicode="v" horiz-adv-x="534" 
d="M14 490h123l131 -340l132 340h120l-202 -490h-102z" />
    <glyph glyph-name="w" unicode="w" horiz-adv-x="808" 
d="M519 0l-115 331l-116 -331h-93l-178 490h119l112 -332l115 332h85l115 -332l112 332h116l-178 -490h-94z" />
    <glyph glyph-name="x" unicode="x" horiz-adv-x="528" 
d="M262 168l-119 -168h-129l182 249l-174 241h133l110 -157l111 157h131l-175 -238l182 -252h-134z" />
    <glyph glyph-name="y" unicode="y" horiz-adv-x="542" 
d="M116 -222c-30 0 -52 7 -68 14v99c14 -6 32 -10 51 -10c41 0 67 20 90 75l21 51l-196 483h123l134 -353l138 353h119l-227 -549c-48 -116 -102 -163 -185 -163z" />
    <glyph glyph-name="z" unicode="z" horiz-adv-x="469" 
d="M439 420l-261 -323h265v-97h-416v72l259 321h-243v97h396v-70z" />
    <glyph glyph-name="a.alt" horiz-adv-x="629" 
d="M559 490v-490h-114v71c-36 -51 -98 -83 -166 -83c-135 0 -239 112 -239 257s104 257 239 257c68 0 130 -28 166 -79v67h114zM156 245c0 -85 64 -152 147 -152s147 67 147 152s-64 152 -147 152s-147 -67 -147 -152z" />
    <glyph glyph-name="t.alt" horiz-adv-x="324" 
d="M100 0v392h-83v98h83v145h116v-145h95v-98h-95v-392h-116z" />
    <glyph glyph-name="u.alt" horiz-adv-x="568" 
d="M284 -12c-135 0 -218 83 -218 223v279h116v-272c0 -77 38 -123 102 -123s102 46 102 123v272h116v-279c0 -140 -83 -223 -218 -223z" />
    <glyph glyph-name="ae" unicode="&#xe6;" horiz-adv-x="862" 
d="M810 115c-39 -77 -114 -127 -213 -127c-82 0 -150 35 -193 98c-43 -69 -113 -98 -197 -98c-99 0 -166 59 -166 142c0 88 57 144 174 159l133 17v21c0 49 -34 80 -87 80c-49 0 -83 -26 -97 -74l-106 27c24 87 103 142 203 142c73 0 127 -29 157 -77c43 48 104 77 173 77
c138 0 236 -111 236 -257c0 -19 -1 -32 -1 -35h-361c5 -72 64 -125 133 -125c61 0 91 31 118 75zM156 138c0 -34 29 -57 69 -57c74 0 124 48 124 122v17l-111 -15c-54 -7 -82 -32 -82 -67zM466 294h246c-6 65 -57 113 -123 113c-64 0 -116 -57 -123 -113z" />
    <glyph glyph-name="aeacute" unicode="&#x1fd;" horiz-adv-x="861" 
d="M810 115c-39 -77 -114 -127 -213 -127c-82 0 -150 35 -193 98c-43 -69 -113 -98 -197 -98c-99 0 -166 59 -166 142c0 88 57 144 174 159l133 17v21c0 49 -34 80 -87 80c-49 0 -83 -26 -97 -74l-106 27c24 87 103 142 203 142c73 0 127 -29 157 -77c43 48 104 77 173 77
c138 0 236 -111 236 -257c0 -19 -1 -32 -1 -35h-361c5 -72 64 -125 133 -125c61 0 91 31 118 75zM156 138c0 -34 29 -57 69 -57c74 0 124 48 124 122v17l-111 -15c-54 -7 -82 -32 -82 -67zM384 575l96 143h127l-121 -143h-102zM466 294h246c-6 65 -57 113 -123 113
c-64 0 -116 -57 -123 -113z" />
    <glyph glyph-name="oslash" unicode="&#xf8;" horiz-adv-x="604" 
d="M302 502c57 0 108 -17 150 -45l49 50l57 -56l-48 -49c33 -43 53 -98 53 -157c0 -144 -112 -257 -261 -257c-57 0 -108 16 -150 44l-49 -51l-57 57l48 49c-34 44 -53 98 -53 158c0 144 112 257 261 257zM153 245c0 -28 7 -54 19 -77l205 211c-22 13 -48 21 -75 21
c-84 0 -149 -69 -149 -155zM228 110c21 -13 47 -20 74 -20c84 0 149 70 149 155c0 28 -7 53 -19 76z" />
    <glyph glyph-name="oslashacute" unicode="&#x1ff;" horiz-adv-x="604" 
d="M302 502c57 0 108 -17 150 -45l49 50l57 -56l-48 -49c33 -43 53 -98 53 -157c0 -144 -112 -257 -261 -257c-57 0 -108 16 -150 44l-49 -51l-57 57l48 49c-34 44 -53 98 -53 158c0 144 112 257 261 257zM153 245c0 -28 7 -54 19 -77l205 211c-22 13 -48 21 -75 21
c-84 0 -149 -69 -149 -155zM228 110c21 -13 47 -20 74 -20c84 0 149 70 149 155c0 28 -7 53 -19 76zM246 575l96 143h127l-121 -143h-102z" />
    <glyph glyph-name="aring" unicode="&#xe5;" horiz-adv-x="527" 
d="M41 130c0 88 57 142 174 159l133 17v21c0 49 -34 80 -87 80c-49 0 -83 -26 -97 -74l-106 27c24 87 103 142 203 142c127 0 200 -68 200 -183v-319h-108l-1 60c-33 -46 -90 -72 -153 -72c-94 0 -158 59 -158 142zM156 138c0 -35 29 -57 70 -57c72 0 123 46 123 111v28
l-111 -15c-54 -7 -82 -32 -82 -67zM161 653c0 56 46 98 103 98s103 -42 103 -98s-46 -98 -103 -98s-103 42 -103 98zM226 653c0 -21 17 -38 38 -38s38 17 38 38s-17 38 -38 38s-38 -17 -38 -38z" />
    <glyph glyph-name="aacute" unicode="&#xe1;" horiz-adv-x="527" 
d="M206 575l96 143h127l-121 -143h-102zM41 130c0 88 57 142 174 159l133 17v21c0 49 -34 80 -87 80c-49 0 -83 -26 -97 -74l-106 27c24 87 103 142 203 142c127 0 200 -68 200 -183v-319h-108l-1 60c-33 -46 -90 -72 -153 -72c-94 0 -158 59 -158 142zM156 138
c0 -35 29 -57 70 -57c72 0 123 46 123 111v28l-111 -15c-54 -7 -82 -32 -82 -67z" />
    <glyph glyph-name="abreve" unicode="&#x103;" horiz-adv-x="527" 
d="M262 650c34 0 58 24 60 63h82c0 -83 -60 -139 -142 -139c-83 0 -143 56 -143 139h82c2 -39 26 -63 61 -63zM41 130c0 88 57 142 174 159l133 17v21c0 49 -34 80 -87 80c-49 0 -83 -26 -97 -74l-106 27c24 87 103 142 203 142c127 0 200 -68 200 -183v-319h-108l-1 60
c-33 -46 -90 -72 -153 -72c-94 0 -158 59 -158 142zM156 138c0 -35 29 -57 70 -57c72 0 123 46 123 111v28l-111 -15c-54 -7 -82 -32 -82 -67z" />
    <glyph glyph-name="acircumflex" unicode="&#xe2;" horiz-adv-x="527" 
d="M109 575l111 143h90l110 -143h-106l-51 68l-50 -68h-104zM41 130c0 88 57 142 174 159l133 17v21c0 49 -34 80 -87 80c-49 0 -83 -26 -97 -74l-106 27c24 87 103 142 203 142c127 0 200 -68 200 -183v-319h-108l-1 60c-33 -46 -90 -72 -153 -72c-94 0 -158 59 -158 142z
M156 138c0 -35 29 -57 70 -57c72 0 123 46 123 111v28l-111 -15c-54 -7 -82 -32 -82 -67z" />
    <glyph glyph-name="adieresis" unicode="&#xe4;" horiz-adv-x="527" 
d="M229 633c0 -33 -28 -62 -63 -62c-33 0 -61 28 -61 62s28 62 61 62c36 0 63 -29 63 -62zM41 130c0 88 57 142 174 159l133 17v21c0 49 -34 80 -87 80c-49 0 -83 -26 -97 -74l-106 27c24 87 103 142 203 142c127 0 200 -68 200 -183v-319h-108l-1 60
c-33 -46 -90 -72 -153 -72c-94 0 -158 59 -158 142zM156 138c0 -35 29 -57 70 -57c72 0 123 46 123 111v28l-111 -15c-54 -7 -82 -32 -82 -67zM296 633c0 34 28 62 62 62c35 0 62 -29 62 -62s-28 -62 -62 -62s-62 28 -62 62z" />
    <glyph glyph-name="adieresis.square" horiz-adv-x="527" 
d="M112 576v117h108v-117h-108zM41 130c0 88 57 142 174 159l133 17v21c0 49 -34 80 -87 80c-49 0 -83 -26 -97 -74l-106 27c24 87 103 142 203 142c127 0 200 -68 200 -183v-319h-108l-1 60c-33 -46 -90 -72 -153 -72c-94 0 -158 59 -158 142zM156 138c0 -35 29 -57 70 -57
c72 0 123 46 123 111v28l-111 -15c-54 -7 -82 -32 -82 -67zM305 576v117h108v-117h-108z" />
    <glyph glyph-name="agrave" unicode="&#xe0;" horiz-adv-x="527" 
d="M228 575l-121 143h127l95 -143h-101zM41 130c0 88 57 142 174 159l133 17v21c0 49 -34 80 -87 80c-49 0 -83 -26 -97 -74l-106 27c24 87 103 142 203 142c127 0 200 -68 200 -183v-319h-108l-1 60c-33 -46 -90 -72 -153 -72c-94 0 -158 59 -158 142zM156 138
c0 -35 29 -57 70 -57c72 0 123 46 123 111v28l-111 -15c-54 -7 -82 -32 -82 -67z" />
    <glyph glyph-name="amacron" unicode="&#x101;" horiz-adv-x="527" 
d="M119 590v77h288v-77h-288zM41 130c0 88 57 142 174 159l133 17v21c0 49 -34 80 -87 80c-49 0 -83 -26 -97 -74l-106 27c24 87 103 142 203 142c127 0 200 -68 200 -183v-319h-108l-1 60c-33 -46 -90 -72 -153 -72c-94 0 -158 59 -158 142zM156 138c0 -35 29 -57 70 -57
c72 0 123 46 123 111v28l-111 -15c-54 -7 -82 -32 -82 -67z" />
    <glyph glyph-name="aogonek" unicode="&#x105;" horiz-adv-x="527" 
d="M41 130c0 88 57 142 174 159l133 17v21c0 49 -34 80 -87 80c-49 0 -83 -26 -97 -74l-106 27c24 87 103 142 203 142c127 0 200 -68 200 -183v-319c-55 -15 -107 -55 -107 -95c0 -24 16 -36 42 -36c16 0 32 4 46 13v-74c-19 -9 -42 -14 -67 -14c-67 0 -109 37 -109 92
c0 46 29 84 87 114l-1 60c-33 -46 -90 -72 -153 -72c-94 0 -158 59 -158 142zM156 138c0 -35 29 -57 70 -57c72 0 123 46 123 111v28l-111 -15c-54 -7 -82 -32 -82 -67z" />
    <glyph glyph-name="atilde" unicode="&#xe3;" horiz-adv-x="527" 
d="M97 583c-1 81 43 119 101 119c68 0 90 -48 127 -48c24 0 37 18 37 44h72c1 -82 -43 -119 -101 -119c-68 0 -90 48 -127 48c-25 0 -37 -18 -37 -44h-72zM41 130c0 88 57 142 174 159l133 17v21c0 49 -34 80 -87 80c-49 0 -83 -26 -97 -74l-106 27c24 87 103 142 203 142
c127 0 200 -68 200 -183v-319h-108l-1 60c-33 -46 -90 -72 -153 -72c-94 0 -158 59 -158 142zM156 138c0 -35 29 -57 70 -57c72 0 123 46 123 111v28l-111 -15c-54 -7 -82 -32 -82 -67z" />
    <glyph glyph-name="cacute" unicode="&#x107;" horiz-adv-x="472" 
d="M40 245c0 146 107 257 259 257c47 0 93 -12 131 -35v-115c-38 29 -78 44 -121 44c-87 0 -152 -65 -152 -151c0 -85 64 -151 152 -151c46 0 88 20 123 44v-115c-41 -23 -87 -35 -134 -35c-152 0 -258 108 -258 257zM220 575l96 143h127l-121 -143h-102z" />
    <glyph glyph-name="ccaron" unicode="&#x10d;" horiz-adv-x="472" 
d="M40 245c0 146 107 257 259 257c47 0 93 -12 131 -35v-115c-38 29 -78 44 -121 44c-87 0 -152 -65 -152 -151c0 -85 64 -151 152 -151c46 0 88 20 123 44v-115c-41 -23 -87 -35 -134 -35c-152 0 -258 108 -258 257zM134 718h106l51 -68l51 68h103l-110 -143h-90z" />
    <glyph glyph-name="ccedilla" unicode="&#xe7;" horiz-adv-x="472" 
d="M292 -47c51 0 88 -36 88 -85c0 -54 -43 -93 -101 -93c-56 0 -95 36 -101 83h70c3 -11 14 -24 32 -24c20 0 33 14 33 32s-14 31 -32 31c-12 0 -22 -6 -29 -14l-59 32l34 82c-113 27 -187 123 -187 248c0 146 107 257 259 257c47 0 93 -12 131 -35v-115
c-38 29 -78 44 -121 44c-87 0 -152 -65 -152 -151c0 -85 64 -151 152 -151c46 0 88 20 123 44v-115c-41 -23 -87 -35 -134 -35h-7l-18 -38c4 2 13 3 19 3z" />
    <glyph glyph-name="ccircumflex" unicode="&#x109;" horiz-adv-x="472" 
d="M40 245c0 146 107 257 259 257c47 0 93 -12 131 -35v-115c-38 29 -78 44 -121 44c-87 0 -152 -65 -152 -151c0 -85 64 -151 152 -151c46 0 88 20 123 44v-115c-41 -23 -87 -35 -134 -35c-152 0 -258 108 -258 257zM130 575l111 143h90l110 -143h-106l-51 68l-50 -68h-104
z" />
    <glyph glyph-name="cdotaccent" unicode="&#x10b;" horiz-adv-x="472" 
d="M40 245c0 146 107 257 259 257c47 0 93 -12 131 -35v-115c-38 29 -78 44 -121 44c-87 0 -152 -65 -152 -151c0 -85 64 -151 152 -151c46 0 88 20 123 44v-115c-41 -23 -87 -35 -134 -35c-152 0 -258 108 -258 257zM222 633c0 40 32 72 71 72c41 0 72 -33 72 -72
c0 -38 -31 -71 -72 -71c-39 0 -71 32 -71 71z" />
    <glyph glyph-name="cdotaccent.square" horiz-adv-x="472" 
d="M40 245c0 146 107 257 259 257c47 0 93 -12 131 -35v-115c-38 29 -78 44 -121 44c-87 0 -152 -65 -152 -151c0 -85 64 -151 152 -151c46 0 88 20 123 44v-115c-41 -23 -87 -35 -134 -35c-152 0 -258 108 -258 257zM235 571v123h116v-123h-116z" />
    <glyph glyph-name="dcaron" unicode="&#x10f;" horiz-adv-x="632" 
d="M445 70c-36 -50 -98 -82 -166 -82c-135 0 -239 111 -239 257c0 144 104 257 239 257c68 0 130 -29 166 -79v277h115v-700h-115v70zM156 245c0 -85 64 -152 147 -152s147 67 147 152s-64 152 -147 152s-147 -67 -147 -152zM600 545l30 167h115l-48 -167h-97z" />
    <glyph glyph-name="dcroat" unicode="&#x111;" horiz-adv-x="636" 
d="M443 70c-36 -50 -98 -82 -166 -82c-134 0 -237 110 -237 254c0 142 103 252 237 252c68 0 130 -27 166 -73v129h-205v79h205v71h115v-71h65v-79h-65v-550h-115v70zM156 242c0 -83 63 -149 146 -149c82 0 146 66 146 149c0 84 -64 149 -146 149c-83 0 -146 -65 -146 -149z
" />
    <glyph glyph-name="eth" unicode="&#xf0;" horiz-adv-x="604" 
d="M562 246c0 -148 -110 -258 -260 -258c-148 0 -260 110 -260 256c0 127 100 234 229 234c44 0 84 -10 111 -32c-13 20 -68 89 -88 113l-6 7l-129 -53l-40 63l119 49l-84 101h132l50 -61l117 48l40 -63l-108 -44l29 -35c112 -136 148 -221 148 -325zM158 240
c0 -81 62 -147 144 -147s143 66 143 147c0 80 -60 142 -143 142c-82 0 -144 -64 -144 -142z" />
    <glyph glyph-name="eacute" unicode="&#xe9;" horiz-adv-x="568" 
d="M516 115c-41 -77 -118 -127 -221 -127c-149 0 -255 106 -255 257c0 147 107 257 249 257c143 0 244 -111 244 -257c0 -19 -1 -32 -1 -35h-377c5 -71 68 -124 141 -124c64 0 97 31 125 74zM156 294h262c-7 65 -61 113 -131 113c-68 0 -124 -57 -131 -113zM226 575l96 143
h127l-121 -143h-102z" />
    <glyph glyph-name="ebreve" unicode="&#x115;" horiz-adv-x="568" 
d="M516 115c-41 -77 -118 -127 -221 -127c-149 0 -255 106 -255 257c0 147 107 257 249 257c143 0 244 -111 244 -257c0 -19 -1 -32 -1 -35h-377c5 -71 68 -124 141 -124c64 0 97 31 125 74zM146 713h82c2 -39 26 -63 61 -63c34 0 58 24 60 63h82c0 -83 -60 -139 -142 -139
c-83 0 -143 56 -143 139zM156 294h262c-7 65 -61 113 -131 113c-68 0 -124 -57 -131 -113z" />
    <glyph glyph-name="ecaron" unicode="&#x11b;" horiz-adv-x="568" 
d="M516 115c-41 -77 -118 -127 -221 -127c-149 0 -255 106 -255 257c0 147 107 257 249 257c143 0 244 -111 244 -257c0 -19 -1 -32 -1 -35h-377c5 -71 68 -124 141 -124c64 0 97 31 125 74zM133 718h106l51 -68l51 68h103l-110 -143h-90zM156 294h262
c-7 65 -61 113 -131 113c-68 0 -124 -57 -131 -113z" />
    <glyph glyph-name="ecircumflex" unicode="&#xea;" horiz-adv-x="568" 
d="M516 115c-41 -77 -118 -127 -221 -127c-149 0 -255 106 -255 257c0 147 107 257 249 257c143 0 244 -111 244 -257c0 -19 -1 -32 -1 -35h-377c5 -71 68 -124 141 -124c64 0 97 31 125 74zM134 575l111 143h90l110 -143h-106l-51 68l-50 -68h-104zM156 294h262
c-7 65 -61 113 -131 113c-68 0 -124 -57 -131 -113z" />
    <glyph glyph-name="edieresis" unicode="&#xeb;" horiz-adv-x="568" 
d="M516 115c-41 -77 -118 -127 -221 -127c-149 0 -255 106 -255 257c0 147 107 257 249 257c143 0 244 -111 244 -257c0 -19 -1 -32 -1 -35h-377c5 -71 68 -124 141 -124c64 0 97 31 125 74zM132 633c0 34 28 62 61 62c36 0 63 -29 63 -62s-28 -62 -63 -62
c-33 0 -61 28 -61 62zM156 294h262c-7 65 -61 113 -131 113c-68 0 -124 -57 -131 -113zM323 633c0 34 28 62 62 62c35 0 62 -29 62 -62s-28 -62 -62 -62s-62 28 -62 62z" />
    <glyph glyph-name="edieresis.square" horiz-adv-x="568" 
d="M516 115c-41 -77 -118 -127 -221 -127c-149 0 -255 106 -255 257c0 147 107 257 249 257c143 0 244 -111 244 -257c0 -19 -1 -32 -1 -35h-377c5 -71 68 -124 141 -124c64 0 97 31 125 74zM139 576v117h108v-117h-108zM156 294h262c-7 65 -61 113 -131 113
c-68 0 -124 -57 -131 -113zM332 576v117h108v-117h-108z" />
    <glyph glyph-name="edotaccent" unicode="&#x117;" horiz-adv-x="568" 
d="M516 115c-41 -77 -118 -127 -221 -127c-149 0 -255 106 -255 257c0 147 107 257 249 257c143 0 244 -111 244 -257c0 -19 -1 -32 -1 -35h-377c5 -71 68 -124 141 -124c64 0 97 31 125 74zM156 294h262c-7 65 -61 113 -131 113c-68 0 -124 -57 -131 -113zM218 633
c0 40 32 72 71 72c41 0 72 -33 72 -72c0 -38 -31 -71 -72 -71c-39 0 -71 32 -71 71z" />
    <glyph glyph-name="edotaccent.square" horiz-adv-x="568" 
d="M516 115c-41 -77 -118 -127 -221 -127c-149 0 -255 106 -255 257c0 147 107 257 249 257c143 0 244 -111 244 -257c0 -19 -1 -32 -1 -35h-377c5 -71 68 -124 141 -124c64 0 97 31 125 74zM156 294h262c-7 65 -61 113 -131 113c-68 0 -124 -57 -131 -113zM232 571v123h116
v-123h-116z" />
    <glyph glyph-name="egrave" unicode="&#xe8;" horiz-adv-x="568" 
d="M516 115c-41 -77 -118 -127 -221 -127c-149 0 -255 106 -255 257c0 147 107 257 249 257c143 0 244 -111 244 -257c0 -19 -1 -32 -1 -35h-377c5 -71 68 -124 141 -124c64 0 97 31 125 74zM134 718h127l95 -143h-101zM156 294h262c-7 65 -61 113 -131 113
c-68 0 -124 -57 -131 -113z" />
    <glyph glyph-name="emacron" unicode="&#x113;" horiz-adv-x="568" 
d="M516 115c-41 -77 -118 -127 -221 -127c-149 0 -255 106 -255 257c0 147 107 257 249 257c143 0 244 -111 244 -257c0 -19 -1 -32 -1 -35h-377c5 -71 68 -124 141 -124c64 0 97 31 125 74zM145 590v77h288v-77h-288zM156 294h262c-7 65 -61 113 -131 113
c-68 0 -124 -57 -131 -113z" />
    <glyph glyph-name="eogonek" unicode="&#x119;" horiz-adv-x="568" 
d="M516 115c-20 -37 -50 -70 -84 -100s-55 -64 -55 -101c0 -29 15 -45 42 -45c16 0 32 4 47 13v-74c-20 -9 -45 -14 -71 -14c-66 0 -107 39 -107 93c0 41 17 73 45 104c-13 -2 -25 -3 -38 -3c-149 0 -255 106 -255 257c0 147 107 257 249 257c143 0 244 -111 244 -257
c0 -19 -1 -32 -1 -35h-377c5 -71 68 -124 141 -124c64 0 97 31 125 74zM156 294h262c-7 65 -61 113 -131 113c-68 0 -124 -57 -131 -113z" />
    <glyph glyph-name="gbreve" unicode="&#x11f;" horiz-adv-x="622" 
d="M436 84c-33 -47 -94 -79 -161 -79c-133 0 -235 106 -235 247s102 250 235 250c68 0 128 -30 161 -78v66h114v-460c0 -152 -96 -255 -256 -255c-109 0 -195 48 -237 129l92 58c30 -55 83 -86 145 -86c88 0 142 58 142 153v55zM157 252c0 -82 62 -147 142 -147
s142 65 142 147c0 81 -62 146 -142 146s-142 -65 -142 -146zM160 713h82c2 -39 26 -63 61 -63c34 0 58 24 60 63h82c0 -83 -60 -139 -142 -139c-83 0 -143 56 -143 139z" />
    <glyph glyph-name="gcircumflex" unicode="&#x11d;" horiz-adv-x="622" 
d="M436 84c-33 -47 -94 -79 -161 -79c-133 0 -235 106 -235 247s102 250 235 250c68 0 128 -30 161 -78v66h114v-460c0 -152 -96 -255 -256 -255c-109 0 -195 48 -237 129l92 58c30 -55 83 -86 145 -86c88 0 142 58 142 153v55zM148 575l111 143h90l110 -143h-106l-51 68
l-50 -68h-104zM157 252c0 -82 62 -147 142 -147s142 65 142 147c0 81 -62 146 -142 146s-142 -65 -142 -146z" />
    <glyph glyph-name="uni0123" unicode="&#x123;" horiz-adv-x="622" 
d="M436 84c-33 -47 -94 -79 -161 -79c-133 0 -235 106 -235 247s102 250 235 250c68 0 128 -30 161 -78v66h114v-460c0 -152 -96 -255 -256 -255c-109 0 -195 48 -237 129l92 58c30 -55 83 -86 145 -86c88 0 142 58 142 153v55zM157 252c0 -82 62 -147 142 -147
s142 65 142 147c0 81 -62 146 -142 146s-142 -65 -142 -146zM234 625c0 21 7 39 18 61l33 66h64l-37 -72h1c28 -1 51 -24 51 -55c0 -37 -28 -63 -64 -63s-66 27 -66 63z" />
    <glyph glyph-name="uni0123.square" horiz-adv-x="622" 
d="M436 84c-33 -47 -94 -79 -161 -79c-133 0 -235 106 -235 247s102 250 235 250c68 0 128 -30 161 -78v66h114v-460c0 -152 -96 -255 -256 -255c-109 0 -195 48 -237 129l92 58c30 -55 83 -86 145 -86c88 0 142 58 142 153v55zM157 252c0 -82 62 -147 142 -147
s142 65 142 147c0 81 -62 146 -142 146s-142 -65 -142 -146zM244 567v110c0 63 37 88 90 89c10 0 15 -1 17 -1v-53c-2 1 -5 1 -10 1c-22 0 -36 -11 -36 -32v-6h48v-108h-109z" />
    <glyph glyph-name="gdotaccent" unicode="&#x121;" horiz-adv-x="622" 
d="M436 84c-33 -47 -94 -79 -161 -79c-133 0 -235 106 -235 247s102 250 235 250c68 0 128 -30 161 -78v66h114v-460c0 -152 -96 -255 -256 -255c-109 0 -195 48 -237 129l92 58c30 -55 83 -86 145 -86c88 0 142 58 142 153v55zM157 252c0 -82 62 -147 142 -147
s142 65 142 147c0 81 -62 146 -142 146s-142 -65 -142 -146zM232 633c0 40 32 72 71 72c41 0 72 -33 72 -72c0 -38 -31 -71 -72 -71c-39 0 -71 32 -71 71z" />
    <glyph glyph-name="gdotaccent.square" horiz-adv-x="622" 
d="M436 84c-33 -47 -94 -79 -161 -79c-133 0 -235 106 -235 247s102 250 235 250c68 0 128 -30 161 -78v66h114v-460c0 -152 -96 -255 -256 -255c-109 0 -195 48 -237 129l92 58c30 -55 83 -86 145 -86c88 0 142 58 142 153v55zM157 252c0 -82 62 -147 142 -147
s142 65 142 147c0 81 -62 146 -142 146s-142 -65 -142 -146zM245 571v123h116v-123h-116z" />
    <glyph glyph-name="hbar" unicode="&#x127;" 
d="M78 629v71h116v-71h197v-79h-197v-134c30 46 81 77 150 77c119 0 190 -80 190 -207v-286h-116v264c0 76 -39 122 -109 122c-69 0 -115 -53 -115 -137v-249h-116v550h-66v79h66z" />
    <glyph glyph-name="hcircumflex" unicode="&#x125;" horiz-adv-x="594" 
d="M188 0h-116v700h116v-275c30 46 81 77 150 77c119 0 190 -80 190 -207v-295h-116v273c0 76 -39 122 -109 122c-69 0 -115 -53 -115 -137v-258zM-24 755l111 143h90l110 -143h-106l-51 67l-50 -67h-104z" />
    <glyph glyph-name="iacute" unicode="&#xed;" horiz-adv-x="260" 
d="M188 490v-490h-116v490h116zM78 575l96 143h127l-121 -143h-102z" />
    <glyph glyph-name="ibreve" unicode="&#x12d;" horiz-adv-x="260" 
d="M188 490v-490h-116v490h116zM-13 713h82c2 -39 26 -63 61 -63c34 0 58 24 60 63h82c0 -83 -60 -139 -142 -139c-83 0 -143 56 -143 139z" />
    <glyph glyph-name="icircumflex" unicode="&#xee;" horiz-adv-x="260" 
d="M188 490v-490h-116v490h116zM-26 575l111 143h90l110 -143h-106l-51 68l-50 -68h-104z" />
    <glyph glyph-name="idieresis" unicode="&#xef;" horiz-adv-x="260" 
d="M188 490v-490h-116v490h116zM-28 633c0 34 28 62 61 62c36 0 63 -29 63 -62s-28 -62 -63 -62c-33 0 -61 28 -61 62zM163 633c0 34 28 62 62 62c35 0 62 -29 62 -62s-28 -62 -62 -62s-62 28 -62 62z" />
    <glyph glyph-name="idieresis.square" horiz-adv-x="260" 
d="M188 490v-490h-116v490h116zM-21 576v117h108v-117h-108zM172 576v117h108v-117h-108z" />
    <glyph glyph-name="i.loclTRK" horiz-adv-x="260" 
d="M72 0v490h116v-490h-116zM58 633c0 40 32 72 71 72c41 0 72 -33 72 -72c0 -38 -31 -71 -72 -71c-39 0 -71 32 -71 71z" />
    <glyph glyph-name="i.loclTRK.square" horiz-adv-x="260" 
d="M72 571v123h116v-123h-116zM72 0v490h116v-490h-116z" />
    <glyph glyph-name="igrave" unicode="&#xec;" horiz-adv-x="260" 
d="M188 490v-490h-116v490h116zM-41 718h127l95 -143h-101z" />
    <glyph glyph-name="imacron" unicode="&#x12b;" horiz-adv-x="260" 
d="M188 490v-490h-116v490h116zM-14 590v77h288v-77h-288z" />
    <glyph glyph-name="iogonek" unicode="&#x12f;" horiz-adv-x="260" 
d="M188 0c-57 -17 -93 -53 -93 -91c0 -26 16 -41 41 -41c15 0 33 4 48 14v-74c-19 -9 -43 -14 -68 -14c-66 0 -107 39 -107 97c0 44 23 80 63 109v490h116v-490zM58 633c0 40 32 72 71 72c41 0 72 -33 72 -72c0 -38 -31 -71 -72 -71c-39 0 -71 32 -71 71z" />
    <glyph glyph-name="iogonek.square" horiz-adv-x="260" 
d="M188 0c-57 -17 -93 -53 -93 -91c0 -26 16 -41 41 -41c15 0 33 4 48 14v-74c-19 -9 -43 -14 -68 -14c-66 0 -107 39 -107 97c0 44 23 80 63 109v490h116v-490zM72 571v123h116v-123h-116z" />
    <glyph glyph-name="itilde" unicode="&#x129;" horiz-adv-x="260" 
d="M188 490v-490h-116v490h116zM-41 583c-1 81 43 119 101 119c68 0 90 -48 127 -48c24 0 37 18 37 44h72c1 -82 -43 -119 -101 -119c-68 0 -90 48 -127 48c-25 0 -37 -18 -37 -44h-72z" />
    <glyph glyph-name="dotlessi" unicode="&#x131;" horiz-adv-x="260" 
d="M188 490v-490h-116v490h116z" />
    <glyph glyph-name="jcircumflex" unicode="&#x135;" horiz-adv-x="263" 
d="M75 490h116v-521c0 -126 -66 -191 -168 -191c-31 0 -50 6 -66 12v102c12 -7 29 -9 46 -9c45 0 72 32 72 90v517zM-23 575l111 143h90l110 -143h-106l-51 68l-50 -68h-104z" />
    <glyph glyph-name="uni0237" unicode="&#x237;" horiz-adv-x="263" 
d="M75 490h116v-521c0 -126 -66 -191 -168 -191c-31 0 -50 6 -66 12v102c12 -7 29 -9 46 -9c45 0 72 32 72 90v517z" />
    <glyph glyph-name="uni0137" unicode="&#x137;" horiz-adv-x="536" 
d="M513 490l-213 -213l229 -277h-142l-175 217l-25 -23v-194h-115v700h115v-395l184 185h142zM217 -114c0 38 30 64 65 64c38 0 66 -26 66 -63c0 -19 -7 -38 -15 -55l-35 -72h-66l38 73h-2c-28 1 -51 24 -51 53z" />
    <glyph glyph-name="uni0137.square" horiz-adv-x="536" 
d="M513 490l-213 -213l229 -277h-142l-175 217l-25 -23v-194h-115v700h115v-395l184 185h142zM230 -160v106h109v-108c0 -63 -37 -88 -90 -89c-10 0 -15 1 -17 1v52c1 0 5 -1 9 -1c22 1 37 12 37 32v7h-48z" />
    <glyph glyph-name="kgreenlandic" unicode="&#x138;" horiz-adv-x="536" 
d="M187 490v-185l184 185h142l-213 -213l229 -277h-142l-177 219l-23 -21v-198h-115v490h115z" />
    <glyph glyph-name="lacute" unicode="&#x13a;" horiz-adv-x="260" 
d="M188 700v-700h-116v700h116zM78 755l96 143h127l-121 -143h-102z" />
    <glyph glyph-name="lcaron" unicode="&#x13e;" horiz-adv-x="260" 
d="M188 700v-700h-116v700h116zM227 545l30 167h115l-48 -167h-97z" />
    <glyph glyph-name="uni013C" unicode="&#x13c;" horiz-adv-x="260" 
d="M188 700v-700h-116v700h116zM66 -114c0 38 30 64 65 64c38 0 66 -26 66 -63c0 -19 -7 -38 -15 -55l-35 -72h-66l38 73h-2c-28 1 -51 24 -51 53z" />
    <glyph glyph-name="uni013C.square" horiz-adv-x="260" 
d="M188 700v-700h-116v700h116zM76 -160v106h109v-108c0 -63 -37 -88 -90 -89c-10 0 -15 1 -17 1v52c1 0 5 -1 9 -1c22 1 37 12 37 32v7h-48z" />
    <glyph glyph-name="ldot" unicode="&#x140;" horiz-adv-x="367" 
d="M385 333c0 -38 -31 -71 -72 -71c-39 0 -71 32 -71 71c0 40 32 72 71 72c41 0 72 -33 72 -72zM72 0v700h116v-700h-116z" />
    <glyph glyph-name="ldot.square" horiz-adv-x="366" 
d="M255 270v123h116v-123h-116zM72 0v700h116v-700h-116z" />
    <glyph glyph-name="lslash" unicode="&#x142;" horiz-adv-x="305" 
d="M210 700v-254l85 45v-99l-85 -45v-347h-116v285l-82 -43v100l82 43v315h116z" />
    <glyph glyph-name="nacute" unicode="&#x144;" horiz-adv-x="594" 
d="M188 0h-116v490h116v-65c30 46 81 77 150 77c119 0 190 -80 190 -207v-295h-116v273c0 76 -39 122 -109 122c-69 0 -115 -53 -115 -137v-258zM239 575l96 143h127l-121 -143h-102z" />
    <glyph glyph-name="ncaron" unicode="&#x148;" horiz-adv-x="594" 
d="M188 0h-116v490h116v-65c30 46 81 77 150 77c119 0 190 -80 190 -207v-295h-116v273c0 76 -39 122 -109 122c-69 0 -115 -53 -115 -137v-258zM146 718h106l51 -68l51 68h103l-110 -143h-90z" />
    <glyph glyph-name="uni0146" unicode="&#x146;" horiz-adv-x="594" 
d="M188 0h-116v490h116v-65c30 46 81 77 150 77c119 0 190 -80 190 -207v-295h-116v273c0 76 -39 122 -109 122c-69 0 -115 -53 -115 -137v-258zM236 -114c0 38 30 64 65 64c38 0 66 -26 66 -63c0 -19 -7 -38 -15 -55l-35 -72h-66l38 73h-2c-28 1 -51 24 -51 53z" />
    <glyph glyph-name="uni0146.square" horiz-adv-x="594" 
d="M188 0h-116v490h116v-65c30 46 81 77 150 77c119 0 190 -80 190 -207v-295h-116v273c0 76 -39 122 -109 122c-69 0 -115 -53 -115 -137v-258zM246 -160v106h109v-108c0 -63 -37 -88 -90 -89c-10 0 -15 1 -17 1v52c1 0 5 -1 9 -1c22 1 37 12 37 32v7h-48z" />
    <glyph glyph-name="ntilde" unicode="&#xf1;" horiz-adv-x="594" 
d="M188 0h-116v490h116v-65c30 46 81 77 150 77c119 0 190 -80 190 -207v-295h-116v273c0 76 -39 122 -109 122c-69 0 -115 -53 -115 -137v-258zM136 583c-1 81 43 119 101 119c68 0 90 -48 127 -48c24 0 37 18 37 44h72c1 -82 -43 -119 -101 -119c-68 0 -90 48 -127 48
c-25 0 -37 -18 -37 -44h-72z" />
    <glyph glyph-name="eng" unicode="&#x14b;" horiz-adv-x="594" 
d="M188 0h-116v490h116v-65c30 46 81 77 150 77c119 0 190 -80 190 -207v-326c0 -126 -66 -191 -168 -191c-31 0 -50 6 -66 12v101c12 -6 29 -9 46 -9c45 0 72 33 72 91v300c0 76 -39 122 -109 122c-69 0 -115 -53 -115 -137v-258z" />
    <glyph glyph-name="oacute" unicode="&#xf3;" horiz-adv-x="602" 
d="M301 502c150 0 261 -113 261 -257s-111 -257 -261 -257s-261 113 -261 257s111 257 261 257zM155 245c0 -84 64 -151 146 -151s146 67 146 151s-64 151 -146 151s-146 -67 -146 -151zM246 575l96 143h127l-121 -143h-102z" />
    <glyph glyph-name="obreve" unicode="&#x14f;" horiz-adv-x="602" 
d="M301 502c150 0 261 -113 261 -257s-111 -257 -261 -257s-261 113 -261 257s111 257 261 257zM155 245c0 -84 64 -151 146 -151s146 67 146 151s-64 151 -146 151s-146 -67 -146 -151zM158 713h82c2 -39 26 -63 61 -63c34 0 58 24 60 63h82c0 -83 -60 -139 -142 -139
c-83 0 -143 56 -143 139z" />
    <glyph glyph-name="ocircumflex" unicode="&#xf4;" horiz-adv-x="602" 
d="M301 502c150 0 261 -113 261 -257s-111 -257 -261 -257s-261 113 -261 257s111 257 261 257zM145 575l111 143h90l110 -143h-106l-51 68l-50 -68h-104zM155 245c0 -84 64 -151 146 -151s146 67 146 151s-64 151 -146 151s-146 -67 -146 -151z" />
    <glyph glyph-name="odieresis" unicode="&#xf6;" horiz-adv-x="602" 
d="M301 502c150 0 261 -113 261 -257s-111 -257 -261 -257s-261 113 -261 257s111 257 261 257zM143 633c0 34 28 62 61 62c36 0 63 -29 63 -62s-28 -62 -63 -62c-33 0 -61 28 -61 62zM155 245c0 -84 64 -151 146 -151s146 67 146 151s-64 151 -146 151s-146 -67 -146 -151z
M334 633c0 34 28 62 62 62c35 0 62 -29 62 -62s-28 -62 -62 -62s-62 28 -62 62z" />
    <glyph glyph-name="odieresis.square" horiz-adv-x="602" 
d="M301 502c150 0 261 -113 261 -257s-111 -257 -261 -257s-261 113 -261 257s111 257 261 257zM150 576v117h108v-117h-108zM155 245c0 -84 64 -151 146 -151s146 67 146 151s-64 151 -146 151s-146 -67 -146 -151zM343 576v117h108v-117h-108z" />
    <glyph glyph-name="ograve" unicode="&#xf2;" horiz-adv-x="602" 
d="M301 502c150 0 261 -113 261 -257s-111 -257 -261 -257s-261 113 -261 257s111 257 261 257zM133 718h127l95 -143h-101zM155 245c0 -84 64 -151 146 -151s146 67 146 151s-64 151 -146 151s-146 -67 -146 -151z" />
    <glyph glyph-name="ohungarumlaut" unicode="&#x151;" horiz-adv-x="602" 
d="M301 502c150 0 261 -113 261 -257s-111 -257 -261 -257s-261 113 -261 257s111 257 261 257zM155 245c0 -84 64 -151 146 -151s146 67 146 151s-64 151 -146 151s-146 -67 -146 -151zM171 572l86 142h112l-107 -142h-91zM343 572l86 142h111l-106 -142h-91z" />
    <glyph glyph-name="omacron" unicode="&#x14d;" horiz-adv-x="602" 
d="M301 502c150 0 261 -113 261 -257s-111 -257 -261 -257s-261 113 -261 257s111 257 261 257zM155 245c0 -84 64 -151 146 -151s146 67 146 151s-64 151 -146 151s-146 -67 -146 -151zM157 590v77h288v-77h-288z" />
    <glyph glyph-name="otilde" unicode="&#xf5;" horiz-adv-x="602" 
d="M301 502c150 0 261 -113 261 -257s-111 -257 -261 -257s-261 113 -261 257s111 257 261 257zM133 583c-1 81 43 119 101 119c68 0 90 -48 127 -48c24 0 37 18 37 44h72c1 -82 -43 -119 -101 -119c-68 0 -90 48 -127 48c-25 0 -37 -18 -37 -44h-72zM155 245
c0 -84 64 -151 146 -151s146 67 146 151s-64 151 -146 151s-146 -67 -146 -151z" />
    <glyph glyph-name="oe" unicode="&#x153;" horiz-adv-x="961" 
d="M909 115c-40 -77 -116 -127 -217 -127c-83 0 -152 35 -195 94c-45 -58 -115 -94 -196 -94c-150 0 -261 113 -261 257s111 257 261 257c82 0 152 -37 197 -95c43 59 110 95 188 95c140 0 240 -111 240 -257c0 -19 -1 -32 -1 -35h-369c5 -71 66 -124 137 -124
c62 0 94 31 121 74zM155 245c0 -84 64 -151 146 -151s146 67 146 151s-64 151 -146 151s-146 -67 -146 -151zM557 294h254c-6 65 -59 113 -127 113c-66 0 -120 -57 -127 -113z" />
    <glyph glyph-name="racute" unicode="&#x155;" horiz-adv-x="378" 
d="M354 379c-4 2 -15 4 -30 4c-85 0 -137 -66 -137 -167v-216h-115v490h114v-84c24 57 82 94 146 94c11 0 21 -2 22 -3v-118zM141 575l96 143h127l-121 -143h-102z" />
    <glyph glyph-name="rcaron" unicode="&#x159;" horiz-adv-x="378" 
d="M354 379c-4 2 -15 4 -30 4c-85 0 -137 -66 -137 -167v-216h-115v490h114v-84c24 57 82 94 146 94c11 0 21 -2 22 -3v-118zM58 718h106l51 -68l51 68h103l-110 -143h-90z" />
    <glyph glyph-name="uni0157" unicode="&#x157;" horiz-adv-x="378" 
d="M354 379c-4 2 -15 4 -30 4c-85 0 -137 -66 -137 -167v-216h-115v490h114v-84c24 57 82 94 146 94c11 0 21 -2 22 -3v-118zM66 -114c0 38 30 64 65 64c38 0 66 -26 66 -63c0 -19 -7 -38 -15 -55l-35 -72h-66l38 73h-2c-28 1 -51 24 -51 53z" />
    <glyph glyph-name="uni0157.square" horiz-adv-x="378" 
d="M354 379c-4 2 -15 4 -30 4c-85 0 -137 -66 -137 -167v-216h-115v490h114v-84c24 57 82 94 146 94c11 0 21 -2 22 -3v-118zM77 -160v106h109v-108c0 -63 -37 -88 -90 -89c-10 0 -15 1 -17 1v52c1 0 5 -1 9 -1c22 1 37 12 37 32v7h-48z" />
    <glyph glyph-name="sacute" unicode="&#x15b;" horiz-adv-x="429" 
d="M122 162c17 -45 54 -75 98 -75c36 0 66 17 66 51c0 26 -18 41 -56 53l-59 19c-85 27 -125 74 -125 142c0 92 76 150 169 150c80 0 147 -43 178 -111l-93 -50c-18 39 -48 65 -85 65c-33 0 -59 -17 -59 -45c0 -24 19 -41 55 -53l58 -19c92 -30 129 -78 129 -143
c0 -100 -84 -158 -180 -158c-91 0 -162 49 -190 125zM150 575l96 143h127l-121 -143h-102z" />
    <glyph glyph-name="scaron" unicode="&#x161;" horiz-adv-x="429" 
d="M122 162c17 -45 54 -75 98 -75c36 0 66 17 66 51c0 26 -18 41 -56 53l-59 19c-85 27 -125 74 -125 142c0 92 76 150 169 150c80 0 147 -43 178 -111l-93 -50c-18 39 -48 65 -85 65c-33 0 -59 -17 -59 -45c0 -24 19 -41 55 -53l58 -19c92 -30 129 -78 129 -143
c0 -100 -84 -158 -180 -158c-91 0 -162 49 -190 125zM57 718h106l51 -68l51 68h103l-110 -143h-90z" />
    <glyph glyph-name="scedilla" unicode="&#x15f;" horiz-adv-x="429" 
d="M234 -47c51 0 88 -36 88 -85c0 -54 -43 -93 -101 -93c-56 0 -95 36 -101 83h70c3 -11 14 -24 32 -24c20 0 33 14 33 32s-14 31 -32 31c-12 0 -22 -6 -29 -14l-59 32l33 78c-67 14 -118 58 -140 120l94 49c17 -45 54 -75 98 -75c36 0 66 17 66 51c0 26 -18 41 -56 53
l-59 19c-85 27 -125 74 -125 142c0 92 76 150 169 150c80 0 147 -43 178 -111l-93 -50c-18 39 -48 65 -85 65c-33 0 -59 -17 -59 -45c0 -24 19 -41 55 -53l58 -19c92 -30 129 -78 129 -143c0 -95 -75 -151 -165 -157l-18 -39c4 2 13 3 19 3z" />
    <glyph glyph-name="scircumflex" unicode="&#x15d;" horiz-adv-x="429" 
d="M122 162c17 -45 54 -75 98 -75c36 0 66 17 66 51c0 26 -18 41 -56 53l-59 19c-85 27 -125 74 -125 142c0 92 76 150 169 150c80 0 147 -43 178 -111l-93 -50c-18 39 -48 65 -85 65c-33 0 -59 -17 -59 -45c0 -24 19 -41 55 -53l58 -19c92 -30 129 -78 129 -143
c0 -100 -84 -158 -180 -158c-91 0 -162 49 -190 125zM57 575l111 143h90l110 -143h-106l-51 68l-50 -68h-104z" />
    <glyph glyph-name="uni0219" unicode="&#x219;" horiz-adv-x="429" 
d="M122 162c17 -45 54 -75 98 -75c36 0 66 17 66 51c0 26 -18 41 -56 53l-59 19c-85 27 -125 74 -125 142c0 92 76 150 169 150c80 0 147 -43 178 -111l-93 -50c-18 39 -48 65 -85 65c-33 0 -59 -17 -59 -45c0 -24 19 -41 55 -53l58 -19c92 -30 129 -78 129 -143
c0 -100 -84 -158 -180 -158c-91 0 -162 49 -190 125zM153 -114c0 38 30 64 65 64c38 0 66 -26 66 -63c0 -19 -7 -38 -15 -55l-35 -72h-66l38 73h-2c-28 1 -51 24 -51 53z" />
    <glyph glyph-name="uni0219.square" horiz-adv-x="429" 
d="M122 162c17 -45 54 -75 98 -75c36 0 66 17 66 51c0 26 -18 41 -56 53l-59 19c-85 27 -125 74 -125 142c0 92 76 150 169 150c80 0 147 -43 178 -111l-93 -50c-18 39 -48 65 -85 65c-33 0 -59 -17 -59 -45c0 -24 19 -41 55 -53l58 -19c92 -30 129 -78 129 -143
c0 -100 -84 -158 -180 -158c-91 0 -162 49 -190 125zM164 -160v106h109v-108c0 -63 -37 -88 -90 -89c-10 0 -15 1 -17 1v52c1 0 5 -1 9 -1c22 1 37 12 37 32v7h-48z" />
    <glyph glyph-name="germandbls" unicode="&#xdf;" horiz-adv-x="611" 
d="M72 490c0 148 87 245 232 245c132 0 226 -82 226 -192c0 -71 -37 -125 -92 -155c78 -31 129 -101 129 -185c0 -128 -94 -213 -235 -213c-30 0 -56 3 -81 11v96c18 -7 45 -8 66 -8c76 0 134 50 134 122c0 71 -63 122 -144 122h-25v97h20c65 0 115 43 115 104
c0 57 -49 101 -112 101c-74 0 -118 -55 -118 -140v-495h-115v490z" />
    <glyph glyph-name="tbar" unicode="&#x167;" horiz-adv-x="373" 
d="M211 635v-145h130v-98h-130v-81h130v-90h-130v-49c0 -54 24 -78 76 -78c18 0 39 5 54 15v-103c-19 -10 -48 -18 -88 -18c-98 0 -157 61 -157 163v70h-70v90h70v81h-73v98h73v145h115z" />
    <glyph glyph-name="tcaron" unicode="&#x165;" horiz-adv-x="368" 
d="M208 635v-145h130v-98h-130v-220c0 -54 24 -78 76 -78c18 0 39 5 54 15v-103c-19 -10 -48 -18 -88 -18c-98 0 -157 61 -157 163v241h-73v98h73v145h115zM262 545l30 167h115l-48 -167h-97z" />
    <glyph glyph-name="uni0163" unicode="&#x163;" horiz-adv-x="368" 
d="M208 635v-145h130v-98h-130v-220c0 -54 24 -78 76 -78c18 0 39 5 54 15v-103c-19 -10 -48 -18 -88 -18c-98 0 -157 61 -157 163v241h-73v98h73v145h115zM142 -114c0 38 30 64 65 64c38 0 66 -26 66 -63c0 -19 -7 -38 -15 -55l-35 -72h-66l38 73h-2c-28 1 -51 24 -51 53z
" />
    <glyph glyph-name="uni021B.square" horiz-adv-x="368" 
d="M208 635v-145h130v-98h-130v-220c0 -54 24 -78 76 -78c18 0 39 5 54 15v-103c-19 -10 -48 -18 -88 -18c-98 0 -157 61 -157 163v241h-73v98h73v145h115zM152 -160v106h109v-108c0 -63 -37 -88 -90 -89c-10 0 -15 1 -17 1v52c1 0 5 -1 9 -1c22 1 37 12 37 32v7h-48z" />
    <glyph glyph-name="uacute" unicode="&#xfa;" horiz-adv-x="590" 
d="M402 490h116v-490h-116v65c-30 -46 -81 -77 -149 -77c-116 0 -187 80 -187 207v295h116v-273c0 -76 39 -122 106 -122c69 0 114 53 114 137v258zM227 575l96 143h127l-121 -143h-102z" />
    <glyph glyph-name="ubreve" unicode="&#x16d;" horiz-adv-x="590" 
d="M402 490h116v-490h-116v65c-30 -46 -81 -77 -149 -77c-116 0 -187 80 -187 207v295h116v-273c0 -76 39 -122 106 -122c69 0 114 53 114 137v258zM150 713h82c2 -39 26 -63 61 -63c34 0 58 24 60 63h82c0 -83 -60 -139 -142 -139c-83 0 -143 56 -143 139z" />
    <glyph glyph-name="ucircumflex" unicode="&#xfb;" horiz-adv-x="590" 
d="M402 490h116v-490h-116v65c-30 -46 -81 -77 -149 -77c-116 0 -187 80 -187 207v295h116v-273c0 -76 39 -122 106 -122c69 0 114 53 114 137v258zM136 575l111 143h90l110 -143h-106l-51 68l-50 -68h-104z" />
    <glyph glyph-name="udieresis" unicode="&#xfc;" horiz-adv-x="590" 
d="M402 490h116v-490h-116v65c-30 -46 -81 -77 -149 -77c-116 0 -187 80 -187 207v295h116v-273c0 -76 39 -122 106 -122c69 0 114 53 114 137v258zM134 633c0 34 28 62 61 62c36 0 63 -29 63 -62s-28 -62 -63 -62c-33 0 -61 28 -61 62zM325 633c0 34 28 62 62 62
c35 0 62 -29 62 -62s-28 -62 -62 -62s-62 28 -62 62z" />
    <glyph glyph-name="udieresis.square" horiz-adv-x="590" 
d="M402 490h116v-490h-116v65c-30 -46 -81 -77 -149 -77c-116 0 -187 80 -187 207v295h116v-273c0 -76 39 -122 106 -122c69 0 114 53 114 137v258zM141 576v117h108v-117h-108zM334 576v117h108v-117h-108z" />
    <glyph glyph-name="ugrave" unicode="&#xf9;" horiz-adv-x="590" 
d="M402 490h116v-490h-116v65c-30 -46 -81 -77 -149 -77c-116 0 -187 80 -187 207v295h116v-273c0 -76 39 -122 106 -122c69 0 114 53 114 137v258zM132 718h127l95 -143h-101z" />
    <glyph glyph-name="uhungarumlaut" unicode="&#x171;" horiz-adv-x="590" 
d="M402 490h116v-490h-116v65c-30 -46 -81 -77 -149 -77c-116 0 -187 80 -187 207v295h116v-273c0 -76 39 -122 106 -122c69 0 114 53 114 137v258zM150 572l86 142h112l-107 -142h-91zM322 572l86 142h111l-106 -142h-91z" />
    <glyph glyph-name="umacron" unicode="&#x16b;" horiz-adv-x="590" 
d="M402 490h116v-490h-116v65c-30 -46 -81 -77 -149 -77c-116 0 -187 80 -187 207v295h116v-273c0 -76 39 -122 106 -122c69 0 114 53 114 137v258zM148 590v77h288v-77h-288z" />
    <glyph glyph-name="uogonek" unicode="&#x173;" horiz-adv-x="590" 
d="M402 490h116v-490c-61 -15 -114 -54 -114 -95c0 -24 16 -36 42 -36c16 0 32 4 46 13v-74c-19 -9 -42 -14 -67 -14c-67 0 -109 37 -109 92c0 46 29 84 86 114v65c-30 -46 -81 -77 -149 -77c-116 0 -187 80 -187 207v295h116v-273c0 -76 39 -122 106 -122
c69 0 114 53 114 137v258z" />
    <glyph glyph-name="uring" unicode="&#x16f;" horiz-adv-x="590" 
d="M402 490h116v-490h-116v65c-30 -46 -81 -77 -149 -77c-116 0 -187 80 -187 207v295h116v-273c0 -76 39 -122 106 -122c69 0 114 53 114 137v258zM188 653c0 56 46 98 103 98s103 -42 103 -98s-46 -98 -103 -98s-103 42 -103 98zM253 653c0 -21 17 -38 38 -38s38 17 38 38
s-17 38 -38 38s-38 -17 -38 -38z" />
    <glyph glyph-name="utilde" unicode="&#x169;" horiz-adv-x="590" 
d="M402 490h116v-490h-116v65c-30 -46 -81 -77 -149 -77c-116 0 -187 80 -187 207v295h116v-273c0 -76 39 -122 106 -122c69 0 114 53 114 137v258zM127 583c-1 81 43 119 101 119c68 0 90 -48 127 -48c24 0 37 18 37 44h72c1 -82 -43 -119 -101 -119c-68 0 -90 48 -127 48
c-25 0 -37 -18 -37 -44h-72z" />
    <glyph glyph-name="wacute" unicode="&#x1e83;" horiz-adv-x="808" 
d="M519 0l-115 331l-116 -331h-93l-178 490h119l112 -332l115 332h85l115 -332l112 332h116l-178 -490h-94zM357 575l96 143h127l-121 -143h-102z" />
    <glyph glyph-name="wcircumflex" unicode="&#x175;" horiz-adv-x="808" 
d="M519 0l-115 331l-116 -331h-93l-178 490h119l112 -332l115 332h85l115 -332l112 332h116l-178 -490h-94zM251 575l111 143h90l110 -143h-106l-51 68l-50 -68h-104z" />
    <glyph glyph-name="wdieresis" unicode="&#x1e85;" horiz-adv-x="808" 
d="M519 0l-115 331l-116 -331h-93l-178 490h119l112 -332l115 332h85l115 -332l112 332h116l-178 -490h-94zM248 633c0 34 28 62 61 62c36 0 63 -29 63 -62s-28 -62 -63 -62c-33 0 -61 28 -61 62zM439 633c0 34 28 62 62 62c35 0 62 -29 62 -62s-28 -62 -62 -62
s-62 28 -62 62z" />
    <glyph glyph-name="wdieresis.square" horiz-adv-x="808" 
d="M519 0l-115 331l-116 -331h-93l-178 490h119l112 -332l115 332h85l115 -332l112 332h116l-178 -490h-94zM255 576v117h108v-117h-108zM448 576v117h108v-117h-108z" />
    <glyph glyph-name="wgrave" unicode="&#x1e81;" horiz-adv-x="808" 
d="M519 0l-115 331l-116 -331h-93l-178 490h119l112 -332l115 332h85l115 -332l112 332h116l-178 -490h-94zM231 718h127l95 -143h-101z" />
    <glyph glyph-name="yacute" unicode="&#xfd;" horiz-adv-x="542" 
d="M116 -222c-30 0 -52 7 -68 14v99c14 -6 32 -10 51 -10c41 0 67 20 90 75l21 51l-196 483h123l134 -353l138 353h119l-227 -549c-48 -116 -102 -163 -185 -163zM217 575l96 143h127l-121 -143h-102z" />
    <glyph glyph-name="ycircumflex" unicode="&#x177;" horiz-adv-x="542" 
d="M116 -222c-30 0 -52 7 -68 14v99c14 -6 32 -10 51 -10c41 0 67 20 90 75l21 51l-196 483h123l134 -353l138 353h119l-227 -549c-48 -116 -102 -163 -185 -163zM117 575l111 143h90l110 -143h-106l-51 68l-50 -68h-104z" />
    <glyph glyph-name="ydieresis" unicode="&#xff;" horiz-adv-x="542" 
d="M116 -222c-30 0 -52 7 -68 14v99c14 -6 32 -10 51 -10c41 0 67 20 90 75l21 51l-196 483h123l134 -353l138 353h119l-227 -549c-48 -116 -102 -163 -185 -163zM114 633c0 34 28 62 61 62c36 0 63 -29 63 -62s-28 -62 -63 -62c-33 0 -61 28 -61 62zM305 633
c0 34 28 62 62 62c35 0 62 -29 62 -62s-28 -62 -62 -62s-62 28 -62 62z" />
    <glyph glyph-name="ydieresis.square" horiz-adv-x="542" 
d="M116 -222c-30 0 -52 7 -68 14v99c14 -6 32 -10 51 -10c41 0 67 20 90 75l21 51l-196 483h123l134 -353l138 353h119l-227 -549c-48 -116 -102 -163 -185 -163zM121 576v117h108v-117h-108zM314 576v117h108v-117h-108z" />
    <glyph glyph-name="ygrave" unicode="&#x1ef3;" horiz-adv-x="542" 
d="M116 -222c-30 0 -52 7 -68 14v99c14 -6 32 -10 51 -10c41 0 67 20 90 75l21 51l-196 483h123l134 -353l138 353h119l-227 -549c-48 -116 -102 -163 -185 -163zM106 718h127l95 -143h-101z" />
    <glyph glyph-name="ij" unicode="&#x133;" horiz-adv-x="523" 
d="M72 0v490h116v-490h-116zM58 633c0 40 32 72 71 72c41 0 72 -33 72 -72c0 -38 -31 -71 -72 -71c-39 0 -71 32 -71 71zM217 -210v101c12 -6 29 -9 46 -9c45 0 72 33 72 91v517h116v-521c0 -126 -66 -191 -168 -191c-31 0 -50 6 -66 12zM321 633c0 40 32 72 71 72
c41 0 72 -33 72 -72c0 -38 -31 -71 -72 -71c-39 0 -71 32 -71 71z" />
    <glyph glyph-name="ij.square" horiz-adv-x="523" 
d="M72 571v123h116v-123h-116zM72 0v490h116v-490h-116zM217 -210v101c12 -6 29 -9 46 -9c45 0 72 33 72 91v517h116v-521c0 -126 -66 -191 -168 -191c-31 0 -50 6 -66 12zM335 571v123h116v-123h-116z" />
    <glyph glyph-name="zacute" unicode="&#x17a;" horiz-adv-x="469" 
d="M439 420l-261 -323h265v-97h-416v72l259 321h-243v97h396v-70zM182 575l96 143h127l-121 -143h-102z" />
    <glyph glyph-name="zcaron" unicode="&#x17e;" horiz-adv-x="469" 
d="M439 420l-261 -323h265v-97h-416v72l259 321h-243v97h396v-70zM95 718h106l51 -68l51 68h103l-110 -143h-90z" />
    <glyph glyph-name="zdotaccent" unicode="&#x17c;" horiz-adv-x="469" 
d="M439 420l-261 -323h265v-97h-416v72l259 321h-243v97h396v-70zM179 633c0 40 32 72 71 72c41 0 72 -33 72 -72c0 -38 -31 -71 -72 -71c-39 0 -71 32 -71 71z" />
    <glyph glyph-name="zdotaccent.square" horiz-adv-x="469" 
d="M439 420l-261 -323h265v-97h-416v72l259 321h-243v97h396v-70zM193 571v123h116v-123h-116z" />
    <glyph glyph-name="thorn" unicode="&#xfe;" horiz-adv-x="632" 
d="M187 420c36 50 98 82 166 82c135 0 239 -111 239 -257c0 -144 -104 -257 -239 -257c-68 0 -130 29 -166 79v-275h-115v908h115v-280zM182 245c0 -85 64 -152 147 -152s147 67 147 152s-64 152 -147 152s-147 -67 -147 -152z" />
    <glyph glyph-name="i.square" horiz-adv-x="260" 
d="M72 571v123h116v-123h-116zM72 0v490h116v-490h-116z" />
    <glyph glyph-name="j.square" horiz-adv-x="263" 
d="M75 490h116v-521c0 -126 -66 -191 -168 -191c-31 0 -50 6 -66 12v101c12 -6 29 -9 46 -9c45 0 72 33 72 91v517zM75 571v123h116v-123h-116z" />
    <glyph glyph-name="aring.alt" horiz-adv-x="629" 
d="M559 490v-490h-114v71c-36 -51 -98 -83 -166 -83c-135 0 -239 112 -239 257s104 257 239 257c68 0 130 -28 166 -79v67h114zM156 245c0 -85 64 -152 147 -152s147 67 147 152s-64 152 -147 152s-147 -67 -147 -152zM201 653c0 56 46 98 103 98s103 -42 103 -98
s-46 -98 -103 -98s-103 42 -103 98zM266 653c0 -21 17 -38 38 -38s38 17 38 38s-17 38 -38 38s-38 -17 -38 -38z" />
    <glyph glyph-name="aacute.alt" horiz-adv-x="629" 
d="M559 490v-490h-114v71c-36 -51 -98 -83 -166 -83c-135 0 -239 112 -239 257s104 257 239 257c68 0 130 -28 166 -79v67h114zM156 245c0 -85 64 -152 147 -152s147 67 147 152s-64 152 -147 152s-147 -67 -147 -152zM244 575l96 143h127l-121 -143h-102z" />
    <glyph glyph-name="abreve.alt" horiz-adv-x="629" 
d="M559 490v-490h-114v71c-36 -51 -98 -83 -166 -83c-135 0 -239 112 -239 257s104 257 239 257c68 0 130 -28 166 -79v67h114zM156 245c0 -85 64 -152 147 -152s147 67 147 152s-64 152 -147 152s-147 -67 -147 -152zM161 713h82c2 -39 26 -63 61 -63c34 0 58 24 60 63h82
c0 -83 -60 -139 -142 -139c-83 0 -143 56 -143 139z" />
    <glyph glyph-name="acircumflex.alt" horiz-adv-x="629" 
d="M559 490v-490h-114v71c-36 -51 -98 -83 -166 -83c-135 0 -239 112 -239 257s104 257 239 257c68 0 130 -28 166 -79v67h114zM150 575l111 143h90l110 -143h-106l-51 68l-50 -68h-104zM156 245c0 -85 64 -152 147 -152s147 67 147 152s-64 152 -147 152
s-147 -67 -147 -152z" />
    <glyph glyph-name="adieresis.alt" horiz-adv-x="629" 
d="M559 490v-490h-114v71c-36 -51 -98 -83 -166 -83c-135 0 -239 112 -239 257s104 257 239 257c68 0 130 -28 166 -79v67h114zM147 633c0 34 28 62 61 62c36 0 63 -29 63 -62s-28 -62 -63 -62c-33 0 -61 28 -61 62zM156 245c0 -85 64 -152 147 -152s147 67 147 152
s-64 152 -147 152s-147 -67 -147 -152zM338 633c0 34 28 62 62 62c35 0 62 -29 62 -62s-28 -62 -62 -62s-62 28 -62 62z" />
    <glyph glyph-name="adieresisalt.square" horiz-adv-x="629" 
d="M559 490v-490h-114v71c-36 -51 -98 -83 -166 -83c-135 0 -239 112 -239 257s104 257 239 257c68 0 130 -28 166 -79v67h114zM156 245c0 -85 64 -152 147 -152s147 67 147 152s-64 152 -147 152s-147 -67 -147 -152zM157 576v117h108v-117h-108zM350 576v117h108v-117
h-108z" />
    <glyph glyph-name="agrave.alt" horiz-adv-x="629" 
d="M559 490v-490h-114v71c-36 -51 -98 -83 -166 -83c-135 0 -239 112 -239 257s104 257 239 257c68 0 130 -28 166 -79v67h114zM156 245c0 -85 64 -152 147 -152s147 67 147 152s-64 152 -147 152s-147 -67 -147 -152zM156 718h127l95 -143h-101z" />
    <glyph glyph-name="amacron.alt" horiz-adv-x="629" 
d="M559 490v-490h-114v71c-36 -51 -98 -83 -166 -83c-135 0 -239 112 -239 257s104 257 239 257c68 0 130 -28 166 -79v67h114zM156 245c0 -85 64 -152 147 -152s147 67 147 152s-64 152 -147 152s-147 -67 -147 -152zM163 591v77h288v-77h-288z" />
    <glyph glyph-name="aogonek.alt" horiz-adv-x="629" 
d="M559 0c-60 -15 -111 -54 -111 -95c0 -24 16 -36 42 -36c16 0 32 4 46 13v-74c-19 -9 -42 -14 -67 -14c-67 0 -109 37 -109 92c0 46 28 84 85 114v71c-36 -51 -98 -83 -166 -83c-135 0 -239 112 -239 257s104 257 239 257c68 0 130 -28 166 -79v67h114v-490zM156 245
c0 -85 64 -152 147 -152s147 67 147 152s-64 152 -147 152s-147 -67 -147 -152z" />
    <glyph glyph-name="atilde.alt" horiz-adv-x="629" 
d="M559 490v-490h-114v71c-36 -51 -98 -83 -166 -83c-135 0 -239 112 -239 257s104 257 239 257c68 0 130 -28 166 -79v67h114zM145 583c-1 81 43 119 101 119c68 0 90 -48 127 -48c24 0 37 18 37 44h72c1 -82 -43 -119 -101 -119c-68 0 -90 48 -127 48
c-25 0 -37 -18 -37 -44h-72zM156 245c0 -85 64 -152 147 -152s147 67 147 152s-64 152 -147 152s-147 -67 -147 -152z" />
    <glyph glyph-name="tbar.alt" horiz-adv-x="324" 
d="M17 311h83v81h-83v98h83v145h116v-145h95v-98h-95v-81h95v-90h-95v-221h-116v221h-83v90z" />
    <glyph glyph-name="tcaron.alt" horiz-adv-x="324" 
d="M270 545l30 167h115l-48 -167h-97zM17 392v98h83v145h116v-145h95v-98h-95v-392h-116v392h-83z" />
    <glyph glyph-name="uni021B.alt" horiz-adv-x="324" 
d="M144 -167c-28 1 -51 24 -51 53c0 38 30 64 65 64c38 0 66 -26 66 -63c0 -19 -7 -38 -15 -55l-35 -72h-66l38 73h-2zM17 392v98h83v145h116v-145h95v-98h-95v-392h-116v392h-83z" />
    <glyph glyph-name="tcommaaccentalt.square" horiz-adv-x="324" 
d="M104 -54h109v-108c0 -63 -37 -88 -90 -89c-10 0 -15 1 -17 1v52c1 0 5 -1 9 -1c22 1 37 12 37 32v7h-48v106zM17 392v98h83v145h116v-145h95v-98h-95v-392h-116v392h-83z" />
    <glyph glyph-name="uacute.alt" horiz-adv-x="568" 
d="M220 575l96 143h127l-121 -143h-102zM66 211v279h116v-272c0 -77 38 -123 102 -123s102 46 102 123v272h116v-279c0 -140 -83 -223 -218 -223s-218 83 -218 223z" />
    <glyph glyph-name="ubreve.alt" horiz-adv-x="568" 
d="M284 650c34 0 58 24 60 63h82c0 -83 -60 -139 -142 -139c-83 0 -143 56 -143 139h82c2 -39 26 -63 61 -63zM66 211v279h116v-272c0 -77 38 -123 102 -123s102 46 102 123v272h116v-279c0 -140 -83 -223 -218 -223s-218 83 -218 223z" />
    <glyph glyph-name="ucircumflex.alt" horiz-adv-x="568" 
d="M128 575l111 143h90l110 -143h-106l-51 68l-50 -68h-104zM66 211v279h116v-272c0 -77 38 -123 102 -123s102 46 102 123v272h116v-279c0 -140 -83 -223 -218 -223s-218 83 -218 223z" />
    <glyph glyph-name="udieresis.alt" horiz-adv-x="568" 
d="M250 633c0 -33 -28 -62 -63 -62c-33 0 -61 28 -61 62s28 62 61 62c36 0 63 -29 63 -62zM66 211v279h116v-272c0 -77 38 -123 102 -123s102 46 102 123v272h116v-279c0 -140 -83 -223 -218 -223s-218 83 -218 223zM317 633c0 34 28 62 62 62c35 0 62 -29 62 -62
s-28 -62 -62 -62s-62 28 -62 62z" />
    <glyph glyph-name="udieresisalt.square" horiz-adv-x="568" 
d="M133 576v117h108v-117h-108zM66 211v279h116v-272c0 -77 38 -123 102 -123s102 46 102 123v272h116v-279c0 -140 -83 -223 -218 -223s-218 83 -218 223zM326 576v117h108v-117h-108z" />
    <glyph glyph-name="ugrave.alt" horiz-adv-x="568" 
d="M244 575l-121 143h127l95 -143h-101zM66 211v279h116v-272c0 -77 38 -123 102 -123s102 46 102 123v272h116v-279c0 -140 -83 -223 -218 -223s-218 83 -218 223z" />
    <glyph glyph-name="uhungarumlaut.alt" horiz-adv-x="568" 
d="M141 572l86 142h112l-107 -142h-91zM66 211v279h116v-272c0 -77 38 -123 102 -123s102 46 102 123v272h116v-279c0 -140 -83 -223 -218 -223s-218 83 -218 223zM313 572l86 142h111l-106 -142h-91z" />
    <glyph glyph-name="umacron.alt" horiz-adv-x="568" 
d="M284 -12c-135 0 -218 83 -218 223v279h116v-272c0 -77 38 -123 102 -123s102 46 102 123v272h116v-279c0 -140 -83 -223 -218 -223zM140 590v77h288v-77h-288z" />
    <glyph glyph-name="uogonek.alt" horiz-adv-x="568" 
d="M210 -113c0 39 20 74 59 102c-127 6 -203 89 -203 222v279h116v-272c0 -77 38 -123 102 -123s102 46 102 123v272h116v-279c0 -102 -46 -172 -121 -207c-49 -23 -83 -61 -83 -99c0 -24 16 -36 42 -36c16 0 32 4 46 13v-74c-19 -9 -42 -14 -66 -14c-68 0 -110 37 -110 93z
" />
    <glyph glyph-name="uring.alt" horiz-adv-x="568" 
d="M181 653c0 56 46 98 103 98s103 -42 103 -98s-46 -98 -103 -98s-103 42 -103 98zM66 211v279h116v-272c0 -77 38 -123 102 -123s102 46 102 123v272h116v-279c0 -140 -83 -223 -218 -223s-218 83 -218 223zM246 653c0 -21 17 -38 38 -38s38 17 38 38s-17 38 -38 38
s-38 -17 -38 -38z" />
    <glyph glyph-name="utilde.alt" horiz-adv-x="568" 
d="M119 583c-1 81 43 119 101 119c68 0 90 -48 127 -48c24 0 37 18 37 44h72c1 -82 -43 -119 -101 -119c-68 0 -90 48 -127 48c-25 0 -37 -18 -37 -44h-72zM66 211v279h116v-272c0 -77 38 -123 102 -123s102 46 102 123v272h116v-279c0 -140 -83 -223 -218 -223
s-218 83 -218 223z" />
    <glyph glyph-name="ordfeminine" unicode="&#xaa;" horiz-adv-x="414" 
d="M155 290c-72 0 -120 44 -120 109c0 67 47 109 137 120l95 12v12c0 34 -26 55 -65 55c-36 0 -60 -16 -72 -50l-81 24c18 64 76 104 153 104c98 0 155 -53 155 -139v-238h-87v44c-26 -33 -69 -53 -115 -53zM125 402c0 -24 20 -38 51 -38c52 0 91 34 91 82v18l-76 -10
c-42 -5 -66 -24 -66 -52z" />
    <glyph glyph-name="ordfeminine.alt" horiz-adv-x="492" 
d="M213 290c-101 0 -179 83 -179 193s78 192 179 192c53 0 99 -22 124 -56v48h92v-368h-92v52c-25 -37 -72 -61 -124 -61zM126 483c0 -61 46 -109 107 -109c60 0 107 48 107 109s-47 109 -107 109c-61 0 -107 -48 -107 -109z" />
    <glyph glyph-name="ordmasculine" unicode="&#xba;" horiz-adv-x="459" 
d="M230 676c108 0 195 -85 195 -193s-87 -193 -195 -193c-109 0 -196 85 -196 193s87 193 196 193zM126 483c0 -60 46 -108 104 -108c57 0 104 48 104 108s-47 108 -104 108c-58 0 -104 -48 -104 -108z" />
    <glyph glyph-name="a.superior" horiz-adv-x="414" 
d="M35 399c0 67 47 109 137 120l95 12v12c0 34 -26 55 -65 55c-36 0 -60 -16 -72 -50l-81 24c18 64 76 104 153 104c98 0 155 -53 155 -139v-238h-87v44c-26 -33 -69 -53 -115 -53c-72 0 -120 44 -120 109zM125 402c0 -24 20 -38 51 -38c52 0 91 34 91 82v18l-76 -10
c-42 -6 -66 -24 -66 -52z" />
    <glyph glyph-name="b.superior" horiz-adv-x="491" 
d="M154 618c26 34 71 57 123 57c103 0 180 -83 180 -192s-78 -193 -180 -193c-52 0 -97 24 -123 60v-51h-92v524h92v-205zM152 483c0 -61 46 -109 106 -109c61 0 107 48 107 109s-46 109 -107 109c-60 0 -106 -48 -106 -109z" />
    <glyph glyph-name="c.superior" horiz-adv-x="364" 
d="M34 483c0 110 81 193 196 193c35 0 70 -9 98 -27v-87c-29 21 -58 30 -89 30c-64 0 -112 -46 -112 -110c0 -61 47 -108 112 -108c32 0 64 12 91 30v-87c-31 -18 -66 -27 -101 -27c-114 0 -195 81 -195 193z" />
    <glyph glyph-name="d.superior" horiz-adv-x="492" 
d="M233 374c60 0 107 48 107 109s-47 109 -107 109c-61 0 -107 -48 -107 -109s46 -109 107 -109zM34 483c0 109 78 192 180 192c52 0 98 -22 123 -55v203h93v-524h-93v52c-25 -37 -71 -61 -123 -61c-102 0 -180 84 -180 193z" />
    <glyph glyph-name="e.superior" horiz-adv-x="437" 
d="M223 676c108 0 184 -82 184 -194c0 -13 -1 -22 -1 -25h-281c4 -53 50 -90 102 -90c47 0 71 20 91 52l77 -33c-31 -59 -89 -96 -168 -96c-112 0 -193 79 -193 193c0 110 82 193 189 193zM126 521h191c-6 47 -44 80 -96 80c-49 0 -90 -40 -95 -80z" />
    <glyph glyph-name="f.superior" horiz-adv-x="281" 
d="M166 667h99v-78h-99v-290h-92v290h-55v78h55v23c0 96 57 147 142 147c26 0 46 -4 59 -10v-79c-11 5 -25 8 -43 8c-37 0 -66 -18 -66 -66v-23z" />
    <glyph glyph-name="g.superior" horiz-adv-x="485" 
d="M331 359c-24 -33 -69 -56 -120 -56c-101 0 -177 80 -177 185c0 106 76 187 177 187c51 0 96 -23 120 -59v51h92v-346c0 -113 -75 -190 -197 -190c-83 0 -148 35 -180 97l73 45c22 -39 61 -63 108 -63c64 0 104 43 104 112v37zM126 488c0 -59 45 -105 104 -105
c58 0 104 46 104 105s-46 104 -104 104c-59 0 -104 -45 -104 -104z" />
    <glyph glyph-name="h.superior" horiz-adv-x="466" 
d="M154 299h-92v524h92v-206c23 36 61 59 113 59c89 0 142 -60 142 -154v-223h-93v205c0 54 -28 87 -78 87c-51 0 -84 -38 -84 -98v-194z" />
    <glyph glyph-name="i.superior" horiz-adv-x="217" 
d="M62 299v368h93v-368h-93zM52 774c0 29 24 55 56 55s56 -26 56 -55c0 -30 -24 -56 -56 -56s-56 26 -56 56z" />
    <glyph glyph-name="j.superior" horiz-adv-x="194" 
d="M132 281c0 -98 -51 -147 -129 -147c-25 0 -40 4 -52 9v79c9 -5 23 -6 33 -6c37 0 55 25 55 69v382h93v-386zM29 774c0 29 24 55 56 55s56 -26 56 -55c0 -30 -24 -56 -56 -56s-56 26 -56 56z" />
    <glyph glyph-name="k.superior" horiz-adv-x="420" 
d="M154 530l135 137h113l-160 -161l172 -207h-114l-130 163l-16 -14v-149h-92v524h92v-293z" />
    <glyph glyph-name="l.superior" horiz-adv-x="216" 
d="M154 823v-524h-92v524h92z" />
    <glyph glyph-name="m.superior" horiz-adv-x="685" 
d="M154 299h-92v368h92v-48c20 35 56 57 106 57c53 0 91 -25 112 -67c21 36 62 67 122 67c86 0 134 -59 134 -150v-227h-92v209c0 51 -25 83 -69 83c-45 0 -75 -35 -76 -93v-199h-92v206c0 53 -25 86 -69 86c-46 0 -76 -37 -76 -97v-195z" />
    <glyph glyph-name="uni207F" unicode="&#x207f;" horiz-adv-x="466" 
d="M154 299h-92v368h92v-50c23 36 61 59 113 59c89 0 142 -60 142 -154v-223h-93v204c0 55 -28 88 -78 88c-51 0 -84 -38 -84 -98v-194z" />
    <glyph glyph-name="o.superior" horiz-adv-x="459" 
d="M230 676c108 0 195 -85 195 -193s-87 -193 -195 -193c-109 0 -196 85 -196 193s87 193 196 193zM126 483c0 -60 46 -108 104 -108c57 0 104 48 104 108s-47 108 -104 108c-58 0 -104 -48 -104 -108z" />
    <glyph glyph-name="p.superior" horiz-adv-x="491" 
d="M62 144v523h92v-52c26 37 71 60 123 60c103 0 180 -83 180 -192s-78 -193 -180 -193c-52 0 -97 23 -123 56v-202h-92zM152 483c0 -61 46 -109 106 -109c61 0 107 48 107 109s-46 109 -107 109c-60 0 -106 -48 -106 -109z" />
    <glyph glyph-name="q.superior" horiz-adv-x="492" 
d="M233 374c60 0 107 48 107 109s-47 109 -107 109c-61 0 -107 -48 -107 -109s46 -109 107 -109zM34 483c0 109 78 192 180 192c52 0 98 -23 123 -59v51h93v-523h-93v204c-25 -34 -71 -58 -123 -58c-102 0 -180 84 -180 193z" />
    <glyph glyph-name="r.superior" horiz-adv-x="297" 
d="M279 578c-3 1 -12 3 -24 3c-74 0 -101 -58 -101 -144v-138h-92v368h91v-62c18 42 61 69 109 69c9 0 16 -1 17 -2v-94z" />
    <glyph glyph-name="s.superior" horiz-adv-x="336" 
d="M309 408c0 -73 -62 -118 -139 -118c-71 0 -128 38 -146 96l75 33c14 -31 41 -53 72 -53c29 0 51 13 51 38c0 20 -14 29 -43 38l-45 14c-67 21 -96 58 -96 108c0 66 55 112 129 112c61 0 113 -30 136 -85l-75 -36c-13 27 -34 47 -61 47c-24 0 -42 -13 -42 -32
c0 -17 12 -29 42 -39l41 -13c67 -21 101 -58 101 -110z" />
    <glyph glyph-name="t.superior" horiz-adv-x="287" 
d="M164 775v-108h97v-78h-97v-157c0 -40 18 -58 56 -58c14 0 30 4 41 11v-81c-14 -7 -37 -14 -68 -14c-76 0 -121 46 -121 124v175h-55v78h55v108h92z" />
    <glyph glyph-name="u.superior" horiz-adv-x="464" 
d="M309 667h93v-368h-93v50c-22 -36 -60 -59 -111 -59c-89 0 -141 60 -141 154v223h92v-204c0 -55 28 -88 78 -88c49 0 82 38 82 98v194z" />
    <glyph glyph-name="v.superior" horiz-adv-x="411" 
d="M12 667h98l97 -249l96 249h96l-153 -368h-82z" />
    <glyph glyph-name="w.superior" horiz-adv-x="618" 
d="M394 299l-85 243l-85 -243h-75l-134 368h94l82 -242l85 242h68l85 -242l82 242h92l-134 -368h-75z" />
    <glyph glyph-name="x.superior" horiz-adv-x="408" 
d="M203 421l-88 -122h-103l138 187l-132 181h107l80 -114l82 114h103l-131 -179l137 -189h-107z" />
    <glyph glyph-name="y.superior" horiz-adv-x="419" 
d="M92 134c-24 0 -42 5 -54 11v78c11 -5 25 -8 40 -8c30 0 52 15 68 54l15 35l-149 363h98l100 -260l101 260h96l-156 -371c-47 -116 -85 -162 -159 -162z" />
    <glyph glyph-name="z.superior" horiz-adv-x="363" 
d="M337 610l-192 -234h195v-77h-317v58l191 233h-179v77h302v-57z" />
    <glyph glyph-name="aalt.superior" horiz-adv-x="492" 
d="M429 667v-368h-92v52c-25 -37 -72 -61 -124 -61c-101 0 -179 83 -179 193s78 192 179 192c53 0 99 -22 124 -56v48h92zM126 483c0 -61 46 -109 107 -109c60 0 107 48 107 109s-47 109 -107 109c-61 0 -107 -48 -107 -109z" />
    <glyph glyph-name="talt.superior" horiz-adv-x="253" 
d="M77 299v290h-62v78h62v108h92v-108h72v-78h-72v-290h-92z" />
    <glyph glyph-name="ualt.superior" horiz-adv-x="447" 
d="M223 290c-103 0 -166 62 -166 166v211h93v-205c0 -54 27 -87 73 -87s74 33 74 87v205h93v-211c0 -104 -64 -166 -167 -166z" />
    <glyph glyph-name="isquare.superior" horiz-adv-x="217" 
d="M62 299v368h93v-368h-93zM62 725v97h93v-97h-93z" />
    <glyph glyph-name="jsquare.superior" horiz-adv-x="194" 
d="M39 667h93v-386c0 -98 -51 -147 -129 -147c-25 0 -40 4 -52 9v79c9 -5 23 -6 33 -6c37 0 55 25 55 69v382zM39 725v97h93v-97h-93z" />
    <glyph glyph-name="fi" unicode="&#xfb01;" horiz-adv-x="624" 
d="M211 490h132v-98h-132v-392h-116v392h-73v98h73v29c0 130 76 199 187 199c33 0 58 -6 75 -14v-102c-15 8 -34 14 -58 14c-50 0 -88 -27 -88 -96v-30zM422 633c0 40 32 72 71 72c41 0 72 -33 72 -72c0 -38 -31 -71 -72 -71c-39 0 -71 32 -71 71zM436 0v490h116v-490h-116z
" />
    <glyph glyph-name="fl" unicode="&#xfb02;" horiz-adv-x="623" 
d="M211 490h132v-98h-132v-392h-116v392h-73v98h73v29c0 130 76 199 187 199c33 0 58 -6 75 -14v-102c-15 8 -34 14 -58 14c-50 0 -88 -27 -88 -96v-30zM435 0v700h116v-700h-116z" />
    <glyph glyph-name="ampersand" unicode="&#x26;" horiz-adv-x="723" 
d="M468 95c-66 -73 -142 -107 -227 -107c-119 0 -203 77 -203 187c0 81 43 146 137 209c-52 53 -74 103 -74 157c0 97 79 172 184 172c100 0 176 -71 176 -164c0 -66 -34 -119 -117 -179l120 -120l116 135l81 -67l-120 -141l178 -177h-157zM154 183c0 -51 44 -90 100 -90
c48 0 92 25 135 75l1 1l-142 143c-44 -28 -94 -72 -94 -129zM211 544c0 -32 18 -62 61 -105c58 39 83 73 83 108c0 38 -32 70 -73 70c-39 0 -71 -33 -71 -73z" />
    <glyph glyph-name="acute" unicode="&#xb4;" horiz-adv-x="500" 
d="M159 575l96 143h127l-121 -143h-102z" />
    <glyph glyph-name="breve" unicode="&#x2d8;" horiz-adv-x="500" 
d="M250 650c34 0 58 24 60 63h82c0 -83 -60 -139 -142 -139c-83 0 -143 56 -143 139h82c2 -39 26 -63 61 -63z" />
    <glyph glyph-name="caron" unicode="&#x2c7;" horiz-adv-x="500" 
d="M405 718l-110 -143h-90l-111 143h106l51 -68l51 68h103z" />
    <glyph glyph-name="caronSlovak" horiz-adv-x="500" 
d="M177 545l30 167h115l-48 -167h-97z" />
    <glyph glyph-name="cedilla" unicode="&#xb8;" horiz-adv-x="500" 
d="M261 -47c51 0 88 -36 88 -85c0 -54 -43 -93 -101 -93c-56 0 -95 36 -101 83h70c3 -11 14 -24 32 -24c20 0 33 14 33 32s-14 31 -32 31c-12 0 -22 -6 -29 -14l-59 32l36 85h68l-24 -50c4 2 13 3 19 3z" />
    <glyph glyph-name="circumflex" unicode="&#x2c6;" horiz-adv-x="500" 
d="M94 575l111 143h90l110 -143h-106l-51 68l-50 -68h-104z" />
    <glyph glyph-name="uniF6C3" unicode="&#xf6c3;" horiz-adv-x="500" 
d="M235 -167c-28 1 -51 24 -51 53c0 38 30 64 65 64c38 0 66 -26 66 -63c0 -19 -7 -38 -15 -55l-35 -72h-66l38 73h-2z" />
    <glyph glyph-name="uni0326.square" horiz-adv-x="0" 
d="M195 -54h109v-108c0 -63 -37 -88 -90 -89c-10 0 -15 1 -17 1v52c1 0 5 -1 9 -1c22 1 37 12 37 32v7h-48v106z" />
    <glyph glyph-name="dieresis" unicode="&#xa8;" horiz-adv-x="500" 
d="M216 633c0 -33 -28 -62 -63 -62c-33 0 -61 28 -61 62s28 62 61 62c36 0 63 -29 63 -62zM283 633c0 34 28 62 62 62c35 0 62 -29 62 -62s-28 -62 -62 -62s-62 28 -62 62z" />
    <glyph glyph-name="dieresis.square" horiz-adv-x="500" 
d="M99 576v117h108v-117h-108zM292 576v117h108v-117h-108z" />
    <glyph glyph-name="dotaccent" unicode="&#x2d9;" horiz-adv-x="500" 
d="M321 633c0 -38 -31 -71 -72 -71c-39 0 -71 32 -71 71c0 40 32 72 71 72c41 0 72 -33 72 -72z" />
    <glyph glyph-name="dotaccent.square" horiz-adv-x="500" 
d="M192 571v123h116v-123h-116z" />
    <glyph glyph-name="grave" unicode="`" horiz-adv-x="500" 
d="M238 575l-121 143h127l95 -143h-101z" />
    <glyph glyph-name="hungarumlaut" unicode="&#x2dd;" horiz-adv-x="500" 
d="M83 572l86 142h112l-107 -142h-91zM255 572l86 142h111l-106 -142h-91z" />
    <glyph glyph-name="macron" unicode="&#xaf;" horiz-adv-x="500" 
d="M106 590v77h288v-77h-288z" />
    <glyph glyph-name="ogonek" unicode="&#x2db;" horiz-adv-x="500" 
d="M350 0c-60 -15 -111 -54 -111 -95c0 -24 16 -36 42 -36c16 0 32 4 46 13v-74c-19 -9 -42 -14 -67 -14c-67 0 -109 37 -109 92c0 46 28 84 85 114h114z" />
    <glyph glyph-name="ring" unicode="&#x2da;" horiz-adv-x="500" 
d="M147 653c0 56 46 98 103 98s103 -42 103 -98s-46 -98 -103 -98s-103 42 -103 98zM212 653c0 -21 17 -38 38 -38s38 17 38 38s-17 38 -38 38s-38 -17 -38 -38z" />
    <glyph glyph-name="tilde" unicode="&#x2dc;" horiz-adv-x="500" 
d="M81 583c-1 81 43 119 101 119c68 0 90 -48 127 -48c24 0 37 18 37 44h72c1 -82 -43 -119 -101 -119c-68 0 -90 48 -127 48c-25 0 -37 -18 -37 -44h-72z" />
    <glyph glyph-name="uni0312" unicode="&#x312;" horiz-adv-x="0" 
d="M300 752l-37 -72h1c28 -1 51 -24 51 -55c0 -37 -28 -63 -64 -63s-66 27 -66 63c0 21 7 39 18 61l33 66h64z" />
    <glyph glyph-name="uni0312.square" horiz-adv-x="0" 
d="M304 567h-109v110c0 63 37 88 90 89c10 0 15 -1 17 -1v-53c-2 1 -5 1 -10 1c-22 0 -36 -11 -36 -32v-6h48v-108z" />
    <glyph glyph-name="acute.cap" horiz-adv-x="500" 
d="M159 755l96 143h127l-121 -143h-102z" />
    <glyph glyph-name="breve.cap" horiz-adv-x="500" 
d="M250 832c34 0 58 24 60 63h82c0 -83 -60 -139 -142 -139c-83 0 -143 56 -143 139h82c2 -39 26 -63 61 -63z" />
    <glyph glyph-name="caron.cap" horiz-adv-x="500" 
d="M405 898l-110 -143h-90l-111 143h106l51 -68l51 68h103z" />
    <glyph glyph-name="circumflex.cap" horiz-adv-x="500" 
d="M94 755l111 143h90l110 -143h-106l-51 67l-50 -67h-104z" />
    <glyph glyph-name="dieresis.cap" horiz-adv-x="500" 
d="M216 827c0 -34 -28 -62 -63 -62c-33 0 -61 28 -61 62c0 33 28 61 61 61c36 0 63 -29 63 -61zM283 827c0 33 28 61 62 61c35 0 62 -29 62 -61c0 -34 -28 -62 -62 -62s-62 28 -62 62z" />
    <glyph glyph-name="dieresiscap.square" horiz-adv-x="500" 
d="M99 768v116h108v-116h-108zM292 768v116h108v-116h-108z" />
    <glyph glyph-name="dotaccent.cap" horiz-adv-x="500" 
d="M318 832c0 -37 -30 -68 -69 -68c-37 0 -68 30 -68 68s31 69 68 69c39 0 69 -32 69 -69z" />
    <glyph glyph-name="dotaccentcap.square" horiz-adv-x="500" 
d="M192 769v120h116v-120h-116z" />
    <glyph glyph-name="grave.cap" horiz-adv-x="500" 
d="M238 755l-121 143h127l95 -143h-101z" />
    <glyph glyph-name="hungarumlaut.cap" horiz-adv-x="500" 
d="M80 755l87 143h112l-107 -143h-92zM253 755l86 143h112l-107 -143h-91z" />
    <glyph glyph-name="macron.cap" horiz-adv-x="500" 
d="M106 772v77h288v-77h-288z" />
    <glyph glyph-name="ring.cap" horiz-adv-x="500" 
d="M147 833c0 56 46 98 103 98s103 -42 103 -98s-46 -98 -103 -98s-103 42 -103 98zM212 833c0 -21 17 -38 38 -38s38 17 38 38s-17 38 -38 38s-38 -17 -38 -38z" />
    <glyph glyph-name="tilde.cap" horiz-adv-x="500" 
d="M80 765c-1 81 43 119 101 119c68 0 90 -48 127 -48c24 0 37 18 37 44h72c1 -82 -43 -119 -101 -119c-68 0 -90 48 -127 48c-25 0 -37 -18 -37 -44h-72z" />
    <glyph glyph-name="period" unicode="." horiz-adv-x="268" 
d="M59 63c0 41 32 74 75 74s75 -33 75 -74s-32 -74 -75 -74s-75 33 -75 74z" />
    <glyph glyph-name="comma" unicode="," horiz-adv-x="268" 
d="M65 -108l56 108h-1c-34 0 -61 28 -61 63c0 43 34 74 75 74c42 0 75 -32 75 -74c0 -23 -7 -44 -21 -71l-50 -100h-73z" />
    <glyph glyph-name="colon" unicode=":" horiz-adv-x="268" 
d="M59 411c0 41 32 74 75 74s75 -33 75 -74s-32 -74 -75 -74s-75 33 -75 74zM59 63c0 41 32 74 75 74s75 -33 75 -74s-32 -74 -75 -74s-75 33 -75 74z" />
    <glyph glyph-name="semicolon" unicode=";" horiz-adv-x="268" 
d="M65 -108l56 108h-1c-34 0 -61 28 -61 63c0 43 34 74 75 74c42 0 75 -32 75 -74c0 -23 -7 -44 -21 -71l-50 -100h-73zM59 411c0 41 32 74 75 74s75 -33 75 -74s-32 -74 -75 -74s-75 33 -75 74z" />
    <glyph glyph-name="period.square" horiz-adv-x="268" 
d="M71 0v131h126v-131h-126z" />
    <glyph glyph-name="comma.square" horiz-adv-x="268" 
d="M71 131h126v-135c0 -84 -44 -123 -108 -123c-9 0 -16 1 -16 1v61s3 -1 10 -1c24 0 44 20 44 50v16h-56v131z" />
    <glyph glyph-name="colon.square" horiz-adv-x="268" 
d="M71 0v131h126v-131h-126zM71 346v131h126v-131h-126z" />
    <glyph glyph-name="semicolon.square" horiz-adv-x="268" 
d="M71 346v131h126v-131h-126zM71 0v131h126v-135c0 -84 -44 -123 -108 -123c-9 0 -16 1 -16 1v61s3 -1 10 -1c24 0 44 20 44 50v16h-56z" />
    <glyph glyph-name="ellipsis" unicode="&#x2026;" horiz-adv-x="860" 
d="M59 63c0 41 32 74 75 74s75 -33 75 -74s-32 -74 -75 -74s-75 33 -75 74zM355 63c0 41 32 74 75 74s75 -33 75 -74s-32 -74 -75 -74s-75 33 -75 74zM651 63c0 41 32 74 75 74s75 -33 75 -74s-32 -74 -75 -74s-75 33 -75 74z" />
    <glyph glyph-name="ellipsis.square" horiz-adv-x="859" 
d="M71 0v131h126v-131h-126zM366 0v131h126v-131h-126zM661 0v131h127v-131h-127z" />
    <glyph glyph-name="exclam" unicode="!" horiz-adv-x="280" 
d="M88 208l-10 492h124l-10 -492h-104zM66 62c0 40 32 73 74 73s74 -33 74 -73s-32 -73 -74 -73s-74 33 -74 73z" />
    <glyph glyph-name="exclamdown" unicode="&#xa1;" horiz-adv-x="280" 
d="M192 283l10 -491h-124l10 491h104zM66 429c0 40 32 73 74 73s74 -33 74 -73s-32 -73 -74 -73s-74 33 -74 73z" />
    <glyph glyph-name="exclamdown.cap" horiz-adv-x="280" 
d="M192 493l10 -493h-124l10 493h104zM66 639c0 40 32 73 74 73s74 -33 74 -73s-32 -73 -74 -73s-74 33 -74 73z" />
    <glyph glyph-name="question" unicode="?" horiz-adv-x="537" 
d="M197 62c0 40 32 73 74 73s74 -33 74 -73s-32 -73 -74 -73s-74 33 -74 73zM45 485c0 132 95 228 229 228c129 0 225 -86 225 -201c0 -63 -26 -116 -85 -168c-36 -32 -88 -66 -88 -112v-24h-117v35c0 47 34 99 96 146c49 37 75 75 75 114c0 54 -45 98 -107 98
c-63 0 -111 -50 -112 -116h-116z" />
    <glyph glyph-name="questiondown" unicode="&#xbf;" horiz-adv-x="530" 
d="M197 429c0 40 32 73 74 73s74 -33 74 -73s-32 -73 -74 -73s-74 33 -74 73zM45 -17c0 63 27 115 85 168c37 31 88 66 88 111v21h117v-31c0 -48 -33 -99 -96 -146c-49 -38 -75 -76 -75 -115c0 -54 45 -97 107 -97c63 0 111 49 112 115h116c0 -132 -95 -227 -229 -227
c-129 0 -225 86 -225 201z" />
    <glyph glyph-name="questiondown.cap" horiz-adv-x="537" 
d="M347 639c0 -40 -32 -73 -74 -73s-74 33 -74 73s32 73 74 73s74 -33 74 -73zM45 189c0 63 26 116 85 168c36 32 88 66 88 112v24h117v-35c0 -47 -34 -99 -96 -146c-49 -37 -75 -75 -75 -114c0 -53 45 -97 107 -97c63 0 111 50 112 115h116c0 -131 -95 -227 -229 -227
c-129 0 -225 86 -225 200z" />
    <glyph glyph-name="exclam.square" horiz-adv-x="279" 
d="M202 127v-127h-124v127h124zM78 700h124l-11 -492h-102z" />
    <glyph glyph-name="exclamdown.square" horiz-adv-x="279" 
d="M78 363v127h124v-127h-124zM78 -208l11 491h102l11 -491h-124z" />
    <glyph glyph-name="exclamdowncap.square" horiz-adv-x="279" 
d="M78 573v127h124v-127h-124zM78 0l11 493h102l11 -493h-124z" />
    <glyph glyph-name="question.square" horiz-adv-x="534" 
d="M329 127v-127h-125v127h125zM44 485c0 132 94 228 228 228c130 0 226 -86 226 -201c0 -63 -27 -116 -86 -168c-37 -32 -89 -66 -89 -113v-23h-113v34c0 48 31 100 94 147c49 37 75 75 75 114c0 55 -46 98 -108 98s-110 -50 -111 -116h-116z" />
    <glyph glyph-name="questiondown.square" horiz-adv-x="527" 
d="M213 363v127h125v-127h-125zM44 -17c0 63 27 116 86 168c37 32 89 66 89 113v19h113v-30c0 -48 -31 -100 -94 -147c-49 -37 -75 -75 -75 -114c0 -55 46 -98 108 -98s110 50 111 116h116c0 -132 -94 -228 -228 -228c-130 0 -226 86 -226 201z" />
    <glyph glyph-name="questiondowncap.square" horiz-adv-x="534" 
d="M213 573v127h125v-127h-125zM44 190c0 63 27 116 86 168c37 32 89 66 89 113v22h113v-33c0 -48 -31 -100 -94 -147c-49 -37 -75 -75 -75 -114c0 -55 46 -98 108 -98s110 50 111 115h116c0 -131 -94 -227 -228 -227c-130 0 -226 86 -226 201z" />
    <glyph glyph-name="quoteleft" unicode="&#x2018;" horiz-adv-x="216" 
d="M173 700l-53 -102h1c32 0 58 -27 58 -60c0 -41 -32 -70 -71 -70c-40 0 -71 30 -71 70c0 23 8 42 20 67l47 95h69z" />
    <glyph glyph-name="quoteright" unicode="&#x2019;" horiz-adv-x="216" 
d="M43 481l53 102h-1c-32 0 -58 27 -58 60c0 41 32 70 71 70c40 0 71 -30 71 -70c0 -23 -8 -42 -20 -67l-47 -95h-69z" />
    <glyph glyph-name="quotedblleft" unicode="&#x201c;" horiz-adv-x="398" 
d="M173 700l-53 -102h1c32 0 58 -27 58 -60c0 -41 -32 -70 -71 -70c-40 0 -71 30 -71 70c0 23 8 42 20 67l47 95h69zM219 538c0 23 8 42 20 67l47 95h69l-53 -102h1c32 0 58 -27 58 -60c0 -41 -32 -70 -71 -70c-40 0 -71 30 -71 70z" />
    <glyph glyph-name="quotedblright" unicode="&#x201d;" horiz-adv-x="398" 
d="M43 481l53 102h-1c-32 0 -58 27 -58 60c0 41 32 70 71 70c40 0 71 -30 71 -70c0 -23 -8 -42 -20 -67l-47 -95h-69zM219 643c0 41 32 70 71 70c40 0 71 -30 71 -70c0 -23 -8 -42 -20 -67l-47 -95h-69l53 102h-1c-32 0 -58 27 -58 60z" />
    <glyph glyph-name="quotesinglbase" unicode="&#x201a;" horiz-adv-x="216" 
d="M43 -103l53 102h-1c-32 0 -58 27 -58 60c0 41 32 70 71 70c40 0 71 -30 71 -70c0 -23 -8 -42 -20 -67l-47 -95h-69z" />
    <glyph glyph-name="quotedblbase" unicode="&#x201e;" horiz-adv-x="398" 
d="M43 -103l53 102h-1c-32 0 -58 27 -58 60c0 41 32 70 71 70c40 0 71 -30 71 -70c0 -23 -8 -42 -20 -67l-47 -95h-69zM219 59c0 41 32 70 71 70c40 0 71 -30 71 -70c0 -23 -8 -42 -20 -67l-47 -95h-69l53 102h-1c-32 0 -58 27 -58 60z" />
    <glyph glyph-name="reversequoteleft" horiz-adv-x="216" 
d="M57 576c-12 25 -20 44 -20 67c0 40 31 70 71 70c39 0 71 -29 71 -70c0 -33 -26 -60 -58 -60h-1l53 -102h-69z" />
    <glyph glyph-name="reversequotedblleft" horiz-adv-x="398" 
d="M239 576c-12 25 -20 44 -20 67c0 40 31 70 71 70c39 0 71 -29 71 -70c0 -33 -26 -60 -58 -60h-1l53 -102h-69zM37 643c0 40 31 70 71 70c39 0 71 -29 71 -70c0 -33 -26 -60 -58 -60h-1l53 -102h-69l-47 95c-12 25 -20 44 -20 67z" />
    <glyph glyph-name="quoteleft.square" horiz-adv-x="217" 
d="M167 469h-119v127c0 79 41 116 102 116c8 0 15 -1 15 -1v-57s-3 1 -10 1c-22 0 -41 -19 -41 -48v-15h53v-123z" />
    <glyph glyph-name="quoteright.square" horiz-adv-x="216" 
d="M49 700h119v-127c0 -79 -41 -116 -102 -116c-8 0 -15 1 -15 1v57s3 -1 10 -1c22 0 41 19 41 48v15h-53v123z" />
    <glyph glyph-name="quotedblleft.square" horiz-adv-x="391" 
d="M167 469h-119v127c0 79 41 116 102 116c8 0 15 -1 15 -1v-57s-3 1 -10 1c-22 0 -41 -19 -41 -48v-15h53v-123zM222 469v127c0 79 41 116 102 116c8 0 15 -1 15 -1v-57s-3 1 -10 1c-22 0 -41 -19 -41 -48v-15h53v-123h-119z" />
    <glyph glyph-name="quotedblright.square" horiz-adv-x="390" 
d="M49 700h119v-127c0 -79 -41 -116 -102 -116c-8 0 -15 1 -15 1v57s3 -1 10 -1c22 0 41 19 41 48v15h-53v123zM223 577v123h119v-127c0 -79 -41 -116 -102 -116c-8 0 -15 1 -15 1v57s3 -1 10 -1c22 0 41 19 41 48v15h-53z" />
    <glyph glyph-name="quotesinglbase.square" horiz-adv-x="216" 
d="M48 123h119v-127c0 -79 -41 -116 -102 -116c-8 0 -15 1 -15 1v57s3 -1 10 -1c22 0 41 19 41 48v15h-53v123z" />
    <glyph glyph-name="quotedblbase.square" horiz-adv-x="391" 
d="M48 123h119v-127c0 -79 -41 -116 -102 -116c-8 0 -15 1 -15 1v57s3 -1 10 -1c22 0 41 19 41 48v15h-53v123zM223 0v123h119v-127c0 -79 -41 -116 -102 -116c-8 0 -15 1 -15 1v57s3 -1 10 -1c22 0 41 19 41 48v15h-53z" />
    <glyph glyph-name="reversequoteleft.square" horiz-adv-x="217" 
d="M167 577h-53v-15c0 -29 19 -48 41 -48c7 0 10 1 10 1v-57s-7 -1 -15 -1c-61 0 -102 37 -102 116v127h119v-123z" />
    <glyph glyph-name="reversequotedblleft.square" horiz-adv-x="391" 
d="M167 577h-53v-15c0 -29 19 -48 41 -48c7 0 10 1 10 1v-57s-7 -1 -15 -1c-61 0 -102 37 -102 116v127h119v-123zM222 573v127h119v-123h-53v-15c0 -29 19 -48 41 -48c7 0 10 1 10 1v-57s-7 -1 -15 -1c-61 0 -102 37 -102 116z" />
    <glyph glyph-name="guilsinglleft" unicode="&#x2039;" horiz-adv-x="307" 
d="M40 264l133 202h109l-132 -202l133 -202h-111z" />
    <glyph glyph-name="guilsinglright" unicode="&#x203a;" horiz-adv-x="307" 
d="M267 264l-133 -202h-109l132 202l-133 202h111z" />
    <glyph glyph-name="guillemotleft" unicode="&#xab;" horiz-adv-x="499" 
d="M40 264l133 202h109l-132 -202l133 -202h-111zM232 264l133 202h109l-132 -202l133 -202h-111z" />
    <glyph glyph-name="guillemotright" unicode="&#xbb;" horiz-adv-x="499" 
d="M459 264l-133 -202h-109l132 202l-133 202h111zM24 466h111l132 -202l-133 -202h-109l132 202z" />
    <glyph glyph-name="guilsinglleft.cap" horiz-adv-x="307" 
d="M40 345l133 202h109l-132 -202l133 -202h-111z" />
    <glyph glyph-name="guilsinglright.cap" horiz-adv-x="307" 
d="M267 345l-133 -202h-109l132 202l-133 202h111z" />
    <glyph glyph-name="guillemotleft.cap" horiz-adv-x="499" 
d="M40 345l133 202h109l-132 -202l133 -202h-111zM232 345l133 202h109l-132 -202l133 -202h-111z" />
    <glyph glyph-name="guillemotright.cap" horiz-adv-x="499" 
d="M459 345l-133 -202h-109l132 202l-133 202h111zM24 547h111l132 -202l-133 -202h-109l132 202z" />
    <glyph glyph-name="slash" unicode="/" horiz-adv-x="471" 
d="M101 -100h-115l368 865h115z" />
    <glyph glyph-name="backslash" unicode="\" horiz-adv-x="471" 
d="M2 765h115l368 -865h-115z" />
    <glyph glyph-name="bar" unicode="|" horiz-adv-x="283" 
d="M87 -156v921h109v-921h-109z" />
    <glyph glyph-name="doublebar" horiz-adv-x="467" 
d="M87 -156v921h109v-921h-109zM271 -156v921h109v-921h-109z" />
    <glyph glyph-name="brokenbar" unicode="&#xa6;" horiz-adv-x="283" 
d="M87 385v380h109v-380h-109zM87 -156v384h109v-384h-109z" />
    <glyph glyph-name="bullet" unicode="&#x2022;" horiz-adv-x="318" 
d="M268 265c0 -58 -50 -108 -109 -108s-109 50 -109 108s50 108 109 108s109 -50 109 -108z" />
    <glyph glyph-name="slash.cap" horiz-adv-x="471" 
d="M18 -24l319 748h115l-319 -748h-115z" />
    <glyph glyph-name="backslash.cap" horiz-adv-x="471" 
d="M337 -24l-319 748h116l319 -748h-116z" />
    <glyph glyph-name="bar.cap" horiz-adv-x="283" 
d="M87 -24v748h109v-748h-109z" />
    <glyph glyph-name="doublebar.cap" horiz-adv-x="467" 
d="M87 -24v748h109v-748h-109zM271 -24v748h109v-748h-109z" />
    <glyph glyph-name="brokenbar.cap" horiz-adv-x="283" 
d="M87 431v293h109v-293h-109zM87 -24v298h109v-298h-109z" />
    <glyph glyph-name="bullet.cap" horiz-adv-x="318" 
d="M268 345c0 -58 -50 -108 -109 -108s-109 50 -109 108s50 108 109 108s109 -50 109 -108z" />
    <glyph glyph-name="uni00A0" unicode="&#xa0;" horiz-adv-x="239" 
 />
    <glyph glyph-name="uni2009" unicode="&#x2009;" horiz-adv-x="110" 
 />
    <glyph glyph-name="periodcentered" unicode="&#xb7;" horiz-adv-x="267" 
d="M59 264c0 41 32 74 75 74s75 -33 75 -74s-32 -74 -75 -74s-75 33 -75 74z" />
    <glyph glyph-name="periodcentered.square" horiz-adv-x="267" 
d="M70 199v131h126v-131h-126z" />
    <glyph glyph-name="hyphen" unicode="-" horiz-adv-x="424" 
d="M57 317h310v-104h-310v104z" />
    <glyph glyph-name="endash" unicode="&#x2013;" horiz-adv-x="565" 
d="M57 314h451v-98h-451v98z" />
    <glyph glyph-name="emdash" unicode="&#x2014;" horiz-adv-x="865" 
d="M57 314h751v-98h-751v98z" />
    <glyph glyph-name="figuredash" unicode="&#x2012;" 
d="M57 314h486v-98h-486v98z" />
    <glyph glyph-name="periodcentered.cap" horiz-adv-x="267" 
d="M59 344c0 41 32 74 75 74s75 -33 75 -74s-32 -74 -75 -74s-75 33 -75 74z" />
    <glyph glyph-name="periodcenteredcap.square" horiz-adv-x="267" 
d="M70 279v131h126v-131h-126z" />
    <glyph glyph-name="hyphen.cap" horiz-adv-x="424" 
d="M57 397h310v-104h-310v104z" />
    <glyph glyph-name="endash.cap" horiz-adv-x="565" 
d="M57 395h451v-98h-451v98z" />
    <glyph glyph-name="emdash.cap" horiz-adv-x="865" 
d="M57 395h751v-98h-751v98z" />
    <glyph glyph-name="figuredash.cap" 
d="M57 395h486v-98h-486v98z" />
    <glyph glyph-name="parenleft" unicode="(" horiz-adv-x="336" 
d="M50 294c0 173 61 339 163 459h115c-107 -138 -164 -292 -164 -459s57 -320 164 -459h-115c-102 121 -163 286 -163 459z" />
    <glyph glyph-name="parenright" unicode=")" horiz-adv-x="336" 
d="M285 294c0 -173 -60 -339 -162 -459h-115c107 138 163 292 163 459s-56 320 -163 459h115c102 -121 162 -286 162 -459z" />
    <glyph glyph-name="bracketleft" unicode="[" horiz-adv-x="341" 
d="M72 753h246v-93h-137v-732h137v-93h-246v918z" />
    <glyph glyph-name="bracketright" unicode="]" horiz-adv-x="341" 
d="M269 -165h-246v93h137v732h-137v93h246v-918z" />
    <glyph glyph-name="braceleft" unicode="{" horiz-adv-x="369" 
d="M108 564c-6 136 60 189 183 189c24 0 48 -3 48 -3v-86s-17 2 -31 2c-60 0 -96 -26 -92 -105l6 -133c3 -70 -23 -108 -81 -133c59 -26 84 -66 81 -135l-6 -134c-3 -78 32 -104 92 -104h31v-85s-24 -3 -48 -3c-123 0 -189 54 -183 188l6 135c3 59 -34 86 -82 93v87
c49 6 85 34 82 93z" />
    <glyph glyph-name="braceright" unicode="}" horiz-adv-x="369" 
d="M261 23c6 -135 -60 -189 -183 -189c-23 0 -48 3 -48 3v86s17 -1 31 -1c60 0 96 26 92 104l-5 134c-3 69 22 107 80 133c-58 26 -83 66 -80 135l5 133c4 79 -32 105 -92 105c-14 0 -31 -1 -31 -1v85s25 3 48 3c123 0 189 -53 183 -188l-5 -135c-3 -59 34 -86 82 -93v-86
c-49 -7 -85 -35 -82 -94z" />
    <glyph glyph-name="uni3008" unicode="&#x3008;" horiz-adv-x="349" 
d="M25 291l203 462h112l-200 -459l202 -459h-116z" />
    <glyph glyph-name="uni3009" unicode="&#x3009;" horiz-adv-x="349" 
d="M324 297l-202 -462h-113l200 459l-201 459h115z" />
    <glyph glyph-name="parenleft.cap" horiz-adv-x="336" 
d="M50 347c0 146 54 297 153 406h114c-102 -127 -153 -269 -153 -406s51 -280 153 -407h-114c-99 108 -153 261 -153 407z" />
    <glyph glyph-name="parenright.cap" horiz-adv-x="336" 
d="M285 347c0 -146 -53 -299 -153 -407h-114c103 127 153 269 153 407c0 137 -50 279 -153 406h114c100 -109 153 -261 153 -406z" />
    <glyph glyph-name="bracketleft.cap" horiz-adv-x="341" 
d="M72 753h246v-93h-137v-627h137v-93h-246v813z" />
    <glyph glyph-name="bracketright.cap" horiz-adv-x="341" 
d="M269 -60h-246v93h137v627h-137v93h246v-813z" />
    <glyph glyph-name="braceleft.cap" horiz-adv-x="369" 
d="M217 129c-5 -75 32 -102 91 -102c14 0 31 2 31 2v-86s-24 -3 -48 -3c-123 0 -190 54 -182 186l5 84c3 59 -34 86 -82 93v87c49 6 85 34 82 93l-5 84c-8 132 59 186 182 186c24 0 48 -3 48 -3v-86s-17 2 -31 2c-59 0 -96 -27 -91 -102l5 -83c4 -70 -23 -108 -81 -133
c59 -26 84 -66 81 -135z" />
    <glyph glyph-name="braceright.cap" horiz-adv-x="369" 
d="M153 564c5 75 -32 102 -92 102c-14 0 -31 -2 -31 -2v86s25 3 48 3c123 0 191 -54 183 -186l-5 -84c-4 -59 34 -86 82 -93v-87c-49 -6 -86 -34 -82 -93l5 -84c8 -132 -60 -186 -183 -186c-23 0 -48 3 -48 3v86s17 -2 31 -2c60 0 97 27 92 102l-5 83c-5 70 22 108 80 133
c-58 26 -84 66 -80 135z" />
    <glyph glyph-name="uni3008.cap" horiz-adv-x="344" 
d="M25 345l182 408h112l-179 -406l181 -407h-115z" />
    <glyph glyph-name="uni3009.cap" horiz-adv-x="344" 
d="M138 -60h-115l180 406l-180 407h114l182 -407z" />
    <glyph glyph-name="asterisk" unicode="*" horiz-adv-x="429" 
d="M214 458l-66 -94l-74 55l68 93l-110 35l27 87l110 -37l-1 116h93l-1 -116l110 37l27 -87l-110 -35l69 -93l-75 -55z" />
    <glyph glyph-name="dagger" unicode="&#x2020;" horiz-adv-x="471" 
d="M39 471h140v229h114v-229h140v-102h-140v-477h-114v477h-140v102z" />
    <glyph glyph-name="daggerdbl" unicode="&#x2021;" horiz-adv-x="471" 
d="M39 492h140v208h114v-208h140v-102h-140v-179h140v-102h-140v-217h-114v217h-140v102h140v179h-140v102z" />
    <glyph glyph-name="section" unicode="&#xa7;" horiz-adv-x="496" 
d="M461 290c0 -52 -34 -98 -90 -122c41 -28 66 -73 66 -123c0 -95 -79 -165 -190 -165c-107 0 -187 69 -190 170h101c5 -47 42 -80 89 -80c50 0 84 31 84 74c0 31 -21 54 -57 68l-89 34c-100 38 -150 84 -150 157c0 51 33 97 90 121c-42 28 -66 73 -66 124
c0 95 79 165 190 165c107 0 187 -69 190 -170h-101c-5 47 -42 80 -89 80c-50 0 -84 -31 -84 -74c0 -31 21 -54 57 -68l89 -34c100 -38 150 -84 150 -157zM141 312c0 -36 28 -62 84 -82l60 -21c40 8 70 35 70 72c0 36 -28 62 -84 82l-60 21c-40 -8 -70 -35 -70 -72z" />
    <glyph glyph-name="paragraph" unicode="&#xb6;" horiz-adv-x="611" 
d="M514 614v-722h-91v722h-101v-722h-91v425h-8c-115 0 -201 73 -201 192c0 120 86 191 206 191h356v-86h-70z" />
    <glyph glyph-name="asciicircum" unicode="^" horiz-adv-x="477" 
d="M443 393h-109l-96 191l-96 -191h-108l159 307h91z" />
    <glyph glyph-name="asciitilde" unicode="~" horiz-adv-x="522" 
d="M42 198c0 91 59 140 134 140c101 0 110 -59 162 -59c31 0 51 23 52 54h91c0 -91 -59 -140 -134 -140c-101 0 -111 59 -162 59c-31 0 -51 -23 -52 -54h-91z" />
    <glyph glyph-name="underscore" unicode="_" horiz-adv-x="502" 
d="M16 -42h470v-92h-470v92z" />
    <glyph glyph-name="quotesingle" unicode="'" horiz-adv-x="201" 
d="M55 417l-13 283h117l-13 -283h-91z" />
    <glyph glyph-name="quotedbl" unicode="&#x22;" horiz-adv-x="379" 
d="M55 417l-13 283h117l-13 -283h-91zM220 700h117l-13 -283h-91z" />
    <glyph glyph-name="at" unicode="@" horiz-adv-x="863" 
d="M642 68c-62 0 -92 32 -100 64c-27 -40 -77 -66 -135 -66c-95 0 -165 74 -165 184c0 112 81 202 184 202c59 0 102 -25 122 -62l6 51h84l-29 -238c-5 -38 7 -57 34 -57c50 0 92 70 92 165c0 151 -120 256 -274 256c-180 0 -326 -129 -326 -313c0 -189 136 -304 306 -304
c86 0 167 25 226 67l43 -74c-62 -45 -168 -77 -269 -77c-218 0 -399 141 -399 386c0 236 190 399 421 399c203 0 364 -144 364 -334c0 -163 -93 -249 -185 -249zM331 251c0 -63 41 -105 92 -105c57 0 108 55 108 124c0 57 -36 102 -94 102s-106 -54 -106 -121z" />
    <glyph glyph-name="at.cap" horiz-adv-x="860" 
d="M642 158c-62 0 -92 32 -100 64c-27 -40 -77 -66 -135 -66c-95 0 -165 74 -165 184c0 112 81 202 184 202c59 0 102 -25 122 -62l6 51h84l-29 -238c-5 -38 7 -57 34 -57c50 0 92 70 92 165c0 151 -120 256 -274 256c-180 0 -326 -129 -326 -313c0 -189 136 -304 306 -304
c86 0 167 25 226 67l43 -74c-62 -45 -168 -77 -269 -77c-218 0 -399 141 -399 386c0 236 190 399 421 399c203 0 364 -144 364 -334c0 -163 -93 -249 -185 -249zM331 341c0 -63 41 -105 92 -105c57 0 108 55 108 124c0 57 -36 102 -94 102s-106 -54 -106 -121z" />
    <glyph glyph-name="copyright" unicode="&#xa9;" horiz-adv-x="808" 
d="M234 349c0 104 79 186 191 186c34 0 67 -9 94 -27v-85c-29 18 -57 29 -89 29c-59 0 -104 -45 -104 -103c0 -56 45 -101 104 -101c34 0 64 13 90 29v-85c-29 -18 -61 -27 -95 -27c-112 0 -191 80 -191 184zM46 350c0 200 161 363 358 363s358 -163 358 -363
s-161 -362 -358 -362s-358 162 -358 362zM139 350c0 -150 118 -274 265 -274s265 124 265 274c0 151 -118 275 -265 275s-265 -124 -265 -275z" />
    <glyph glyph-name="registered" unicode="&#xae;" horiz-adv-x="810" 
d="M763 350c0 -200 -161 -362 -358 -362s-358 162 -358 362s161 363 358 363s358 -163 358 -363zM140 350c0 -150 118 -274 265 -274s265 124 265 274c0 151 -118 275 -265 275s-265 -124 -265 -275zM284 175v350h129c75 0 129 -42 129 -114c0 -44 -25 -80 -66 -100l88 -136
h-99l-73 119h-23v-119h-85zM369 367h38c27 0 48 15 48 42s-21 41 -48 41h-38v-83z" />
    <glyph glyph-name="registered.superior" horiz-adv-x="465" 
d="M424 506c0 -106 -87 -193 -191 -193c-105 0 -191 87 -191 193c0 107 86 194 191 194c104 0 191 -87 191 -194zM100 506c0 -75 59 -137 133 -137c73 0 133 62 133 137c0 76 -60 138 -133 138c-74 0 -133 -62 -133 -138zM169 417v182h68c42 0 69 -22 69 -61
c0 -23 -12 -41 -32 -51l42 -70h-56l-33 60h-10v-60h-48zM217 518h18c12 0 22 7 22 20c0 12 -10 19 -22 19h-18v-39z" />
    <glyph glyph-name="trademark" unicode="&#x2122;" horiz-adv-x="805" 
d="M197 358h-79v266h-97v76h273v-76h-97v-266zM354 358v342h96l104 -231l103 231h93v-342h-77v214l-96 -214h-51l-95 213v-213h-77z" />
    <glyph glyph-name="Euro" unicode="&#x20ac;" horiz-adv-x="602" 
d="M226 240c32 -78 102 -131 187 -131c56 0 99 16 146 42v-114c-47 -25 -102 -36 -152 -36c-147 0 -266 96 -305 239h-85v77h73c-1 11 -1 17 -1 26s0 15 1 27h-73v78h86c39 141 158 238 304 238c52 0 107 -13 151 -35v-116c-45 27 -88 44 -145 44c-84 0 -154 -53 -187 -131
h218v-78h-237c-1 -12 -1 -18 -1 -27s0 -15 1 -26h238v-77h-219z" />
    <glyph glyph-name="dollar" unicode="$" horiz-adv-x="534" 
d="M315 680c74 -15 134 -65 165 -140l-97 -50c-14 34 -37 64 -68 79v-171l26 -10c103 -39 154 -98 154 -186c0 -110 -79 -182 -180 -198v-100h-83v100c-92 13 -165 70 -197 162l100 48c18 -50 52 -86 97 -100v195l-15 6c-96 38 -155 90 -155 183c0 102 72 172 170 185v93h83
v-96zM178 505c0 -33 18 -55 54 -73v142c-33 -10 -54 -36 -54 -69zM315 113c37 12 64 40 64 82c0 37 -21 64 -64 83v-165z" />
    <glyph glyph-name="cent" unicode="&#xa2;" horiz-adv-x="459" 
d="M315 199c38 4 73 21 103 42v-110c-32 -18 -67 -29 -103 -32v-102h-81v106c-116 22 -192 116 -192 240c0 120 77 216 192 239v105h81v-100c36 -4 71 -14 101 -32v-110c-32 24 -66 38 -101 41v-287zM154 343c0 -58 31 -107 80 -130v260c-49 -23 -80 -72 -80 -130z" />
    <glyph glyph-name="sterling" unicode="&#xa3;" 
d="M126 461c0 137 79 228 219 228c132 0 219 -95 219 -213h-114c0 55 -40 105 -102 105c-70 0 -103 -49 -103 -124v-75h166v-97h-166v-90c0 -48 -14 -77 -33 -88h345v-107h-503v107h16c32 0 56 23 56 87v91h-72v97h72v79z" />
    <glyph glyph-name="florin" unicode="&#x192;" horiz-adv-x="535" 
d="M106 416h114l23 128c20 114 90 179 196 179c30 0 58 -6 79 -14v-105c-20 9 -43 14 -65 14c-52 0 -86 -28 -96 -84l-21 -118h123v-100h-140l-54 -308c-20 -114 -90 -179 -196 -179c-30 0 -58 6 -79 14v105c20 -9 43 -14 65 -14c52 0 86 28 96 84l52 298h-97v100z" />
    <glyph glyph-name="yen" unicode="&#xa5;" horiz-adv-x="627" 
d="M83 383h125l-193 301h133l166 -266l168 266h130l-193 -301h127v-82h-174v-54h174v-83h-174v-164h-116v164h-173v83h173v54h-173v82z" />
    <glyph glyph-name="numbersign" unicode="#" horiz-adv-x="663" 
d="M526 507h101v-85h-113l-21 -152h103v-85h-115l-26 -185h-97l26 185h-151l-26 -185h-96l26 185h-101v85h113l21 152h-103v85h115l26 180h96l-26 -180h151l26 180h97zM245 270h151l21 152h-151z" />
    <glyph glyph-name="zero" unicode="0" horiz-adv-x="670" 
d="M620 344c0 -187 -95 -356 -285 -356s-285 169 -285 356c0 186 95 355 285 355s285 -169 285 -355zM169 344c0 -125 51 -245 166 -245s166 120 166 245c0 124 -51 244 -166 244s-166 -120 -166 -244z" />
    <glyph glyph-name="one" unicode="1" horiz-adv-x="358" 
d="M157 0v577h-121v110h239v-687h-118z" />
    <glyph glyph-name="two" unicode="2" horiz-adv-x="556" 
d="M277 699c134 0 233 -90 233 -216c0 -83 -40 -147 -136 -232l-164 -144h307v-107h-476v95l268 241c58 53 82 95 82 140c0 64 -50 112 -114 112c-71 0 -116 -59 -117 -135h-116c0 146 93 246 233 246z" />
    <glyph glyph-name="three" unicode="3" horiz-adv-x="567" 
d="M281 406c55 0 102 44 102 94c0 52 -42 91 -101 91c-64 0 -107 -47 -109 -112h-114c2 134 95 220 225 220c126 0 217 -80 216 -186c0 -64 -32 -116 -89 -147c74 -27 119 -89 119 -166c0 -125 -103 -212 -243 -212c-146 0 -241 90 -243 234h115c5 -71 58 -125 131 -125
c70 0 121 42 121 109c0 63 -56 105 -130 105h-34v95h34z" />
    <glyph glyph-name="four" unicode="4" horiz-adv-x="602" 
d="M24 235l318 451h140v-435h96v-100h-96v-151h-115v151h-343v84zM155 251h212v300z" />
    <glyph glyph-name="five" unicode="5" horiz-adv-x="574" 
d="M59 320l50 367h381v-105h-290l-23 -166c30 30 84 49 137 49c131 0 225 -103 225 -228c0 -142 -109 -249 -249 -249c-145 0 -246 91 -248 220h116c7 -63 55 -111 131 -111c74 0 131 60 131 134c0 76 -58 133 -133 133c-53 0 -93 -27 -121 -66z" />
    <glyph glyph-name="six" unicode="6" horiz-adv-x="590" 
d="M552 236c0 -140 -111 -248 -254 -248c-146 0 -255 106 -255 247c0 61 23 127 73 205l161 247h138l-163 -237c16 12 41 19 69 19c133 0 231 -104 231 -233zM162 232c0 -73 59 -133 135 -133s136 60 136 132c0 76 -60 134 -135 134c-76 0 -136 -58 -136 -133z" />
    <glyph glyph-name="seven" unicode="7" horiz-adv-x="527" 
d="M218 0h-130l275 579h-330v107h466v-87z" />
    <glyph glyph-name="eight" unicode="8" horiz-adv-x="566" 
d="M283 699c117 0 218 -74 218 -187c0 -69 -42 -121 -92 -142c56 -22 120 -80 120 -171c0 -132 -118 -211 -246 -211s-246 79 -246 211c0 91 63 149 119 171c-49 21 -91 73 -91 142c0 113 101 187 218 187zM153 204c0 -67 59 -113 130 -113s129 46 129 113
c0 66 -57 111 -129 111s-130 -45 -130 -111zM176 505c0 -57 50 -93 107 -93s107 36 107 93c0 55 -50 93 -107 93s-107 -38 -107 -93z" />
    <glyph glyph-name="nine" unicode="9" horiz-adv-x="590" 
d="M38 451c0 140 111 248 254 248c146 0 255 -106 255 -247c0 -61 -23 -127 -73 -205l-161 -247h-138l163 237c-16 -12 -41 -19 -69 -19c-133 0 -231 104 -231 233zM157 456c0 -76 60 -134 135 -134c76 0 136 58 136 133c0 73 -59 133 -135 133s-136 -60 -136 -132z" />
    <glyph glyph-name="numbersign.LT" 
d="M477 506h96v-83h-108l-21 -154h98v-83h-110l-26 -186h-93l26 186h-123l-26 -186h-93l26 186h-96v83h108l21 154h-98v83h110l26 181h93l-26 -181h123l26 181h93zM228 269h123l21 154h-123z" />
    <glyph glyph-name="zero.LT" 
d="M560 344c0 -218 -100 -356 -260 -356s-260 138 -260 356c0 217 100 355 260 355s260 -138 260 -355zM158 344c0 -153 54 -244 142 -244s142 91 142 244c0 152 -54 243 -142 243s-142 -91 -142 -243z" />
    <glyph glyph-name="one.LT" 
d="M72 105h182v472h-130v110h248v-582h176v-105h-476v105z" />
    <glyph glyph-name="two.LT" 
d="M299 699c134 0 233 -90 233 -216c0 -83 -40 -147 -136 -232l-164 -144h307v-107h-476v95l268 241c58 53 82 95 82 140c0 64 -50 112 -114 112c-71 0 -116 -59 -117 -135h-116c0 146 93 246 233 246z" />
    <glyph glyph-name="three.LT" 
d="M297 406c55 0 102 44 102 94c0 52 -42 91 -101 91c-64 0 -107 -47 -109 -112h-114c2 134 95 220 225 220c126 0 217 -80 216 -186c0 -64 -32 -116 -89 -147c74 -27 119 -89 119 -166c0 -125 -103 -212 -243 -212c-146 0 -241 90 -243 234h115c5 -71 58 -125 131 -125
c70 0 121 42 121 109c0 63 -56 105 -130 105h-34v95h34z" />
    <glyph glyph-name="four.LT" 
d="M33 235l308 451h140v-435h86v-100h-86v-151h-115v151h-333v84zM163 251h203v300z" />
    <glyph glyph-name="five.LT" 
d="M72 320l50 367h381v-105h-290l-23 -166c30 30 84 49 137 49c131 0 225 -103 225 -228c0 -142 -109 -249 -249 -249c-145 0 -246 91 -248 220h116c7 -63 55 -111 131 -111c74 0 131 60 131 134c0 76 -58 133 -133 133c-53 0 -93 -27 -121 -66z" />
    <glyph glyph-name="six.LT" 
d="M557 236c0 -140 -111 -248 -254 -248c-146 0 -255 106 -255 247c0 61 23 127 73 205l161 247h138l-163 -237c16 12 41 19 69 19c133 0 231 -104 231 -233zM167 232c0 -73 59 -133 135 -133s136 60 136 132c0 76 -60 134 -135 134c-76 0 -136 -58 -136 -133z" />
    <glyph glyph-name="seven.LT" 
d="M254 0h-130l275 579h-330v107h466v-87z" />
    <glyph glyph-name="eight.LT" 
d="M300 699c117 0 218 -74 218 -187c0 -69 -42 -121 -92 -142c56 -22 120 -80 120 -171c0 -132 -118 -211 -246 -211s-246 79 -246 211c0 91 63 149 119 171c-49 21 -91 73 -91 142c0 113 101 187 218 187zM170 204c0 -67 59 -113 130 -113s129 46 129 113
c0 66 -57 111 -129 111s-130 -45 -130 -111zM193 505c0 -57 50 -93 107 -93s107 36 107 93c0 55 -50 93 -107 93s-107 -38 -107 -93z" />
    <glyph glyph-name="nine.LT" 
d="M43 451c0 140 111 248 254 248c146 0 255 -106 255 -247c0 -61 -23 -127 -73 -205l-161 -247h-138l163 237c-16 -12 -41 -19 -69 -19c-133 0 -231 104 -231 233zM162 456c0 -76 60 -134 135 -134c76 0 136 58 136 133c0 73 -59 133 -135 133s-136 -60 -136 -132z" />
    <glyph glyph-name="Euro.LT" 
d="M225 240c32 -78 102 -131 187 -131c56 0 99 16 146 42v-114c-47 -25 -102 -36 -152 -36c-147 0 -266 96 -305 239h-85v77h73c-1 11 -1 17 -1 26s0 15 1 27h-73v78h86c39 141 158 238 304 238c52 0 107 -13 151 -35v-116c-45 27 -88 44 -145 44c-84 0 -154 -53 -187 -131
h218v-78h-237c-1 -12 -1 -18 -1 -27s0 -15 1 -26h238v-77h-219z" />
    <glyph glyph-name="dollar.LT" 
d="M348 680c74 -15 134 -65 165 -140l-97 -50c-14 34 -37 64 -68 79v-171l26 -10c103 -39 154 -98 154 -186c0 -110 -79 -182 -180 -198v-100h-83v100c-92 13 -165 70 -197 162l100 48c18 -50 52 -86 97 -100v195l-15 6c-96 38 -155 90 -155 183c0 102 72 172 170 185v93h83
v-96zM211 505c0 -33 18 -55 54 -73v142c-33 -10 -54 -36 -54 -69zM348 113c37 12 64 40 64 82c0 37 -21 64 -64 83v-165z" />
    <glyph glyph-name="cent.LT" 
d="M385 199c38 4 73 21 103 42v-110c-32 -18 -67 -29 -103 -32v-102h-81v106c-116 22 -192 116 -192 240c0 120 77 216 192 239v105h81v-100c36 -4 71 -14 101 -32v-110c-32 24 -66 38 -101 41v-287zM224 343c0 -58 31 -107 80 -130v260c-49 -23 -80 -72 -80 -130z" />
    <glyph glyph-name="sterling.LT" 
d="M126 461c0 137 79 228 219 228c132 0 219 -95 219 -213h-114c0 55 -40 105 -102 105c-70 0 -103 -49 -103 -124v-75h166v-97h-166v-90c0 -48 -14 -77 -33 -88h345v-107h-503v107h16c32 0 56 23 56 87v91h-72v97h72v79z" />
    <glyph glyph-name="florin.LT" 
d="M138 416h114l23 128c20 114 90 179 196 179c30 0 58 -6 79 -14v-105c-20 9 -43 14 -65 14c-52 0 -86 -28 -96 -84l-21 -118h123v-100h-140l-54 -308c-20 -114 -90 -179 -196 -179c-30 0 -58 6 -79 14v105c20 -9 43 -14 65 -14c52 0 86 28 96 84l52 298h-97v100z" />
    <glyph glyph-name="yen.LT" 
d="M69 383h136l-181 301h131l146 -248l146 248h129l-181 -301h137v-82h-173v-54h173v-83h-173v-164h-118v164h-172v83h172v54h-172v82z" />
    <glyph glyph-name="zero.OP" horiz-adv-x="635" 
d="M591 299c0 -186 -114 -311 -273 -311s-273 125 -273 311c0 185 114 310 273 310s273 -125 273 -310zM163 299c0 -119 64 -200 155 -200s155 81 155 200c0 118 -64 199 -155 199s-155 -81 -155 -199z" />
    <glyph glyph-name="one.OP" horiz-adv-x="348" 
d="M157 0v486h-121v110h240v-596h-119z" />
    <glyph glyph-name="two.OP" horiz-adv-x="528" 
d="M268 609c127 0 218 -80 218 -193c0 -90 -45 -147 -166 -236l-99 -73h271v-107h-453v95l212 163c90 69 117 103 117 149c0 55 -43 94 -100 94c-65 0 -111 -54 -111 -128h-115c1 140 91 236 226 236z" />
    <glyph glyph-name="three.OP" horiz-adv-x="563" 
d="M281 315c55 0 102 44 102 94c0 52 -42 91 -101 91c-64 0 -107 -47 -109 -112h-114c2 134 95 220 225 220c126 0 217 -80 216 -186c0 -64 -32 -116 -89 -147c74 -27 119 -89 119 -166c0 -125 -103 -212 -243 -212c-146 0 -241 90 -243 234h115c5 -71 58 -125 131 -125
c70 0 121 42 121 109c0 63 -56 105 -130 105h-34v95h34z" />
    <glyph glyph-name="four.OP" horiz-adv-x="597" 
d="M20 126l317 470h139v-454h96v-100h-96v-132h-114v132h-342v84zM151 142h211v320z" />
    <glyph glyph-name="five.OP" horiz-adv-x="569" 
d="M56 229l50 367h381v-105h-290l-23 -166c30 30 84 49 137 49c131 0 225 -103 225 -228c0 -142 -109 -249 -249 -249c-145 0 -246 91 -248 220h116c7 -63 55 -111 131 -111c74 0 131 60 131 134c0 76 -58 133 -133 133c-53 0 -93 -27 -121 -66z" />
    <glyph glyph-name="six.OP" horiz-adv-x="590" 
d="M552 236c0 -140 -111 -248 -254 -248c-146 0 -255 106 -255 247c0 61 23 127 73 205l161 247h138l-163 -237c16 12 41 19 69 19c133 0 231 -104 231 -233zM162 232c0 -73 59 -133 135 -133s136 60 136 132c0 76 -60 134 -135 134c-76 0 -136 -58 -136 -133z" />
    <glyph glyph-name="seven.OP" horiz-adv-x="524" 
d="M211 -90h-130l275 579h-330v107h466v-87z" />
    <glyph glyph-name="eight.OP" horiz-adv-x="566" 
d="M283 699c117 0 218 -74 218 -187c0 -69 -42 -121 -92 -142c56 -22 120 -80 120 -171c0 -132 -118 -211 -246 -211s-246 79 -246 211c0 91 63 149 119 171c-49 21 -91 73 -91 142c0 113 101 187 218 187zM153 204c0 -67 59 -113 130 -113s129 46 129 113
c0 66 -57 111 -129 111s-130 -45 -130 -111zM176 505c0 -57 50 -93 107 -93s107 36 107 93c0 55 -50 93 -107 93s-107 -38 -107 -93z" />
    <glyph glyph-name="nine.OP" horiz-adv-x="588" 
d="M37 361c0 140 111 248 254 248c146 0 255 -106 255 -247c0 -61 -23 -127 -73 -205l-161 -247h-138l163 237c-16 -12 -41 -19 -69 -19c-133 0 -231 104 -231 233zM156 366c0 -76 60 -134 135 -134c76 0 136 58 136 133c0 73 -59 133 -135 133s-136 -60 -136 -132z" />
    <glyph glyph-name="zero.OT" 
d="M40 299c0 189 104 310 260 310s260 -121 260 -310c0 -190 -104 -311 -260 -311s-260 121 -260 311zM158 299c0 -123 55 -200 142 -200s142 77 142 200c0 122 -55 199 -142 199s-142 -77 -142 -199z" />
    <glyph glyph-name="one.OT" 
d="M78 104h176v382h-127v110h246v-492h168v-104h-463v104z" />
    <glyph glyph-name="two.OT" 
d="M304 609c127 0 218 -80 218 -193c0 -90 -45 -147 -166 -236l-99 -73h271v-107h-453v95l212 163c90 69 117 103 117 149c0 55 -43 94 -100 94c-65 0 -111 -54 -111 -128h-115c1 140 91 236 226 236z" />
    <glyph glyph-name="three.OT" 
d="M300 315c55 0 102 44 102 94c0 52 -42 91 -101 91c-64 0 -107 -47 -109 -112h-114c2 134 95 220 225 220c126 0 217 -80 216 -186c0 -64 -32 -116 -89 -147c74 -27 119 -89 119 -166c0 -125 -103 -212 -243 -212c-146 0 -241 90 -243 234h115c5 -71 58 -125 131 -125
c70 0 121 42 121 109c0 63 -56 105 -130 105h-34v95h34z" />
    <glyph glyph-name="four.OT" 
d="M31 126l308 470h139v-454h87v-100h-87v-132h-114v132h-333v84zM160 142h204v320z" />
    <glyph glyph-name="five.OT" 
d="M71 229l50 367h381v-105h-290l-23 -166c30 30 84 49 137 49c131 0 225 -103 225 -228c0 -142 -109 -249 -249 -249c-145 0 -246 91 -248 220h116c7 -63 55 -111 131 -111c74 0 131 60 131 134c0 76 -58 133 -133 133c-53 0 -93 -27 -121 -66z" />
    <glyph glyph-name="six.OT" 
d="M557 236c0 -140 -111 -248 -254 -248c-146 0 -255 106 -255 247c0 61 23 127 73 205l161 247h138l-163 -237c16 12 41 19 69 19c133 0 231 -104 231 -233zM167 232c0 -73 59 -133 135 -133s136 60 136 132c0 76 -60 134 -135 134c-76 0 -136 -58 -136 -133z" />
    <glyph glyph-name="seven.OT" 
d="M249 -90h-130l275 579h-330v107h466v-87z" />
    <glyph glyph-name="eight.OT" 
d="M300 699c117 0 218 -74 218 -187c0 -69 -42 -121 -92 -142c56 -22 120 -80 120 -171c0 -132 -118 -211 -246 -211s-246 79 -246 211c0 91 63 149 119 171c-49 21 -91 73 -91 142c0 113 101 187 218 187zM170 204c0 -67 59 -113 130 -113s129 46 129 113
c0 66 -57 111 -129 111s-130 -45 -130 -111zM193 505c0 -57 50 -93 107 -93s107 36 107 93c0 55 -50 93 -107 93s-107 -38 -107 -93z" />
    <glyph glyph-name="nine.OT" 
d="M43 361c0 140 111 248 254 248c146 0 255 -106 255 -247c0 -61 -23 -127 -73 -205l-161 -247h-138l163 237c-16 -12 -41 -19 -69 -19c-133 0 -231 104 -231 233zM162 366c0 -76 60 -134 135 -134c76 0 136 58 136 133c0 73 -59 133 -135 133s-136 -60 -136 -132z" />
    <glyph glyph-name="uni2070" unicode="&#x2070;" horiz-adv-x="374" 
d="M339 493c0 -125 -56 -202 -152 -202s-152 77 -152 202s56 202 152 202s152 -77 152 -202zM121 493c0 -79 24 -122 66 -122s66 43 66 122s-24 122 -66 122s-66 -43 -66 -122z" />
    <glyph glyph-name="uni00B9" unicode="&#xb9;" horiz-adv-x="239" 
d="M93 299v308h-67v80h154v-388h-87z" />
    <glyph glyph-name="uni00B2" unicode="&#xb2;" horiz-adv-x="342" 
d="M317 299h-286v68l145 118c36 29 52 53 52 78c0 32 -21 52 -54 52c-34 0 -57 -26 -58 -64h-84c0 85 58 144 141 144c82 0 141 -52 141 -127c0 -50 -27 -90 -90 -141l-64 -51h157v-77z" />
    <glyph glyph-name="uni00B3" unicode="&#xb3;" horiz-adv-x="346" 
d="M170 533c30 0 53 19 53 44c0 24 -21 42 -49 42c-31 0 -51 -21 -52 -48h-82c0 73 57 124 135 124c76 0 132 -46 132 -108c0 -34 -17 -62 -49 -81c43 -17 65 -50 65 -92c0 -71 -61 -123 -146 -123c-86 0 -146 53 -146 132h86c0 -32 25 -54 61 -54c35 0 59 21 59 49
c0 31 -26 50 -66 50h-19v65h18z" />
    <glyph glyph-name="uni2074" unicode="&#x2074;" horiz-adv-x="354" 
d="M292 452h47v-73h-47v-80h-84v80h-189v61l168 247h105v-235zM113 452h95v140z" />
    <glyph glyph-name="uni2075" unicode="&#x2075;" horiz-adv-x="349" 
d="M42 482l28 205h227v-73h-162l-10 -74c17 16 44 23 72 23c73 0 128 -55 128 -128c0 -82 -63 -144 -148 -144c-84 0 -143 51 -146 127h85c3 -29 28 -49 61 -49c35 0 63 27 63 62c0 36 -27 62 -64 62c-23 0 -43 -11 -55 -28z" />
    <glyph glyph-name="uni2076" unicode="&#x2076;" horiz-adv-x="361" 
d="M332 435c0 -82 -64 -144 -150 -144c-87 0 -150 62 -150 145c0 36 13 74 40 114l89 137h98l-89 -128c9 4 21 6 32 6c72 0 130 -55 130 -130zM116 433c0 -36 29 -64 66 -64s66 27 66 63s-28 64 -66 64c-37 0 -66 -28 -66 -63z" />
    <glyph glyph-name="uni2077" unicode="&#x2077;" horiz-adv-x="332" 
d="M51 299l159 310h-186v78h287v-63l-162 -325h-98z" />
    <glyph glyph-name="uni2078" unicode="&#x2078;" horiz-adv-x="349" 
d="M174 291c-83 0 -146 52 -146 122c0 43 26 80 67 96c-32 16 -50 44 -50 78c0 61 55 108 129 108c75 0 131 -47 131 -108c0 -34 -18 -62 -50 -78c40 -16 66 -53 66 -96c0 -70 -63 -122 -147 -122zM114 418c0 -31 25 -53 60 -53c36 0 62 22 62 53c0 30 -26 53 -62 53
c-35 0 -60 -23 -60 -53zM124 580c0 -25 21 -43 50 -43c30 0 51 18 51 43s-21 44 -51 44c-29 0 -50 -19 -50 -44z" />
    <glyph glyph-name="uni2079" unicode="&#x2079;" horiz-adv-x="361" 
d="M28 551c0 82 64 144 150 144c87 0 150 -62 150 -145c0 -36 -13 -74 -40 -114l-89 -137h-98l89 128c-9 -4 -21 -6 -32 -6c-72 0 -130 55 -130 130zM112 554c0 -36 28 -64 66 -64c37 0 66 28 66 63c0 36 -29 64 -66 64s-66 -27 -66 -63z" />
    <glyph glyph-name="uni207A" unicode="&#x207a;" horiz-adv-x="343" 
d="M38 530h97v97h74v-97h97v-74h-97v-97h-74v97h-97v74z" />
    <glyph glyph-name="uni207B" unicode="&#x207b;" horiz-adv-x="343" 
d="M38 530h268v-74h-268v74z" />
    <glyph glyph-name="uni207C" unicode="&#x207c;" horiz-adv-x="343" 
d="M38 468h268v-73h-268v73zM38 519v73h268v-73h-268z" />
    <glyph glyph-name="uni207D" unicode="&#x207d;" horiz-adv-x="222" 
d="M33 493c0 83 31 172 94 237h77c-61 -75 -90 -159 -90 -237c0 -79 29 -163 90 -238h-77c-63 64 -94 154 -94 238z" />
    <glyph glyph-name="uni207E" unicode="&#x207e;" horiz-adv-x="222" 
d="M189 493c0 -84 -31 -174 -94 -238h-77c61 75 90 159 90 238c0 78 -29 162 -90 237h77c63 -65 94 -154 94 -237z" />
    <glyph glyph-name="uni2080" unicode="&#x2080;" horiz-adv-x="374" 
d="M339 194c0 -125 -56 -202 -152 -202s-152 77 -152 202s56 202 152 202s152 -77 152 -202zM121 194c0 -79 24 -122 66 -122s66 43 66 122s-24 122 -66 122s-66 -43 -66 -122z" />
    <glyph glyph-name="uni2081" unicode="&#x2081;" horiz-adv-x="239" 
d="M93 0v308h-67v80h154v-388h-87z" />
    <glyph glyph-name="uni2082" unicode="&#x2082;" horiz-adv-x="342" 
d="M317 0h-286v68l145 118c36 29 52 53 52 78c0 32 -21 52 -54 52c-34 0 -57 -26 -58 -64h-84c0 85 58 144 141 144c82 0 141 -52 141 -127c0 -50 -27 -90 -90 -141l-64 -51h157v-77z" />
    <glyph glyph-name="uni2083" unicode="&#x2083;" horiz-adv-x="346" 
d="M170 234c30 0 53 19 53 44c0 24 -21 42 -49 42c-31 0 -51 -21 -52 -48h-82c0 73 57 124 135 124c76 0 132 -46 132 -108c0 -34 -17 -62 -49 -81c43 -17 65 -50 65 -92c0 -71 -61 -123 -146 -123c-86 0 -146 53 -146 132h86c0 -32 25 -54 61 -54c35 0 59 21 59 49
c0 31 -26 50 -66 50h-19v65h18z" />
    <glyph glyph-name="uni2084" unicode="&#x2084;" horiz-adv-x="354" 
d="M292 153h47v-73h-47v-80h-84v80h-189v61l168 247h105v-235zM113 153h95v140z" />
    <glyph glyph-name="uni2085" unicode="&#x2085;" horiz-adv-x="349" 
d="M42 183l28 205h227v-73h-162l-10 -74c17 16 44 23 72 23c73 0 128 -55 128 -128c0 -82 -63 -144 -148 -144c-84 0 -143 51 -146 127h85c3 -29 28 -49 61 -49c35 0 63 27 63 62c0 36 -27 62 -64 62c-23 0 -43 -11 -55 -28z" />
    <glyph glyph-name="uni2086" unicode="&#x2086;" horiz-adv-x="361" 
d="M332 136c0 -82 -64 -144 -150 -144c-87 0 -150 62 -150 145c0 36 13 74 40 114l89 137h98l-89 -128c9 4 21 6 32 6c72 0 130 -55 130 -130zM116 134c0 -36 29 -64 66 -64s66 27 66 63s-28 64 -66 64c-37 0 -66 -28 -66 -63z" />
    <glyph glyph-name="uni2087" unicode="&#x2087;" horiz-adv-x="332" 
d="M51 0l159 310h-186v78h287v-63l-162 -325h-98z" />
    <glyph glyph-name="uni2088" unicode="&#x2088;" horiz-adv-x="349" 
d="M174 -8c-83 0 -146 52 -146 122c0 43 26 80 67 96c-32 16 -50 44 -50 78c0 61 55 108 129 108c75 0 131 -47 131 -108c0 -34 -18 -62 -50 -78c40 -16 66 -53 66 -96c0 -70 -63 -122 -147 -122zM114 119c0 -31 25 -53 60 -53c36 0 62 22 62 53c0 30 -26 53 -62 53
c-35 0 -60 -23 -60 -53zM124 281c0 -25 21 -43 50 -43c30 0 51 18 51 43s-21 44 -51 44c-29 0 -50 -19 -50 -44z" />
    <glyph glyph-name="uni2089" unicode="&#x2089;" horiz-adv-x="361" 
d="M28 252c0 82 64 144 150 144c87 0 150 -62 150 -145c0 -36 -13 -74 -40 -114l-89 -137h-98l89 128c-9 -4 -21 -6 -32 -6c-72 0 -130 55 -130 130zM112 255c0 -36 28 -64 66 -64c37 0 66 28 66 63c0 36 -29 64 -66 64s-66 -27 -66 -63z" />
    <glyph glyph-name="uni208A" unicode="&#x208a;" horiz-adv-x="343" 
d="M38 231h97v97h74v-97h97v-74h-97v-97h-74v97h-97v74z" />
    <glyph glyph-name="uni208B" unicode="&#x208b;" horiz-adv-x="343" 
d="M38 231h268v-74h-268v74z" />
    <glyph glyph-name="uni208C" unicode="&#x208c;" horiz-adv-x="343" 
d="M38 169h268v-73h-268v73zM38 220v73h268v-73h-268z" />
    <glyph glyph-name="uni208D" unicode="&#x208d;" horiz-adv-x="222" 
d="M33 194c0 83 31 172 94 237h77c-61 -75 -90 -159 -90 -237c0 -79 29 -163 90 -238h-77c-63 64 -94 154 -94 238z" />
    <glyph glyph-name="uni208E" unicode="&#x208e;" horiz-adv-x="222" 
d="M189 194c0 -84 -31 -174 -94 -238h-77c61 75 90 159 90 238c0 78 -29 162 -90 237h77c63 -65 94 -154 94 -237z" />
    <glyph glyph-name="zero.inf" horiz-adv-x="374" 
d="M339 86c0 -125 -56 -202 -152 -202s-152 77 -152 202s56 202 152 202s152 -77 152 -202zM121 86c0 -79 24 -122 66 -122s66 43 66 122s-24 122 -66 122s-66 -43 -66 -122z" />
    <glyph glyph-name="one.inf" horiz-adv-x="239" 
d="M93 -108v308h-67v80h154v-388h-87z" />
    <glyph glyph-name="two.inf" horiz-adv-x="342" 
d="M317 -108h-286v68l145 118c36 29 52 53 52 78c0 32 -21 52 -54 52c-34 0 -57 -26 -58 -64h-84c0 85 58 144 141 144c82 0 141 -52 141 -127c0 -50 -27 -90 -90 -141l-64 -51h157v-77z" />
    <glyph glyph-name="three.inf" horiz-adv-x="346" 
d="M170 126c30 0 53 19 53 44c0 24 -21 42 -49 42c-31 0 -51 -21 -52 -48h-82c0 73 57 124 135 124c76 0 132 -46 132 -108c0 -34 -17 -62 -49 -81c43 -17 65 -50 65 -92c0 -71 -61 -123 -146 -123c-86 0 -146 53 -146 132h86c0 -32 25 -54 61 -54c35 0 59 21 59 49
c0 31 -26 50 -66 50h-19v65h18z" />
    <glyph glyph-name="four.inf" horiz-adv-x="354" 
d="M292 45h47v-73h-47v-80h-84v80h-189v61l168 247h105v-235zM113 45h95v140z" />
    <glyph glyph-name="five.inf" horiz-adv-x="349" 
d="M42 75l28 205h227v-73h-162l-10 -74c17 16 44 23 72 23c73 0 128 -55 128 -128c0 -82 -63 -144 -148 -144c-84 0 -143 51 -146 127h85c3 -29 28 -49 61 -49c35 0 63 27 63 62c0 36 -27 62 -64 62c-23 0 -43 -11 -55 -28z" />
    <glyph glyph-name="six.inf" horiz-adv-x="361" 
d="M332 28c0 -82 -64 -144 -150 -144c-87 0 -150 62 -150 145c0 36 13 74 40 114l89 137h98l-89 -128c9 4 21 6 32 6c72 0 130 -55 130 -130zM116 26c0 -36 29 -64 66 -64s66 27 66 63s-28 64 -66 64c-37 0 -66 -28 -66 -63z" />
    <glyph glyph-name="seven.inf" horiz-adv-x="332" 
d="M51 -108l159 310h-186v78h287v-63l-162 -325h-98z" />
    <glyph glyph-name="eight.inf" horiz-adv-x="349" 
d="M174 -116c-83 0 -146 52 -146 122c0 43 26 80 67 96c-32 16 -50 44 -50 78c0 61 55 108 129 108c75 0 131 -47 131 -108c0 -34 -18 -62 -50 -78c40 -16 66 -53 66 -96c0 -70 -63 -122 -147 -122zM114 11c0 -31 25 -53 60 -53c36 0 62 22 62 53c0 30 -26 53 -62 53
c-35 0 -60 -23 -60 -53zM124 173c0 -25 21 -43 50 -43c30 0 51 18 51 43s-21 44 -51 44c-29 0 -50 -19 -50 -44z" />
    <glyph glyph-name="nine.inf" horiz-adv-x="361" 
d="M28 144c0 82 64 144 150 144c87 0 150 -62 150 -145c0 -36 -13 -74 -40 -114l-89 -137h-98l89 128c-9 -4 -21 -6 -32 -6c-72 0 -130 55 -130 130zM112 147c0 -36 28 -64 66 -64c37 0 66 28 66 63c0 36 -29 64 -66 64s-66 -27 -66 -63z" />
    <glyph glyph-name="plus.inf" horiz-adv-x="343" 
d="M38 124h97v97h74v-97h97v-74h-97v-97h-74v97h-97v74z" />
    <glyph glyph-name="minus.inf" horiz-adv-x="343" 
d="M38 124h268v-74h-268v74z" />
    <glyph glyph-name="equal.inf" horiz-adv-x="343" 
d="M38 61h268v-73h-268v73zM38 112v73h268v-73h-268z" />
    <glyph glyph-name="parenleft.inf" horiz-adv-x="222" 
d="M33 86c0 83 31 172 94 237h77c-61 -75 -90 -159 -90 -237c0 -79 29 -163 90 -238h-77c-63 64 -94 154 -94 238z" />
    <glyph glyph-name="parenright.inf" horiz-adv-x="222" 
d="M189 86c0 -84 -31 -174 -94 -238h-77c61 75 90 159 90 238c0 78 -29 162 -90 237h77c63 -65 94 -154 94 -237z" />
    <glyph glyph-name="fraction" unicode="&#x2044;" horiz-adv-x="196" 
d="M-102 0h-107l507 687h108z" />
    <glyph glyph-name="uni215F" unicode="&#x215f;" horiz-adv-x="455" 
d="M93 299v308h-67v80h154v-388h-87zM50 0l507 687h108l-508 -687h-107z" />
    <glyph glyph-name="onehalf" unicode="&#xbd;" horiz-adv-x="797" 
d="M93 299v308h-67v80h154v-388h-87zM50 0l507 687h108l-508 -687h-107zM486 0v68l145 118c36 29 52 53 52 78c0 32 -21 52 -54 52c-34 0 -57 -26 -58 -64h-84c0 85 58 144 141 144c82 0 141 -52 141 -127c0 -50 -27 -90 -90 -141l-64 -51h157v-77h-286z" />
    <glyph glyph-name="uni2153" unicode="&#x2153;" horiz-adv-x="801" 
d="M93 299v308h-67v80h154v-388h-87zM50 0l507 687h108l-508 -687h-107zM486 124h86c0 -32 25 -54 61 -54c35 0 59 21 59 49c0 31 -26 50 -66 50h-19v65h18c30 0 53 19 53 44c0 24 -21 42 -49 42c-31 0 -51 -21 -52 -48h-82c0 73 57 124 135 124c76 0 132 -46 132 -108
c0 -34 -17 -62 -49 -81c43 -17 65 -50 65 -92c0 -71 -61 -123 -146 -123c-86 0 -146 53 -146 132z" />
    <glyph glyph-name="uni2154" unicode="&#x2154;" horiz-adv-x="919" 
d="M317 299h-286v68l145 118c36 29 52 53 52 78c0 32 -21 52 -54 52c-34 0 -57 -26 -58 -64h-84c0 85 58 144 141 144c82 0 141 -52 141 -127c0 -50 -27 -90 -90 -141l-64 -51h157v-77zM168 0l507 687h108l-508 -687h-107zM604 124h86c0 -32 25 -54 61 -54c35 0 59 21 59 49
c0 31 -26 50 -66 50h-19v65h18c30 0 53 19 53 44c0 24 -21 42 -49 42c-31 0 -51 -21 -52 -48h-82c0 73 57 124 135 124c76 0 132 -46 132 -108c0 -34 -17 -62 -49 -81c43 -17 65 -50 65 -92c0 -71 -61 -123 -146 -123c-86 0 -146 53 -146 132z" />
    <glyph glyph-name="onequarter" unicode="&#xbc;" horiz-adv-x="762" 
d="M93 299v308h-67v80h154v-388h-87zM50 0l507 687h108l-508 -687h-107zM427 80v61l168 247h105v-235h47v-73h-47v-80h-84v80h-189zM521 153h95v140z" />
    <glyph glyph-name="threequarters" unicode="&#xbe;" horiz-adv-x="852" 
d="M170 533c30 0 53 19 53 44c0 24 -21 42 -49 42c-31 0 -51 -21 -52 -48h-82c0 73 57 124 135 124c76 0 132 -46 132 -108c0 -34 -17 -62 -49 -81c43 -17 65 -50 65 -92c0 -71 -61 -123 -146 -123c-86 0 -146 53 -146 132h86c0 -32 25 -54 61 -54c35 0 59 21 59 49
c0 31 -26 50 -66 50h-19v65h18zM140 0l507 687h108l-508 -687h-107zM517 80v61l168 247h105v-235h47v-73h-47v-80h-84v80h-189zM611 153h95v140z" />
    <glyph glyph-name="uni2155" unicode="&#x2155;" horiz-adv-x="807" 
d="M93 299v308h-67v80h154v-388h-87zM50 0l507 687h108l-508 -687h-107zM489 119h85c3 -29 28 -49 61 -49c35 0 63 27 63 62c0 36 -27 62 -64 62c-23 0 -43 -11 -55 -28l-79 17l28 205h227v-73h-162l-10 -74c17 16 44 23 72 23c73 0 128 -55 128 -128
c0 -82 -63 -144 -148 -144c-84 0 -143 51 -146 127z" />
    <glyph glyph-name="uni2156" unicode="&#x2156;" horiz-adv-x="925" 
d="M317 299h-286v68l145 118c36 29 52 53 52 78c0 32 -21 52 -54 52c-34 0 -57 -26 -58 -64h-84c0 85 58 144 141 144c82 0 141 -52 141 -127c0 -50 -27 -90 -90 -141l-64 -51h157v-77zM168 0l507 687h108l-508 -687h-107zM607 119h85c3 -29 28 -49 61 -49c35 0 63 27 63 62
c0 36 -27 62 -64 62c-23 0 -43 -11 -55 -28l-79 17l28 205h227v-73h-162l-10 -74c17 16 44 23 72 23c73 0 128 -55 128 -128c0 -82 -63 -144 -148 -144c-84 0 -143 51 -146 127z" />
    <glyph glyph-name="uni2157" unicode="&#x2157;" horiz-adv-x="897" 
d="M170 533c30 0 53 19 53 44c0 24 -21 42 -49 42c-31 0 -51 -21 -52 -48h-82c0 73 57 124 135 124c76 0 132 -46 132 -108c0 -34 -17 -62 -49 -81c43 -17 65 -50 65 -92c0 -71 -61 -123 -146 -123c-86 0 -146 53 -146 132h86c0 -32 25 -54 61 -54c35 0 59 21 59 49
c0 31 -26 50 -66 50h-19v65h18zM140 0l507 687h108l-508 -687h-107zM579 119h85c3 -29 28 -49 61 -49c35 0 63 27 63 62c0 36 -27 62 -64 62c-23 0 -43 -11 -55 -28l-79 17l28 205h227v-73h-162l-10 -74c17 16 44 23 72 23c73 0 128 -55 128 -128c0 -82 -63 -144 -148 -144
c-84 0 -143 51 -146 127z" />
    <glyph glyph-name="uni2158" unicode="&#x2158;" horiz-adv-x="922" 
d="M292 452h47v-73h-47v-80h-84v80h-189v61l168 247h105v-235zM113 452h95v140zM165 0l507 687h108l-508 -687h-107zM604 119h85c3 -29 28 -49 61 -49c35 0 63 27 63 62c0 36 -27 62 -64 62c-23 0 -43 -11 -55 -28l-79 17l28 205h227v-73h-162l-10 -74c17 16 44 23 72 23
c73 0 128 -55 128 -128c0 -82 -63 -144 -148 -144c-84 0 -143 51 -146 127z" />
    <glyph glyph-name="uni2159" unicode="&#x2159;" horiz-adv-x="771" 
d="M93 299v308h-67v80h154v-388h-87zM50 0l507 687h108l-508 -687h-107zM442 137c0 36 13 74 40 114l89 137h98l-89 -128c9 4 21 6 32 6c72 0 130 -55 130 -130c0 -82 -64 -144 -150 -144c-87 0 -150 62 -150 145zM526 134c0 -36 29 -64 66 -64s66 27 66 63s-28 64 -66 64
c-37 0 -66 -28 -66 -63z" />
    <glyph glyph-name="uni215A" unicode="&#x215a;" horiz-adv-x="859" 
d="M42 482l28 205h227v-73h-162l-10 -74c17 16 44 23 72 23c73 0 128 -55 128 -128c0 -82 -63 -144 -148 -144c-84 0 -143 51 -146 127h85c3 -29 28 -49 61 -49c35 0 63 27 63 62c0 36 -27 62 -64 62c-23 0 -43 -11 -55 -28zM138 0l507 687h108l-508 -687h-107zM530 137
c0 36 13 74 40 114l89 137h98l-89 -128c9 4 21 6 32 6c72 0 130 -55 130 -130c0 -82 -64 -144 -150 -144c-87 0 -150 62 -150 145zM614 134c0 -36 29 -64 66 -64s66 27 66 63s-28 64 -66 64c-37 0 -66 -28 -66 -63z" />
    <glyph glyph-name="uni215B" unicode="&#x215b;" horiz-adv-x="799" 
d="M93 299v308h-67v80h154v-388h-87zM50 0l507 687h108l-508 -687h-107zM478 114c0 43 26 80 67 96c-32 16 -50 44 -50 78c0 61 55 108 129 108c75 0 131 -47 131 -108c0 -34 -18 -62 -50 -78c40 -16 66 -53 66 -96c0 -70 -63 -122 -147 -122c-83 0 -146 52 -146 122z
M564 119c0 -31 25 -53 60 -53c36 0 62 22 62 53c0 30 -26 53 -62 53c-35 0 -60 -23 -60 -53zM574 281c0 -25 21 -43 50 -43c30 0 51 18 51 43s-21 44 -51 44c-29 0 -50 -19 -50 -44z" />
    <glyph glyph-name="uni215C" unicode="&#x215c;" horiz-adv-x="889" 
d="M170 533c30 0 53 19 53 44c0 24 -21 42 -49 42c-31 0 -51 -21 -52 -48h-82c0 73 57 124 135 124c76 0 132 -46 132 -108c0 -34 -17 -62 -49 -81c43 -17 65 -50 65 -92c0 -71 -61 -123 -146 -123c-86 0 -146 53 -146 132h86c0 -32 25 -54 61 -54c35 0 59 21 59 49
c0 31 -26 50 -66 50h-19v65h18zM140 0l507 687h108l-508 -687h-107zM568 114c0 43 26 80 67 96c-32 16 -50 44 -50 78c0 61 55 108 129 108c75 0 131 -47 131 -108c0 -34 -18 -62 -50 -78c40 -16 66 -53 66 -96c0 -70 -63 -122 -147 -122c-83 0 -146 52 -146 122zM654 119
c0 -31 25 -53 60 -53c36 0 62 22 62 53c0 30 -26 53 -62 53c-35 0 -60 -23 -60 -53zM664 281c0 -25 21 -43 50 -43c30 0 51 18 51 43s-21 44 -51 44c-29 0 -50 -19 -50 -44z" />
    <glyph glyph-name="uni215D" unicode="&#x215d;" horiz-adv-x="887" 
d="M42 482l28 205h227v-73h-162l-10 -74c17 16 44 23 72 23c73 0 128 -55 128 -128c0 -82 -63 -144 -148 -144c-84 0 -143 51 -146 127h85c3 -29 28 -49 61 -49c35 0 63 27 63 62c0 36 -27 62 -64 62c-23 0 -43 -11 -55 -28zM138 0l507 687h108l-508 -687h-107zM566 114
c0 43 26 80 67 96c-32 16 -50 44 -50 78c0 61 55 108 129 108c75 0 131 -47 131 -108c0 -34 -18 -62 -50 -78c40 -16 66 -53 66 -96c0 -70 -63 -122 -147 -122c-83 0 -146 52 -146 122zM652 119c0 -31 25 -53 60 -53c36 0 62 22 62 53c0 30 -26 53 -62 53
c-35 0 -60 -23 -60 -53zM662 281c0 -25 21 -43 50 -43c30 0 51 18 51 43s-21 44 -51 44c-29 0 -50 -19 -50 -44z" />
    <glyph glyph-name="uni215E" unicode="&#x215e;" horiz-adv-x="820" 
d="M51 299l159 310h-186v78h287v-63l-162 -325h-98zM71 0l507 687h108l-508 -687h-107zM499 114c0 43 26 80 67 96c-32 16 -50 44 -50 78c0 61 55 108 129 108c75 0 131 -47 131 -108c0 -34 -18 -62 -50 -78c40 -16 66 -53 66 -96c0 -70 -63 -122 -147 -122
c-83 0 -146 52 -146 122zM585 119c0 -31 25 -53 60 -53c36 0 62 22 62 53c0 30 -26 53 -62 53c-35 0 -60 -23 -60 -53zM595 281c0 -25 21 -43 50 -43c30 0 51 18 51 43s-21 44 -51 44c-29 0 -50 -19 -50 -44z" />
    <glyph glyph-name="percent" unicode="%" horiz-adv-x="820" 
d="M371 533c0 -92 -75 -163 -168 -163s-168 71 -168 163c0 91 75 162 168 162s168 -71 168 -162zM98 0l508 687h117l-508 -687h-117zM128 533c0 -44 33 -77 75 -77s75 33 75 77c0 43 -33 76 -75 76s-75 -33 -75 -76zM449 154c0 92 75 163 168 163s168 -71 168 -163
c0 -91 -75 -162 -168 -162s-168 71 -168 162zM542 154c0 -43 33 -76 75 -76s75 33 75 76c0 44 -33 77 -75 77s-75 -33 -75 -77z" />
    <glyph glyph-name="perthousand" unicode="&#x2030;" horiz-adv-x="1213" 
d="M371 533c0 -92 -75 -163 -168 -163s-168 71 -168 163c0 91 75 162 168 162s168 -71 168 -162zM98 0l508 687h117l-508 -687h-117zM128 533c0 -44 33 -77 75 -77s75 33 75 77c0 43 -33 76 -75 76s-75 -33 -75 -76zM449 154c0 92 75 163 168 163s168 -71 168 -163
c0 -91 -75 -162 -168 -162s-168 71 -168 162zM542 154c0 -43 33 -76 75 -76s75 33 75 76c0 44 -33 77 -75 77s-75 -33 -75 -77zM843 154c0 92 74 163 167 163c94 0 168 -71 168 -163c0 -91 -74 -162 -168 -162c-93 0 -167 71 -167 162zM935 154c0 -43 33 -76 75 -76
s76 33 76 76c0 44 -34 77 -76 77s-75 -33 -75 -77z" />
    <glyph glyph-name="currency" unicode="&#xa4;" 
d="M538 332c0 -49 -16 -94 -42 -131l74 -74l-66 -65l-76 76c-37 -23 -81 -36 -128 -36s-91 13 -128 36l-76 -76l-65 65l73 73c-27 37 -42 82 -42 132c0 49 15 94 41 131l-73 74l66 65l76 -76c37 23 81 36 128 36s91 -13 129 -36l76 76l65 -65l-74 -74c26 -37 42 -82 42 -131
zM168 332c0 -74 59 -131 132 -131s132 57 132 131s-59 131 -132 131s-132 -57 -132 -131z" />
    <glyph glyph-name="uni2113" unicode="&#x2113;" horiz-adv-x="429" 
d="M30 280c23 7 47 16 71 27v212c0 114 58 178 154 178c86 0 144 -59 144 -149c0 -112 -68 -216 -185 -289v-88c0 -54 30 -78 81 -78c23 0 44 6 58 15v-103c-20 -11 -50 -17 -83 -17c-107 0 -169 59 -169 170v47c-23 -9 -46 -16 -71 -22v97zM214 382c48 45 82 99 82 159
c0 35 -14 56 -40 56c-28 0 -42 -24 -42 -69v-146z" />
    <glyph glyph-name="estimated" unicode="&#x212e;" horiz-adv-x="769" 
d="M691 179c-54 -113 -175 -191 -306 -191c-192 0 -338 153 -338 343s144 344 338 344s337 -157 337 -352h-547v-187c50 -60 124 -98 210 -98c104 0 195 57 243 141h63zM175 373h415v159c-50 57 -121 93 -205 93c-87 0 -160 -37 -210 -96v-156z" />
    <glyph glyph-name="arrowleft" unicode="&#x2190;" horiz-adv-x="850" 
d="M775 302h-528l199 -200l-67 -67l-316 315l316 315l67 -67l-199 -200h528v-96z" />
    <glyph glyph-name="arrowright" unicode="&#x2192;" horiz-adv-x="850" 
d="M75 398h528l-199 200l67 67l316 -315l-316 -315l-67 67l199 200h-528v96z" />
    <glyph glyph-name="arrowup" unicode="&#x2191;" horiz-adv-x="800" 
d="M352 0v536l-200 -199l-67 67l315 315l315 -315l-67 -67l-200 199v-536h-96z" />
    <glyph glyph-name="arrowdown" unicode="&#x2193;" horiz-adv-x="800" 
d="M448 700v-536l200 199l67 -67l-315 -315l-315 315l67 67l200 -199v536h96z" />
    <glyph glyph-name="uni2196" unicode="&#x2196;" horiz-adv-x="750" 
d="M564 605h-282l388 -389l-67 -68l-388 389v-283h-96v446h445v-95z" />
    <glyph glyph-name="uni2197" unicode="&#x2197;" horiz-adv-x="750" 
d="M186 700h445v-446h-96v283l-388 -389l-67 68l388 389h-282v95z" />
    <glyph glyph-name="uni2198" unicode="&#x2198;" horiz-adv-x="750" 
d="M564 0h-445v446h96v-283l388 389l67 -68l-388 -389h282v-95z" />
    <glyph glyph-name="uni2199" unicode="&#x2199;" horiz-adv-x="750" 
d="M186 95h282l-388 389l67 68l388 -389v283h96v-446h-445v95z" />
    <glyph glyph-name="plus" unicode="+" 
d="M70 382h182v185h96v-185h182v-97h-182v-187h-96v187h-182v97z" />
    <glyph glyph-name="minus" unicode="&#x2212;" 
d="M70 382h460v-97h-460v97z" />
    <glyph glyph-name="plusminus" unicode="&#xb1;" 
d="M70 480h182v172h96v-172h182v-95h-182v-170h-96v170h-182v95zM70 45v95h460v-95h-460z" />
    <glyph glyph-name="multiply" unicode="&#xd7;" 
d="M135 565l165 -165l165 165l68 -68l-165 -165l165 -164l-68 -68l-165 164l-165 -164l-68 68l165 164l-165 165z" />
    <glyph glyph-name="divide" unicode="&#xf7;" 
d="M232 151c0 37 29 67 68 67s68 -30 68 -67s-29 -67 -68 -67s-68 30 -68 67zM70 285v97h460v-97h-460zM232 516c0 37 29 67 68 67s68 -30 68 -67s-29 -67 -68 -67s-68 30 -68 67z" />
    <glyph glyph-name="equal" unicode="=" 
d="M70 280h460v-96h-460v96zM70 387v96h460v-96h-460z" />
    <glyph glyph-name="notequal" unicode="&#x2260;" 
d="M70 483h250l39 85h103l-39 -85h107v-96h-152l-49 -107h201v-96h-245l-40 -88h-103l40 88h-112v96h156l49 107h-205v96z" />
    <glyph glyph-name="approxequal" unicode="&#x2248;" 
d="M81 170c0 91 59 140 134 140c101 0 110 -59 162 -59c31 0 51 23 52 54h91c0 -91 -59 -140 -134 -140c-101 0 -111 59 -162 59c-31 0 -51 -23 -52 -54h-91zM81 362c0 91 59 140 134 140c101 0 110 -59 162 -59c31 0 51 23 52 54h91c0 -91 -59 -140 -134 -140
c-101 0 -111 59 -162 59c-31 0 -51 -23 -52 -54h-91z" />
    <glyph glyph-name="less" unicode="&#x3c;" 
d="M86 385l428 205v-115l-304 -141l304 -141v-117l-428 205v104z" />
    <glyph glyph-name="greater" unicode="&#x3e;" 
d="M514 281l-428 -205v115l304 141l-304 141v117l428 -205v-104z" />
    <glyph glyph-name="lessequal" unicode="&#x2264;" 
d="M86 140h428v-95h-428v95zM86 372v114l428 168v-104l-304 -119l304 -119v-108z" />
    <glyph glyph-name="greaterequal" unicode="&#x2265;" 
d="M514 45h-428v95h428v-95zM86 204v106l303 118l-303 118v108l428 -168v-114z" />
    <glyph glyph-name="logicalnot" unicode="&#xac;" 
d="M70 465h460v-263h-97v167h-363v96z" />
    <glyph glyph-name="equivalence" unicode="&#x2261;" 
d="M70 185h460v-96h-460v96zM70 285v96h460v-96h-460zM70 481v96h460v-96h-460z" />
    <glyph glyph-name="infinity" unicode="&#x221e;" horiz-adv-x="805" 
d="M400 251c-44 -55 -94 -92 -163 -92c-103 0 -180 76 -180 173s77 173 180 173c69 0 124 -38 168 -92c44 54 95 92 163 92c103 0 180 -76 180 -173s-77 -173 -180 -173c-69 0 -124 38 -168 92zM161 332c0 -43 36 -77 80 -77c47 0 79 42 105 78c-26 36 -58 76 -105 76
c-44 0 -80 -34 -80 -77zM460 331c25 -36 58 -76 104 -76c44 0 80 34 80 77s-36 77 -80 77c-46 0 -79 -42 -104 -78z" />
    <glyph glyph-name="partialdiff" unicode="&#x2202;" horiz-adv-x="612" 
d="M284 458c72 0 129 -25 160 -60c-2 114 -70 203 -184 203c-43 0 -96 -11 -144 -37v106c47 23 102 34 154 34c163 0 293 -120 293 -348c0 -205 -94 -368 -282 -368c-132 0 -236 86 -236 230c0 140 103 240 239 240zM161 219c0 -75 54 -125 125 -125c92 0 146 88 155 179
c-26 50 -80 83 -140 83c-85 0 -140 -60 -140 -137z" />
    <glyph glyph-name="integral" unicode="&#x222b;" horiz-adv-x="422" 
d="M269 -34c0 -124 -69 -188 -172 -188c-34 0 -60 6 -77 12v102c14 -6 31 -9 55 -9c45 0 78 23 78 86v547c0 124 70 188 173 188c34 0 60 -6 76 -12v-102c-14 5 -30 9 -54 9c-45 0 -79 -23 -79 -86v-547z" />
    <glyph glyph-name="radical" unicode="&#x221a;" horiz-adv-x="713" 
d="M682 694l-299 -694h-95l-157 374h-96v102h176l127 -318l228 536h116z" />
    <glyph glyph-name="uni2206" unicode="&#x2206;" horiz-adv-x="724" 
d="M32 0l281 698h97l282 -698h-660zM193 108h335l-168 421z" />
    <glyph glyph-name="uni2126" unicode="&#x2126;" horiz-adv-x="803" 
d="M355 0h-303v110h120c-66 56 -111 158 -111 264c0 187 154 330 341 330s341 -143 341 -330c0 -106 -45 -208 -113 -264h121v-110h-302v90c98 32 174 140 174 272c0 129 -99 230 -221 230s-221 -101 -221 -230c0 -132 76 -240 174 -272v-90z" />
    <glyph glyph-name="product" unicode="&#x220f;" horiz-adv-x="710" 
d="M82 693h546v-693h-119v582h-308v-582h-119v693z" />
    <glyph glyph-name="summation" unicode="&#x2211;" horiz-adv-x="577" 
d="M45 88l219 258l-219 259v88h486v-108h-321l182 -218v-41l-183 -217h322v-109h-486v88z" />
    <glyph glyph-name="lozenge" unicode="&#x25ca;" horiz-adv-x="585" 
d="M337 0h-89l-218 348l218 346h89l218 -346zM157 350l137 -218l135 213l-138 217z" />
    <glyph glyph-name="degree" unicode="&#xb0;" horiz-adv-x="414" 
d="M50 548c0 85 70 151 157 151s157 -66 157 -151s-70 -151 -157 -151s-157 66 -157 151zM138 548c0 -40 31 -70 69 -70s69 30 69 70s-31 70 -69 70s-69 -30 -69 -70z" />
    <glyph glyph-name="uni03BC" unicode="&#x3bc;" horiz-adv-x="596" 
d="M188 217c0 -76 39 -122 106 -122c69 0 114 53 114 137v258h116v-490h-116v65c-30 -46 -81 -77 -149 -77c-26 0 -50 5 -71 13v-209h-116v698h116v-273z" />
    <glyph glyph-name="uni00B5" unicode="&#xb5;" horiz-adv-x="596" 
d="M188 217c0 -76 39 -122 106 -122c69 0 114 53 114 137v258h116v-490h-116v65c-30 -46 -81 -77 -149 -77c-26 0 -50 5 -71 13v-209h-116v698h116v-273z" />
    <glyph glyph-name="pi" unicode="&#x3c0;" horiz-adv-x="620" 
d="M22 490h576v-103h-83v-387h-116v387h-178v-387h-116v387h-83v103z" />
    </font>
</defs>
</svg>
